<svg version="1.1" id="Layer_1" xmlns="http://www.w3.org/2000/svg" x="0" y="0" viewBox="481 -403.2 1062.1 907.2" xml:space="preserve" style="fill: white"><style>.st1{fill:#f7c200}</style><path d="M1541.8 358.6c-2.8-12.3-5.8-24.4-13.7-34.7-5.3-6.9-9.1-15.1-16.2-20.7-2.1-1.6-.4-2.7.9-3.3 2.7-1.3 5.6-2.2 8.3-3.5 1.8-.8 4-1.9 3.2-4.3-1.7-4.6-3.3-9.3-5.9-13.4-5-7.9-11.9-14.2-19-20.3-8.9-7.7-18.2-14.9-27.9-21.6-4.1-2.8-7.5-6.7-11.8-9-4.5-2.5-8.7-5.2-13.1-7.8-12-7-23.5-14.6-36.7-19.2-1.7-.6-2-1.5-1.7-3.1 1.9-9.4.1-18.5-2.1-27.6-2.7-10.9-6.4-21.6-10.9-32-6.2-14.7-11.6-29.8-18.6-44.2-.9-1.7-.9-3.7-.1-5.4 1.9-4 1.5-8.7-1.1-12.3-1.2-1.8-2-3.7-2.5-5.7-2.6-10-6-19.7-11.5-28.5-1.7-2.6-1.2-4 .7-5.7 1.7-1.5 3.4-3 5.1-4.4 2.1-1.7 1.4-4.2 1.4-6.3 0-1.8-2.2-1-3.4-1.3-6.9-1.9-14-2.5-21-3.4-5.1-.7-9.7-.7-14.1-5.4-6.5-6.8-15.9-9.7-25.1-12-5.1-1.3-10.8-1.8-14.1-7-1.4-2.5-3.7-4.4-6.3-5.5-1.6-.6-1-1.9-.5-3.1 1.3-3.3 3.4-6.9 2.7-10.3-1.2-5.5-3.1-11.2-6.6-15.6-4.1-5.3-7.8-10.9-11.2-16.6-1-1.7-2.2-3.7-4.6-4.1-2.7-.5-2.9-2.2-2.8-4.7.5-9.9.8-19.8 1-29.7.1-3.4-.2-6.7-2-9.7-4.5-7.2-9.8-13.9-15.7-20.1-.8-.9-2-1.4-1.5-3 2.2-6.3 0-12.8.3-19.2.1-2.9-.8-6.5-3.5-8.7-7.3-5.6-14.3-5.4-17.9 4-1.9 4.8-3.3 9.6-4.9 14.5-2.5 7.7-4.7 15.4-3 23.7 1.5 7.3 6.2 11.6 12.7 14.4 1.6.8 3.6.4 4.8-1 1.5-1.6 2.9-3.4 4.2-5.2 1.7-2.7 2.9-1.9 4.5 0 4.4 5 5.2 11 5.2 17.3 0 7.4-1.6 14.6-1 22 .1 1.4.6 4.2-1.1 4.2-2.6.1-1.8-2.7-1.9-4.4-.5-6.3-5.5-11.4-11.8-11.9-7.9-.7-15.9-.9-23.9-.8-2.3.1-3.4-.7-3-3 .2-1.9-.2-3.7-1.2-5.3-4.1-8.6-10.9-15.4-16.4-22.9-3.5-4.8-7.8-9-11.2-13.7-4.9-6.8-10.8-12.9-15.1-20.2-1.8-3-2.6-5.5-2.3-8.9.7-6.5 1.8-12.9 1.3-19.5-.7-9.4-5-14.9-14.2-17.2-9.4-2.3-21 3-25.8 11.4-3.9 6.9-5.1 13.8-3.2 21.7 1.7 6.9 2.8 13.8 6.9 19.8 1.8 2.6 3.5 5.1 6.2 6.9.9.6 2.9 1.6 2.9-.3 0-3.8 2.3-3 4.5-3.1 1.7-.1 3.5-.4 5.1-.9 2.9-1 4.7-.1 6.2 2.4 4.2 7 9 13.7 14.5 19.9l9.3 10.5c5.1 5.6 8.6 12.3 11.7 19.1 1 2.1.1 2.9-1.6 3-2 .1-4 0-5.9-.3-5.8-.9-11.7-.3-17.1 1.9-4.1 1.6-8.1 3.2-12.1 4.9-6.8 2.8-13.9 3.2-21.2 2.8-4.3-.2-7.6-.7-8.6-5.7-.4-1.9-2.8-3-4.7-3.2-6.4-.8-12.8-1-19.2.5-2.7.7-4.5.3-5.7-2.9-3.6-9.2-7.8-18.2-12.5-26.8-2.9-5.4-7.1-10.6-5.8-17.6 1-5.3 1.1-10.9 1.5-16.3.9-13-.3-25.6-6.4-37.3-1.6-3.1-3.9-6.1-4.5-9.3-1-6.4-3.4-12.4-6.9-17.9-1.4-2.1-.2-3 1.5-2.8 4.3.5 8.3-1.1 12.5-1.7 5.3-.7 10.2-2.4 10.8-9.1.2-1.8 1.3-2.7 3.2-3 3.1-.4 6.2-1 9.2-1.7 1.2-.2 2.8-.6 2.9-2 .4-4.8 3.3-8.7 4.7-13.1 3.8-11.6 4.3-23.7 5.2-35.7.3-4.3 2.1-5.5 5.9-3.3 3.2 1.9 6.6 2.2 10 2.6 4 .4 7.6-3.4 7.8-7.5.4-5.8-2.3-11-3-16.6-.3-2.6-.8-5.1-1.5-7.6-.5-1.8-.9-4.4-3-4.6s-1.5-1.3-1.4-2.1c.2-2.5 0-5-.7-7.3-2.1-9.5-7.3-16.8-15.5-21.4-2.5-1.4-4.8-3.4-6.5-5.7-9-11.2-21.5-16.5-35-19.7-12-2.9-24.2-2.5-36.4-1.8-8.9.6-17.8 2.4-26.3 5.2-10 3.2-16.8 10.8-23.3 18.4-4 4.7-8.9 8.7-11.7 14.4-4.8 9.6-9 19.5-12.6 29.7-1.4 4.2 2.6 12.5 7 13.3 3.4.6 4.6 3 6.5 5.3 5 6 4.8 15.1 12 19.6.2.1.3.4.4.6 3.5 7.6 8.2 14.4 12.8 21.4.8 1.1.9 1.9-.1 2.9-3.4 3.3-5.4 8.2-11 8.7-1 .2-1.9.8-2.4 1.6-14.1 16.5-27.6 33.5-41.1 50.6-3.3 4.2-6.6 8.5-10.4 13.4-.1-.7-.2-1.5-.2-2.2-2.3 2.6-4.6 5.1-6.9 7.6-.1.5-.2.9-.3 1.4-.3.7-.2 1.5.3 2.1 3.5 4.6 3.7 8.7 2.5 14.7-.5 2.7.5 5.9 0 8.9-1 6.3.3 12.7-.2 19-.6 7.7-.3 15.6-1.8 23.2-.4 2.9-.5 5.9-.3 8.9-.2 16.7-2.2 33.2-3.3 49.8-1 14.7-2.6 29.4-4.4 44-1 7.7-.3 15.6-1 23.4-.4 4.7 1.2 10-3.2 13.9-.5.5-.4 1.5.3 1.5 3.2 0 1.9 1.9 1.7 3.5-.5 2.9-.7 5.9-.7 8.9.2 3.8-1.9 4.6-4.8 4.4-4.9-.1-9.7-.6-14.5-1.2-11.4-1.9-23-2-34.4-3.7-11.7-1.8-23.7-1.6-35.6-2.5-8.2-.6-16.7-.4-24.4-2.7-6.3-1.9-12.1-1.2-18.1-1.1-1.5 0-3 .2-4-1.2-1.1-1.4-2.8-2.2-4.6-2.2-5.7-.4-11.4-1.7-17.1-1.2-.1 1.1-.1 2.1-.2 3.2h4.8c3.1.2 6.2-.2 9.3.1 3.8.4 7.2 2.5 9.3 5.6.5.7 1.2 1.9 1.8.7 1.8-3.5 4.2-1.7 6.4-1 1.7.6 3.5 1.4 5.1 2.2-5 1.6-9.3.8-13.5 0-.6-.1-1.1-.8-1.6-.8-1.4-.1-3.2-.4-3.8.8-.6 1.2.8 2.3 1.9 3.1 8.7 6.4 18.1 11.6 26.7 18.3 8 6.2 17 11.1 25.2 17.2 1.5 1.1 3.8 2.3 4.5 3.4 2.3 3.3 4.3 1.8 6.7.9 5.8-2.2 11.7-3.9 18-3.9 1.5 0 2.9.6 4 1.7.5.4 1.3.3 1.7-.1.7-.6.2-1-.1-1.6-1.5-2.5-3-4-6.5-3.8-6.6.4-12.9 2.7-19.4 3.5-1.8.4-3.7 0-5.2-1.1-4.6-3.5-9.1-7.2-14.2-10-1.3-.7-3.1-1.6-2.8-3 .4-1.4 2.4-1.4 3.9-1.5 16.7-1 33.4 0 50 1.3 12.4 1 24.5 3.9 36.8 5.6 17.2 2.4 33.5 8.1 50.1 12.8 13.1 3.8 26.4 7.5 38.7 13.5 6.8 3.3 13.3 7.2 20 10.8 1.6.9 1.3 1.8-.2 3 6.8-.8 11.1 3.3 15.8 6.2l2.7 1.5c1.5.9 4.2.3 4.3 3.3 0 .9 1.2.4 1.9.5 2.2.5 4.7.5 5.5 3.3.2.6.6.7 1.1.8 12.8 3.2 19.1 13.3 25 23.8 1.4 2.5 2.8 5 4.4 7.3.8 1.1 1.6 2.6 3.8 2.3-3.3-9.7-9.9-17.2-14.1-26-1.4-3.1-3.4-5.8-7.4-5.5.2-1.9 1.7-2.2 2.7-2.6 9.7-3.9 19-8.8 27.7-14.7 2.9-2 6.4-2.9 9.9-2.4 6.3.9 12.7.8 19 .9-8.9 6.2-18.7 10.6-27.6 17.7 2.4.5 3.2-1 4.5-1.6 8.8-4.2 16.9-9.5 25.3-14.4 2.3-1.3 4.9-1.9 7.5-1.8 1 0 2.4-.8 2.9.7s-.5 2.4-1.5 3.1c-4.4 3-8.8 6.1-13.3 8.8-4.9 2.9-9.9 5.6-14.8 8.6 2.7.4 5-1 7.3-2 4.4-1.9 8.7-4.3 13-6.4.4-.2.7-.4 1-.5 1.7-.7 4-2.3 5-.5s-1.6 2.5-3.2 3.6c-6.8 4.5-13.6 9-19.6 14.5 5.9-1.8 10.7-5.4 15.6-8.8 1.7-1.2 3.6-3.7 5.3-2.4 1.5 1.1 0 4-.8 5.8-1.2 3.3-1.9 6.7-2.3 10.2-.4 2.8-1.7 4.3-4.2 5.5-9.9 4.8-17.5 12.7-26 19.3-.6.5-1.4 1.4-.4 2.2 1.2 1 3.1.8 4.1-.4 4.8-5.9 11.1-10.2 16.7-15.3 2.2-2.2 4.9-3.7 7.9-4.4-.4 4.2-1.6 7.2-5.6 9.5-7.7 4.4-14.9 9.8-20 17.4-.3.3-.7.6-1.1.8-1.3-.8.1-3.2-1.9-3.3-1.7-.1-2.5 1.5-3.4 2.6-3.6 4.2-5.8 9.5-10.3 13.1-.8.6-1.5 1.7-2.3 1.8-5.2.7-3.9 4.3-3.1 7.2 2.2 7.8 2.1 15.2-1.9 22.5-2.1 3.7-3.7 7.6-5.5 11.4-1.2 2.4-2.2 3.7-4.2.5-2.7-4.3-2.8-9.4-4.8-13.9-1.1-2.6-1.5-5.5-2.2-8.3-.4-1.7-.6-3.2 1.1-4.3.6-.4 1.2-1 .8-1.8s-1.3-.4-2-.3c-2.2.2-4.1-.7-5.5 2.9-1.1 2.8-5.5 4.3-8.4 6.5-12.1 9-25.8 15.3-39 22.4-6.2 3.3-13 5.5-19.5 7.9-4.2 1.6-7.9 4.1-12.5 4.8-2.4.4-2.6 2.3-1 4.2 3.9 4.5 7.3 9.4 11.8 13.3.7.6 1.4 1 1.5 2 .2 1.7-.6 4.6 2.8 1.6.5-.5 4.7 1.8 5.9 3.6.9 1.3-1.3 1.4-2.8 1-5.7-1.5-11.1-4-16.5-6.3-12-5-24.4-9.4-36.8-13.2-3.4-1-6.3-2.8-9.5-3.9-.9-.3-2.1-.8-2.6.4s.7 1.7 1.6 2.1c.9.3 1.9.6 2.9.8.6.1 1.6 0 1.6.7-.2 6.2 5.3 4.7 8.3 5.6 6.4 1.8 12.7 4.2 18.9 6.5 19.6 7.1 38.8 15.4 58.6 21.8 16.5 5.3 33.3 9 50 13.2 10.6 2.6 21.1 6.3 32.1 7.3.3 0 .5.1.7.2 10.7 4.7 22.4 5.7 33.5 8.7 6.7 1.7 13.7 2.6 20.5 4 11 2.3 21.9 5.1 32.9 6.8 14.4 2.2 28.9 3.4 43.4 5 14.7 1.6 29.6 1.9 44.3.8 6.9-.5 13.8-1.5 20.4-4 5.9-2.3 9.9-6.3 13.6-11.2 11.8-15.5 21.3-32.4 31-49.2 8-13.9 15.4-28.1 23.6-41.9 5.8-9.8 10.8-20.1 16.2-30.1 1.3-2.5 2.9-4.9 4.2-7.5 3.3-6.8 2.6-13.3-.7-20.1-2.2-4.3-3.5-9-3.8-13.8-.2-2.8-.9-5.6-2.2-8.2-5.3-12-10.6-24-16.3-35.8-2.9-6.1-6.5-11.9-10-17.7-6.2-10.4-12.8-20.6-18.8-31.1-5.6-9.8-13.2-18.1-19.8-27.2-1-1.4-2.2-2.7-3.5-3.8-6.8-5.6-9.2-13.7-12-21.6-1.8-5-3.6-9.9-3.3-15.3.3-5.4 8.3-13.5 13.5-12.5 2.3.4 4.7.8 6.8 1.3 7.8 1.7 15.8 3.5 22.6 8.2 9.6 6.5 16.3 15.5 22.3 25.1 5.9 9.3 11.2 19 16 29 8.1 16.9 17.4 33.3 23.5 51.2 4.2 12.4 9.7 24.4 14.2 36.7 2.4 6.7 5.4 13.4 6.1 20.6.7 6.7 1.4 13.6-2.9 19.7-.4.5-.5 1.1-.5 1.7 1 7.1-3.5 12.5-5.5 18.6-.3.9-.5 2-1.8 2.1-4.4.2-6.3 3.6-8.2 6.8-7 12-13.6 24.3-20.7 36.2-8.6 14.4-17.6 28.5-27.1 42.3-.9 1.3-1.7 2.7-2.5 4.2-2.4 4.7-5 9.1-10.1 11.5-2.1.7-3.6 2.5-4.1 4.7l4.4-2c-1.3 4.6-5.2 6.6-8.5 9.1.8 1.2 1.9-.8 2.7.3-8.8 14.6-19.9 27.5-29.8 41.4-1.2-.5-.3-1.5-.6-2.2-.2-.7-.8-1.3-1.6-1.3-.7-.1-1 .4-1.3 1-4.8 8.7-12.4 14.4-20.3 19.8-4.3 3-8.8 5.8-13 9.1 7.7-2.3 14.1-6.8 21-10.6-3 5.3-7.9 8.3-13.2 10.6-12.8 5.6-26.8 7.9-40.7 6.7-13-1.1-25.8-3.6-38.8-4.1-16.1-.6-32.3-1.8-48.4-.9-4 .3-7.9 0-12.4 0 1.8-3.8 5.5-4.8 8.2-7 1.8-1.4 3.6-2.6 5.6-3.7 1.4-.9.7-1.8.1-2.8-.8-1.4-1.6-.2-2.1.2-4.7 4-10.9 6.4-13.4 12.7-.2.6-.8 1-1.5 1-10.6.5-21.2 1.1-32.6 1.6 5-5.8 10.9-9.2 16.3-13.2 1.9-1.2 3.6-2.6 5.2-4.2.6-.7 1.1-1.4.3-2.3-.9-1.1-1.5 0-2.2.4-7.7 5.3-15.3 10.7-21.1 18.2-.6.7-.9 1.5-1.9 1.6-6 .7-12.1 1.1-18.2 1 6.1-4 12.1-8 18.3-12 2-1.2 4-2.6 5.7-4.2.8-.8 2.5-1.5 1.1-2.9-1.1-1.2-2.3-.2-3.3.5-4.2 3-8.5 6-12.7 9.2-3.8 2.8-7.3 5.9-11.1 8.8-3.8 2.9-8.3 2.3-12.7 2.9 4-4.8 8.8-8.8 14.1-12 2.8-1.7 4.9-4.2 7.8-5.8.8-.5 1.8-1.2 1-2.4-.9-1.4-1.8-.7-2.8 0-7.9 5.6-15.6 11.5-22.1 18.9-2.5 2.8-12.3 5.2-16.2 3.8 4.9-4.7 10.5-8.2 15.8-11.9 3-2 5.9-4.2 8.7-6.3.5-.4 1.4-1 .8-1.8s-1.4-.6-2.3-.1a94.5 94.5 0 0 0-24.5 19.5c-1.1 1.3-2.2 1.5-6 .8.2-1.6 1.5-2.2 2.5-2.9 5.4-4.4 10.8-8.9 16.9-12.3.7-.3 1.2-.8 1.7-1.4.6-1 .9-2.3.1-3.1-.7-.7-1.6.3-2.3.7-7.3 5.2-14.4 10.6-20.1 17.6-.6 1-1.8 1.4-2.9 1.2-5.2-1.1-10-2.7-12.5-8.1-2.8-6.1-6.5-11.6-10-17.4-6.7-11.2-14.1-21.8-21.4-32.6-2-3-4.7-5.4-6.9-8.2-1.7-2.1-3-3.8 2.3-4.9-5.1-1.2-7.3-3.7-9.4-6.5-5.6-7.5-11.9-14.5-17.9-21.8-10.2-12.4-23-22-35.3-32-4.1-3.4-8.5-6.5-13-9.8 2.4-1.3 5.1-1.6 7.8-2.2 16.6-3.3 32.9-7.9 48.8-13.6 21-7.5 40.8-17.5 60.1-28.5 11-6.3 22.3-11.9 32.6-19.4 7.6-5.5 16.4-9.3 23.9-15.2 4.3-3.4 4.2-5.3-.3-8.3-12.3-8.2-25.5-14.7-38.3-21.8-8.6-4.7-17.5-9-26.6-12.9-11.9-5.1-23.2-11.6-35.5-15.7-9.7-3.3-19.4-6.9-29.8-7.5-3-.2-5.5-2.4-8.6-3.2-10.5-2.6-20.8-5.5-31.6-6.8-2.1-.2-5 1.1-6-2.3-.4-.2-.9-.3-1.3-.1-3.1 3-6.7 0-10 .8-.7.2-2 0-1.3-1.4.5-1 .5-1.6-.5-2.1-.7-.4-1.6-.1-2 .5-3.8 4.8-9 2.9-13.8 3-.8 0-1.9.1-1.5-1.4.2-.8 1-1.7-.3-2.2-1.1-.5-1.8.2-2.5 1-3.4 4.1-9.3 5.3-15.3 5.4-.4-1.3 1.5-1.5 1.4-2.8-.1-.8-.1-1.5-.9-1.9-.6-.3-1.3-.2-1.6.4-6.3 8.1-16 9.8-24.9 13.1 3.5-2.5 6.9-5.2 10.1-8 .8-.8 1.8-1.7 1-2.8-.8-1.1-1.8-.1-2.6.3-4.7 2.3-8.9.8-10.4-4.3-.2-1.5-1.3-2.8-2.8-3.3-.5-.1-.9-.3-1.3-.7-5.9-6.7-14.4-10.2-21-16C777.6 84 764.7 78.6 754 70c-.9-.6-2-1.1-3-1.4-.7-.3-1.9-.7-1.9-1-.2-2.6-1.6-4.1-3.4-5.4-.1 1.2-.3 2.3-.4 3.5.3.1.5.3.8.4l-.9.6-.6 3.6c-.1.4-.2.7-.3 1 .4 1 .4 2.1.2 3.2.7.2 1.4.5 2.1.8 7.8 3.7 15.7 7.9 21.5 15.6-.9.2-1.9.4-2.9.6-1.9.1-4-.1-5.9.4-3.3.8-5-.7-6.6-3.3-2.2-3.6-8.4-5.9-12.7-5.5-8.2.9-15.9 3.5-23.5 6.6-5.8 2.4-10.3 6-12.1 12.2-1.2 3.9-2.8 7.4-6.1 10.2-7.5 6.2-14.7 12.5-20.5 20.5-5.5 7.6-12.4 14.2-17.5 22.2-3.3 5.1-6.2 10.5-9.6 15.5-2.5 3.6-6.3 6.3-8.3 10.4-6.2 12.9-14.3 24.7-21.3 37.1-8.3 14.8-17.3 29.3-26.1 43.8-4.1 6.8-6.6 14.6-11.6 20.8-3.4 4.1-4 8.7-4.7 13.4-.8 5.1 1.6 8.9 5.9 9.7 9.3 1.7 18.6 3.2 27.8 5 5.7 1.1 11.4.8 17.1.8 1.1 0 2.5-.4 3.2.6.8 1.2-.6 2-1.1 2.9-2 3.6-4.5 6.8-6.5 10.5-3.7 6.9-5.6 14.6-9.6 21.4-2.7 4.8-4.5 10-5.3 15.5-2.4 12.6-1.9 25.3.4 37.8 3.5 18.8 9.2 36.7 22.1 51.7 8.8 10.1 17.1 20.6 28.4 28.3 19.1 13.2 39.3 23.3 62.7 25.9 10.1 1.1 20.3 1.6 30.5.2 13-1.8 25.4-5.9 38-9.1 8.6-2.2 15.9-7.2 22.9-12.3 12.8-9.3 24.2-20.1 32.6-33.6 4.7-7.6 9.6-15.1 15-22.3 1-1.3 1.7-3.4 3.7-3.3 4 .2 7.8-1.1 11.8-1.4 15.8-1.3 31.4-3.9 46.9-6.5 19.9-3.4 39.6-8.4 59.3-12.9 3.9-.9 6.5-.4 8.6 3.4 7.9 13.9 21.6 17.8 35.7 16.6 20.8-1.7 41.6-3.6 62.2-7.2 16.1-2.8 32.7-2.6 49.1-3.2 22.9-.8 45.8.8 68.6 2.2 12.4.8 24.8.9 37.2-1.2 3.4-.6 6.8-1.3 10.3-.5 2.2.4 4.6.1 6.6-1 4.7-2.2 9.2-4.9 13.3-8.2 3.9-3.4 7.5-7.2 10.7-11.3.5-.7 1.1-1.6 2.1-1.1.8.3.5 1.3.6 2 .3 2.6.7 5.2 1.3 7.7 3.4 11.8 8.4 23.1 15 33.5 7.7 12.4 16.1 24.2 26.4 34.4 11 10.9 23.9 19.6 38.1 25.6 12.6 5.4 25.9 6.9 39.5 6.4 4.6-.2 9.3-.1 14-1.2 9.6-2.3 18.5-6.5 27.8-9.5 6.9-2.2 13.9-3.5 20.6-6.5 14-6.2 26.3-14.6 36.4-26 6.2-6.9 11.2-14.9 16.6-22.4 1.7-2.1 3.2-4.5 4.4-6.9 6.2-14.7 12.3-29.4 13.3-45.7.2-8.9.9-17.3-1.1-26zm-270.1-395c-1.8.1-3.7 1.7-4.9-.4-.5-1 .8-1.7 1.7-2 2.2-.8 2.3 1.2 3.2 2.4zm-49.7-80.7c0-.6 0-1.2.1-1.9 1.8-10.4 3.4-20.7 7.1-30.7.4-1.1.7-2.5 2-2.1s.5 1.8.3 2.6c-2.3 10.8-4.7 21.5-7.2 32.3-.2 1-.4 2.7-1.7 2.6-1.5-.2-.5-1.8-.6-2.8zm7.8 17.5c-1.4 1-2.5.4-3.5-.9 1.5.5 2.5-2.3 4-.7.4.4.1 1.2-.5 1.6zm.5-7.8c-.6 2.5-1.9 4.6-5 4.4-2.3-.2-3.2-1.6-2-3.6 4-6.7 4-14.5 5.8-21.8 1.4-5.5 2.6-11 3.8-16.6.3-1.6.6-3.2.9-4.7.1-.9.8-1.6 1.7-1.8 1-.1 1.5.7 1.9 1.5.8 2 1 4.2.7 6.3-1.7 6.9-2.4 14.8-4.8 22.4-1.5 4.6-2 9.4-3 13.9zm19.4 63.5c2.8 0 3.9.8 3.1 3.8-.6 2 .3 4.1 2.1 5.1 3.2 1.9 4.8 5.7 3.9 9.3-.7 3.9-1 7.9-2.3 11.7-.3.8-.2 1.9-1.4 1.9-.9 0-1.1-1-1.2-1.7-.3-2.7-2-4.8-3.3-7-1.4-2.1-2.1-4.5-1.9-7 .1-.9 0-1.9-1.1-2.1-1.1-.3-1.4.5-1.8 1.4-.8 2.1-2.6 2.3-4.6 1.9-6-1.3-10.7.4-13.7 6.1-1.4 2.7-4.1 3.9-6.9 4.6-14.5 3.6-29.4 5.1-44.3 4.5-1.5.1-2.9.3-4.4.6 2-3.1 2.7-5.7 6.1-7.7s4.7-7.5 4-12.1c-.5-3.7 1.3-6.2 3.2-8.7 1.1-1.3 2.8-1.8 4.4-1.4 9.5 1.5 19 0 28.5-1 10.5-1.1 21-2.1 31.6-2.2zM1239.6 3c1.9-1.4 4-1.3 5.9-1.9 1.2-.4 1.9.1 2.8 1.2 4.4 5.5 8.2 11.5 13.6 16.2 3.7 3.3 7.9 5.9 11.7 9.2 2 1.6 3 4.1 2.8 6.7-4.5-.7-7.8-3.6-11.6-5.4-.5-.3-1-1-1.5-1-9-.7-13.7-8.3-20.3-12.7-4.2-2.8-8.1-6.1-12.1-9.3-.8-.6-1.6-1-2.3-.3-1.2 1.2.2 1.7.9 2.2 6.2 4.6 12.4 9.1 18.5 13.6 2 1.4 4 2.9 5.9 4.4.6.5 1.9.8 1.3 1.9-.6 1-2 1.3-2.9.6-2.6-1.2-4.7-3.2-7.2-4.6-10.7-6-20.8-12.9-30.9-19.8-.7-.5-1.3-1.2-1.7-1.9-.5-.7.2-2.3-1.6-1.8-1 .2-1.8.9-2.2 1.9-.3 1.3 1 1.5 1.8 2 10.4 6.3 19.7 14.2 30.7 19.6 2.5 1.4 4.9 2.9 7.2 4.6 1.5.9 1.7 1.8 0 3-3.6 2.6-5.1 2.9-10.3-1.2-7.5-5.9-15.6-10.9-22.8-17-3.1-2.6-7.2-4-9.2-7.8-.6-1.1-1.3-.2-1.9-.1-.9 0-1.7.7-1.9 1.6s.5 1.4 1.2 1.7c9.8 4 17.1 11.9 25.8 17.5 3.5 2.1 6.7 4.6 9.7 7.3.7.6 2.7.6 1.7 2.3-.8 1.3-2.6 2.2-3.9 1.2-3.8-2.9-8.6-4.1-12.3-7-6.3-5-12.6-10-18.8-15-.5-.4-.8-1.1-1.5-.6-.8.6-.3 1.4.3 1.9 7.6 6.4 14.5 13.6 23.5 18.2 1.2.6 2.4 1.3 3.5 2.1 1.2 1 4.4.6 3.3 3.2-1.1 2.6-6.2 3.9-8 2.5-5.7-4.4-11.5-8.8-16.7-13.9-1.1-1.1-3.1-3.2-4.1-2-1.3 1.6 1.3 2.8 2.5 3.8 5.2 4.4 10.6 8.6 15.9 12.9.7.5 2.4.5 1.7 1.9-.6 1.2-1.8 1.8-3.1 1.7-2.9-.2-5.6-1.4-7.7-3.5-3.1-3.2-7-5.5-9.7-9.2-1.5-2-2.1-4.1-2.9-6.3-.3-.7-1.2-2.7 1.3-2.3 1.2.2 1.2-.8.7-1.4-1-1.2-2.1-2.7-3.4-3.2-3.7-1.4-4.1-5.3-3.8-7.6.6-5 1.2-10.6 6.9-13.2 1.6-.7 3.1-1.6 4.4-2.8 5-4.8 10.3-4 15.8-1.1.6.4 1.7 1.2 1.6 1.4-1.8 4 1.9 3.1 3.4 3.8 8.4 4.1 16.3 9 23.8 14.5.8.7 1.8 1.1 2.9 1-4.9-5.9-11.7-8.9-16.7-13.7zm-19.5 310.7c.1-1.2.4-2.7 1.9-2.9 1.7-.3 1.3 1.6 1.7 2.4 2.3 5.4 4.5 11 6.8 16.4.9 2.2.8 3.5-1.4 2.8-4.1-.7-6.4-1.9-6.5-6-.1-3.2-1.4-6.3-2.1-9.4-.4-1.1-.5-2.2-.4-3.3zm.2 13.9c.1 1.5-.9 1.7-1.9 1.6-1.4-.2-3.5-.4-3-2.4.4-1.6.4-4.6 2.5-4.4 2.2.3 1.6 3.4 2.4 5.2zm10.3-3.8c-1.9-4.9-3.3-10.1-6.1-14.7-.9-1.7-.7-3.4-1-5 .3-1.9 1.2-3.7 3-3.9s2 1.7 2.7 3c4.7 10.2 8.9 20.7 12.4 31.5.3.8 1.5 1.7.3 2.6-1 .7-1.8-.3-2.7-.5-7.3-1.4-6.7-8.2-8.6-13zm-2.7-31c-1.4-.2-3.1-.8-1.8-3.8.9-1.4-.3-4.9 3.1-5.9.8-.3 3.9 5.1 3.4 6.2-.9 2-2.3 3.8-4.7 3.5zm-6.8-9.9c-3.3 7.5-4.2 15.8-6.8 23.5-1.4 4.2-2.8 8.5-4.3 12.7-.4 1.1-.9 2.1-2.7 1.5-3.9-1.3-7.9-2.3-11.9-2.8-6.2-.7-11.1-4.1-16.3-7-1.7-.9-2.4-2.6-2.8-4.6-.4-2.3-.9-4.6-1.7-6.9-.7-2.2-1.9-4.3-4.3-4.8-3-.7-5-2.6-6.8-4.9-3.3-4.1-6.7-8.3-10.3-12.2-2-2.2-3-5.1-4.8-7.4-1.4-1.8-1.4-3.2.6-5.3 2.4-2.6 4.2-5.6 5.3-9 1.9-5.5 5.2-10.7 8.4-15.7 8.5-12.7 15.7-26.2 23.6-39.2 1.1-1.8 1.7-3.9 4.4-4 1 0 1.1-1.3 1.5-2 4.4-8.3 8.7-16.7 13-25.1 2.6-5.1 6-9.7 9.1-14.5 6.4-10.2 12.5-20.5 18.8-30.8.5-.9.9-2.2 2-2 1.4.2.6 1.7 1 2.4 1.9 3.8 3.9 7.5 5.9 11.1 3.2 5.9 6 12 8.3 18.3 1.6 4.2 1.6 9 .9 13.6-3 22.3-7.8 44.2-13.4 66-1.3 5.2-4.6 9.7-5.9 15.1-2.9 11.5-5.9 23-10.8 34zm11.5-204.8c-2.7-3.2-1.9-6.4-2.9-9.6-.1.4-.3.9-.3 1.3-.3 1.3-1 2.2-2.3 1.9s-1-1.5-.9-2.5c.4-3.4.5-6.8.3-10.1-2.3 1.3-1.1 3.3-1.6 4.9-.2.8-.1 1.8-1.2 2.1-1 .3-1-.8-1.5-1.2-1.5-1.2-3.1-2.4-4.7-3.5-3.4-2.3-5.3-5.7-6.6-9.5-.3-.9-.2-1.5.6-1.9 1.1-.5 2.3-1 3.1.1 1.4 2 4 1.4 5.6 2.3 1.6.9 2.1-1.5 3.5-1.3.9 1.2-.3 2-.3 3.1s.1 2.5.8 3.1c.8.8 1.3-.7 1.9-1.1.3-.2.6-.3 1-.4 4.6 1.1 9.1-.1 13.7-.1 1.4 0 2.2.2 2 2.2-1 9-1.7 18.1-2.4 27.1-.1 1.4.3 2.8-1.6 3.3-2.1.5-1.5-1.5-2.1-2.3-2.1-2.2-2.4-5.9-4.1-7.9zm-5.4-26.4c.9-1.9 1.4-4.5 4.1-4.8 1.1-.1 1.6 1 1.8 2-1.1 1.8-1.2 4.5-4.3 4.1-.9-.1-2.2-.1-1.6-1.3zm15.3-1.3c-1.7 2.8-4.5 2.4-7 2.5-1.4.1-1-1.2-.4-2.2 2.1-3.5 3.7-7.3 6.3-10.4s6.6-4.6 10.1-6.6c.8-.4 1.4.3 1.3 1.5-1.7.9-2.5 2.7-3.5 4.6-2.1 3.6-4.6 7.1-6.8 10.6zm1.3 1.1c4.2-6.9 9.9-12.1 12.8-19.2.7-1.7 2.6-2.5 4.3-1.8.2.1.3.1.5.2 1.7 1 .7 3.3-.2 4.2-4.3 4.4-6.2 10.1-9.4 15-2 2.9-4.9 2.3-8 1.6zm9.6-1.6c1.5-2.5 3.2-4.9 5-7.3 2-2.2 3.5-4.8 4.5-7.6.8-2.7 2.4-2.9 4.9-1.9 3 1.2 2.2 3 1 4.7-2.2 3.1-4.1 6.4-5.7 9.9-1.8 3.9-5.1 4.2-8.7 4.2-2 .1-1.7-.9-1-2zm11.1-.6c2.6-3.5 4.8-7.2 6.8-11.1.9-1.9 2.3-1.6 3.7-.6 2.1 1.5-.3 1.7-.8 2.6-1.2 2.3-2.8 4.3-3.1 7-.4 3.3-2.5 4.3-4.8 4-2.4.1-2.9-.6-1.8-1.9zm-93.2-9.6c-16.1-2.2-32.2-5.1-48.5-6.1-2.5-.3-4.9-.9-7.2-1.7-8.3-2.3-16.7-4.8-25-7.1-4.8-1.4-10.2-.6-14.8-3.2-3.8-2.1-7.9-2.7-12.1-3.1-3.1-.3-4-1.7-3.6-4.6.1-1.3.2-2.7.1-4 .9-5.5-1.2-10-1.4-14.7-.1-3.5 1-4.3 4-3.9 7.4 1.1 14.6 3.2 21.4 6.2 8.8 3.9 18 6.4 27.2 8.6 15.4 3.7 31.1 5.1 46.8 7.1 3.6.4 7.2.3 10.8-.2 1.6-.2 3-1.1 4-2.4 2.7-2.9 6-5.1 7.9-9 1.3-2.6 6.5-1.1 7.3 1.9 2.2 9.2 6.3 17.7 9.8 26.4 2.6 6.5 3.9 13.6 7.3 19.9 1 1.9-.1 2.7-1.8 2.4-3.8-.6-7.6-1.4-11.3-2.2-.9-.1-1.7-.6-2.3-1.2-4.7-6.3-11.6-8.1-18.6-9.1zm16.2 15.4c-.2 1-1.3 1-2.2 1.1-5.9.8-11.9 1-17.8.7-6.3-.9-12.7-.2-18.9-.1-8.5 0-16.4-2.1-24.5-3.9-.8-.3-1.5-.8-2.1-1.4-5-4.5-10.7-5.3-17-3.3-2.6.9-5.1-.1-7.3-1-13.9-5.5-28.4-9.3-42.1-15.4-2.4-1.1-3.3-4-1.9-7.1 1.1-2.5 2.8-1.3 4.6-.8 9 2.8 18.2 4.9 27.4 7 12.6 2.9 25.1 5.9 37.3 10.2 7.9 2.8 16.7 2.8 25 3.5s16.6 1.4 24.8 2.8c4.9.8 9 3.5 13.3 5.6.8.5 1.6 1.1 1.4 2.1zm-14.1-57.4c.3.8 1.8 1.5.5 2.5-.7.6-1.7 1.3-2.7.6-.8-.6-2.1-.8-2.1-2.3-.1-1.9.4-3.7 1.3-5.3.6-.9 1.4-1.8 2.4-1.5 1.5.4.3 1.6.3 2.4-.2 1.1-.1 2.4.3 3.6zm2.6-5.6c.5-.4 1.4-.4 1.6.2.4 1.5-.2 2.8-2 4.2.3-1.8-1.3-3.1.4-4.4zm19.4 5.6c4.3-2.8 9.3-4.7 14.4-5.3-2.3 2.6-5.3 3.7-8.2 5.1-2.7 1.3-4.8 3-4.1 6.5.1 1 0 2-.3 3-.1.6-.5 1.2-1.1 1.3-.8.1-1.5-.3-1.8-1-2.5-3.4-2.3-7.4 1.1-9.6zm-.9-4.2c2.1-3.4 5.1-2.1 7.4-2.9-1.8 2.5-4.3 2.5-7.4 2.9zm-4.8-45.5c.3-.8 1.4-1.9 2.4-1.2 1.2.8.1 1.8-.4 2.5-1.3 2-3.1 3.5-4.1 5.7-.7 1.6-2.5 1.3-3.9 1.5-1-.1-2-.1-2.2-1.2s.9-1.3 1.6-1.7c2.7-1.2 5.3-2.5 6.6-5.6zm-.4-9.3c0-1 .9-1.8 1.9-1.9 1.2 0 1.8.3 1.4 1.3-.3 1.1-.7 2.1-2 2.2-1.3.2-1.3-.7-1.3-1.6zm29.1 3.4c.4 1.5-.5 2.4-1.8 3.5-.9-1.9-.4-3 1-3.7.1-.1.8.1.8.2zm-2.8-12.4c.5-.1 1.2-.1 1.2.5-.1 1.6-1.5 2.1-3.1 3.3.4-1.9 0-3.5 1.9-3.8zm-9.2 6.7c.1 3.1 2.9 3.2 4.2 4.7l-.1-.1c1.6.3 3.2-2.1 4.5-.8 1.4 1.5-.9 2.7-1.4 4.2-.8 2.6-1.9 4.8 2.3 5.1 1.3.1 2.5.9 4.1 1.5 0-2 1-3.8 2.7-4.8 1.1-.9 2.2-1.3 2.9.5.4 1.1 1.1 1.6 2.2.8s2.3-1.8 1.3-3c-2.1-2.5-2.6-6.7-7.4-6.6-2 0-3.1-2.7-3.3-4.5-.2-1.8 2-1.6 3.2-2.2 4.6-2.6 8.2 1.3 12.2 1.7 2.5.2 4.3 5.2 3 7.4-1 1.7-.4 2.5.4 3.9 1.4 2.4 1.1 5.4 1.9 8.1.5 1.7-2.1 1.9-3.7 2-4.8.4-9.7.5-14.5 1.2-10.4 1.5-21 1.4-32.1 1.9 5-8.1 11.8-13.8 17.6-21zm-8.6 3c.4-1.2 1.5-2 2.8-2 .7 0 1.4.3 1.1 1.1-.5 1.3-1.7 2.2-3.1 2.2-.9 0-1-.6-.8-1.3zm-72.9-79.1c-.4-.4-1.1-1-1.1-1.5-.6-8.4-5.1-17 .6-25.4 1.7-2.5 2-5.9 3.7-8.5s8.8-6.1 11.6-5.1c1.8.6 3.8 2.5 2.8 4.2-2 3.7-1 7.5-1.7 11.2-.2.9-.1 2-1.6 2.5-.8-.9.1-1.5 0-2.2s-.2-1.3-1-1.3c-.8-.1-1 .6-.9 1.3.5 4.4-1.2 8.8-.3 14.2l2.6-9.4c3.2 5.1 2.4 10.3.8 15.5-1.2 4.7-11.8 7.8-15.5 4.5zm21.2-3.9c-2.1 5.5-6.5 8.4-12.6 8.4 2.2-1.8 5.2-2.4 6.9-4.9 2.2-3.7 3.8-7.7 4.8-11.9 2.3-8.9 2.2-18.3-.3-27.1-.3-1.3-3-2.5-1.1-3.7s3.6.8 5.1 2.1c.8.6 1.3 1.6 1.3 2.6.6 11.7.1 23.4-4.1 34.5zm8.1 12.2c-1.7-1.8-3.2-4-5.1-5.4-2-1.4-1.8-3.4-1-5.4.4-1.2 1.5-2.1 2.7-2.3 1.4-.1 1.3 1.4 1.7 2.1 2.8 6.3 8.9 10.3 12 16.5s8.9 10.6 13.4 15.8c5.9 6.8 12.6 12.9 16 21.7 1.7 4.4 1 8.8 1.3 13.3.1 1.6.1 3.2.2 4.8.2 1.9-.6 2.7-2.5 2.9-3.8.5-4.7-.3-4.3-4.1 0-.9.4-1.8 1-2.4 1.2-1 .9-2 .3-3.3-8.7-19.9-20.8-38.2-35.7-54.2zM1132.8-56c.6-2.3.1-5.5 3.3-6.6 1.6-.6 3.3-.9 5-1.4 1.2-.3 1.5.3 1.6 1.4.1 1.9.3 3.8.5 5.7.8-1.5 1.4-3.2 1.7-4.9.3-2.1 1.9-3.8 4.1-4.1 3.1-.8 3.8-4 5.3-6.3.9-1.3 2-1.8 3.1-1.2 1.3.7-.2 1.7-.2 2.3.6 5.5-2.6 10.4-1.6 16 .9-3.6 1.8-7.2 2.8-10.8.8-3.3 1.5-6.6 6-7.1 4-.5 5.4.5 4.5 4.5-.7 2.5-.8 5.1-.5 7.7 1.2-2.1 1.9-4.5 2.1-6.9.2-1.9 0-4.5 2.8-4.4 2.9.1 5.6 1.7 7 4.2.6 1-.7 1.5-1.4 1.8-6.2 2.4-6.3 7.6-6.2 13 0 1.3.2 3.2 2.2 2.7 1.3-.3 2.1-1.5 1.9-2.8-.1-.3-.2-.5-.3-.8-2.1-4.1.2-6.3 3.2-8.3 1.6-1.1 2.9-.9 4.2.5 2.4 2.5 3.9 8.2 2.6 10.6-1.5 2.7-5.4 3.1-9.8 2.9-8.2-.4-15.9-3-23.9-3.9-5.3-.6-10.6-1.3-15.8-2.2-1.7-.2-4.6-.3-4.2-1.6zm40.3 11c.6.1 1.1.4 1.5.9.3.6-.4 1-.9 1.4-2.2 2-4.7 1.6-7.6.7 1.9-2.4 4.3-3 7-3zm-23.2-1.7c6.3-5.3 12-.3 18.5-.5-5.2 4.7-11.2 4.8-18.5.5zm-32.6-15.1c4-.5 7.9-1.9 12.1-1.5 2.3.3 2.9 1.2 2.5 3.4-.4 2-.1 4.2-3.2 3.6-1-.2-2-.3-3.4-.5-2.8.9-5.3-2.3-8.4-1.9-.7.1-1-.6-1-1.3-.2-.9.5-1.7 1.4-1.8zm32.5 11.5c-2.3 3-4.7 3.2-7.4 2.8-8.2-1.4-16.3-3.3-24.3-5.5-2.5-.7-5.3-.6-8.3-3.1 13.8 1.2 26.4 4.4 40 5.8zm-59.6-17.9c5.6-.5 11.1-.9 17.4-1 2.5.2 4.5 2.3 4.8 4.8.9 5.7 1.1 5.6-4.9 4.7-5.5-.8-10.9-2.2-16.6-1.3-2.5.4-3.5-1-3.8-3.4s.4-3.5 3.1-3.8zm15.8-263.3c.2-.7.4-1.3 1.2-1 .9.5 1.4 1.4 1.5 2.4.2.9-.6 1-1.2.8-1-.2-1.7-1.1-1.5-2.2zm-145.2 36.4c-1.2.7-2.6 2.6-4.2 1s-3.3-3.4-2.9-6.1c.4-2.2 1.2-4.3 2.3-6.3 2.8-5.8 5.8-11.5 8.8-17.2 7.7-14.4 18.3-26 33.3-33.4 10.7-5.3 22.8-7.4 34.7-6.2 3.2.3 6.5 0 9.7.2 13.9 1 27.4 5.4 39.2 12.9 3.4 2.2 5.8 5.3 8.1 8.5 1.2 1.6.3 2.4-1.2 2.5-2.5.3-5 .4-7.4.4-1.9 0-3.7.3-5.4 1-1.5.5-2.3 1.6-1.2 3.1.8 1.4 1.4 2.9 1.6 4.5.9 3.8.2 4.5-3.8 4-.6-.1-1.2-.1-1.8-.1-.2 0-.3.3-.6.6 1.8 1.8 3.8 3 6.4 2.2 1.3-.4 3.4-.7 3.5.9.1 2-2.1 1-3.2 1.2-.8.1-1.7-.5-2.5.7 1.7 2.3 4.8 2.4 7 3.5 1 .5 3.6-3 3.4-5.7-.1-3-.9-5.9-2.2-8.5-1.5-2.9-.7-4.4 2.5-3.8 2.3.3 4.7.2 7-.3 5.2-.8 8.6 1.5 11.6 5.6 5.7 7.7 9.2 16.3 12.3 25.1 1.9 5.6 2.8 11.4 2.8 17.3 1.8-.4 1.6-1.5 1.4-2.6-.1-.6.1-1.3.9-1.3.5.1.9.4 1.2.8 1.1 1.8-.2 8.1-2.1 9.8-.9-.8.2-1.2.4-1.7.3-.6.1-1.3-.5-1.6-.6-.3-.9.1-1.2.5-1.4 1.9-3.1 1.5-5 .9-8.8-2.8-18.2-3.5-27-6.7-3-1.1-5.5-3.3-7-6.1-2.8-4.3-5.2-8.8-7.3-13.4-2.6-6.4-7.9-8.9-14.3-9.6-4.7-.5-9.4-.9-14.1.1-1.5.2-3-.1-4.2-.9 6.4-3.1 14-2.3 19.3-7.7-2-.6-4.2-.5-6.2.4-7.7 2.5-15.8 3.1-23.2 6.8-2.2 1.1-5.1 1-7.4 2.3-.7.4-1.8.8-1.6 1.8 1 5.5.1 11.1.7 16.6.2.9.5 1.7.9 2.5 1.4-5.1.6-9.7 1-14.2.4-4.3 1.1-5 5.8-5.9-2.2 4.9-1.3 9.9-1.6 15.3 1.3-.8 1.2-1.8 1.3-2.7.2-2.1.4-4.3.6-6.3.2-1.9.7-4.4 2.9-4 2.6.4.5 2.8.7 4.3.1 1.5.1 2.9.1 4.4l.9.1c.1-1.6.3-3.2.4-4.8-.1-1.5.6-3 1.7-4 .6-.5 1.2-1 2-.6.7.4 1 1.2.8 1.9-.1 1.3-.8 2.6.3 4.3.6-3.1.1-7.2 4.2-6.8 3 .3.3 3.7 1.5 5.5.9-.9.7-2.2.9-3.2.2-1.7 1.4-2.7 2.7-2.5 6.7.8 14.1-1.1 19.3 5 2.8 3.3 4.3 7.5 6.3 11.3 1.1 2 3.7 4.3.6 6.9-.2.1-.2 2.6 1.3 1.5 2.1-1.6 2.7-.2 3.7 1.1 1.4 1.8 2.6 3.8 5.6 3.1 1.1-.3 1.6.9 2 2.2.8 2.6-.3 5.3 1.4 7.8 0-1.8.1-3.6.1-5.4.1-1.4.5-2.6 2-2.7s1.8.9 2.3 2.3c3.5 9.8 1.8 19.6-.1 29.3-1.1 5.7-2.9 11.3-4.3 16.9-2 8.1-10.3 8.6-15.8 8-6-.7-8.6-4.2-10.9-9.2-1.3-2.8-4-5-6.1-7.4-3.2-3.7-5.2-8.1-7.5-12.3-1.2-2.2.5-2.4 1.9-2.4 3.6-.1 7.2.1 10.8.1.6 0 1.3.2 1.8-.9-3-1.4-6.2-1-9.2-1.4-2.4-.3-3.2-1.2-3-3.6.3-3.7.6-7.4.7-11.1 0-.9.3-2.9-.3-2.6-1.4.7-2.8-1-4 .4-3 3.5-7.8 4.1-11.1 7.1-1.6 1.4-3.3 1.3-5-.5s-4-3.1-5.5-5c-6.7-8.1-16.5-11.1-25.5-15.3-6.9-3.2-14.2-5.3-21.7-6.3-6.1-.6-12.3.6-17.5 3.8zm85.1 23.2c-.4-.3-2.2.3-.9-1.2 1-1.2 2.8-.3 4-1.6.5-.6.6.4.6.8-.1.7.1 1.8-1.2 1.2s-2.1-.4-2.5.8zm-.4 7c-.4.3-1 .2-1.3-.2-.6-.8-.8-1.8-.6-2.7.2-1.6 1.5-2.5 2.2-3.8.3 1.4.5 2.8.8 4.2.2.9-.2 2-1.1 2.5zm-68.4-.3c-4.1-5.2-5.6-11.6-8.4-17.3-.4-.8-.2-2-1.2-2.1-5.1-.8-3.2-4.7-3-7.3.2-2.6 3-2.9 5.1-3.3 7.6-1.5 14.9.4 21.9 2.7 6.8 2.2 13.3 5.5 19.9 8.3 8 3.4 13.2 10 19.2 15.6.6.6 1.2 1.9 1.7 1.9 3.2-.2 4 1.6 3.7 4.4 1.3-.5.9-1.4 1.1-2.1.3-1 .6-2.1 1.8-2.1 1.5 0 1.3 1.3 1.3 2.2 0 1.5 1 2.8 2.4 3.2 3.3 1.3 3.8 4.9 5.3 7.7 2.4 4.7 5.5 9.1 9.1 13 2.2 2.3 3.5 5.4 5.2 8.1 1.7 2.7 3.4 5.3 6.7 6 1.7.3 1.9 1.1 1.3 2.6-.7 2 1.3 4.8-1.3 6.2-3.6 2-6.8 5.2-11.5 4.5-3.5-.6-7.1-1-10.6-1.8-2.9-.7-5.2-2.8-6.1-5.5-2-5.1-4.9-9.7-7.1-14.7-.4-.8-.5-2.3-2-1.5-1.1.6-.5 1.6-.3 2.6.4 1.8 1.4 3.5.8 5.4-.5-.6-1-1.3-2-2.8.3 3.2-2.2 5.3-.1 7.9.3.4.3 1.1-.2 1.4-.1.1-.2.1-.3.2-.8.3-1.8.1-2.4-.5-3.9-2.8-8.1-5.3-11.7-8.4-5.1-4.5-11.2-7.8-17.7-9.8-1.7-.5-2.8-1-3.1-3-.7-3.5-3.8-5.4-5.8-8-3.7-4.9-8-9-11.7-13.7zm60.7 43.9c-.6 1.6-1.6.6-2.3-.1-2-2-2.7-4.5-3.2-7.2 2.4.4 6.3 5.3 5.5 7.3zm-50.9-8.5c1-1.2 1.9-2.5 2.4-4 .8-2.4 2.9-2.3 5.4.7-.1-2.5.1-4.6 2.4-4.3 3.5.4 1.7 3.9 2.7 5.9.3-.3.5-.6.8-1 .6-1 .3-2.8 1.9-2.9 1.6-.1 2.3 1.3 2.7 2.6.6 1.8 1.2 3.1 3.7 1.8 1.9-1 2.7 1 3.3 2.6 1.1 2.6.5 5.7 2.4 8.1 1-1 .4-2 .3-2.9-.1-1.2-.2-2.4 1.2-2.8 1.4-.5 2.9.2 3.4 1.6 1.1 2.5 1.7 5.2 2 7.9.1.7-.1 1.5.8 1.9.8-.4 0-1.1.3-1.6.8-1.4-.6-4.1 1.6-4.5s3.6 1.9 5.4 2.9c.2.1.3.3.4.6-2.6 5.8 3.3 4.5 5.3 5.6 2.8 1.6 5.5 3 7.2 5.6 2.4 3.5 5.8 6.5 6.9 10.9.2.8.8 1.7 0 2.4s-1.6.3-2.4-.2c-6-3.7-12.7-6.2-19.8-7.1-2.3-.4-3.4-1.9-4.5-3.5-2.4-3.4-5.5-6.8-6.7-10.5-1.2-3.9-4.1-4.5-6.4-6.3-6.1-4.9-13.8-7.4-21.6-6.9-1.8-.1-2.3-1.1-1.1-2.6zm-78 261.2c4.6-2.8 9.2-5.5 13.7-8.3l.5.8c-4.1 3-8.3 6.1-12.5 9.1-.6.5-1.4.5-2 0-.4-.4-.4-1 0-1.4.1-.1.2-.1.3-.2zm.9-8.6c1-2.4 4.4-3.5 7.7-2.4-1.8 2.1-4.3 2.5-6.1 4-.4.4-1.2.7-1.6.1-.3-.6-.3-1.2 0-1.7zm-.3 18.5c4.2-5 9.5-8.6 15-12 4.2-2.6 8.3-4.4 14-2-2.6 1.7-4.8 3.1-7 4.5-6.5 4.1-13 8.2-19.4 12.3-1.1.7-2.5 2-3.6.8-1-1.1.2-2.7 1-3.6zm-2 11.3c.3-2.5 1.9-4.7 4.2-5.7 10.1-5.2 19.5-11.8 29.1-17.8 2.9-1.8 4.5.6 7.3 1-13.5 7.7-25 16.6-36.9 25-1 .7-1.9 2.2-3.1 1.3s-.7-2.4-.6-3.8zm-.5 10.5c.2-2.6 1.7-5 4-6.1 10.4-5.6 19.7-12.9 29.6-19.4 3.1-2 6.8-3 9.5-5.8 1-1 2.4-.4 3.6-.3.6.1 1.3.1 1.5.9.2.8-.5 1-1 1.3-14.9 9.8-28.8 21.1-43.9 30.7-.8.5-1.6 1.4-2.7.9-1.1-.3-.6-1.4-.6-2.2zm-65 5.1c.6.2 1.2.3 1.8.3 9-1.9 17.7 1.1 26.5 2.1 2.6.3 4.5 3.3 7.7 3.3.1-2-2.6-1.4-2.8-3.7l27.2 3.6c-.9 1.4-2.5 1.8-3.2 1.3-2.1-1.6-4.1-.6-5.9.1-7.8 3.3-15.5.9-23.2-.1-4.7-.7-9.3-1.4-14.1-1.7-.7 0-1.5 0-2.2-.3-6.6-2.8-13.5-1.1-20.3-1.1-5.2 0-9.2-2.3-13.2-5.3 7.3-.2 14.6-1.1 21.7 1.5zm-45.8-3.7c2 .6 4.1.7 6.2.4 6.3-.8 12 1.6 17.3 4.9-5.8.3-11.7-.4-17.3-1.9-3.5-.9-7.1-.7-10.7-1-2.9-.2-5.6-1.5-7.7-3.5 4.1-.5 8.2-.1 12.2 1.1zm78.5 24.1c-5.2-.6-10.3-1.5-15.5-2-19.7-2.1-39.4-3.6-59.1-2-2.9.3-5.7-.7-7.8-2.7-3.9-3.3-8-6.2-12.3-8.9-1.3-.8-2.9-1.8-2.3-3.4.6-1.6 2.4-.5 3.7-.5 3.6 0 7.2.3 10.8 1 7.9-.3 16.3 1.7 24.8 2.6 1.9.2 4 0 4.7 2.7.2 1 1.5 1.2 2.5 1.3 15.8 1.9 31.3 5.7 46.8 8.8 1.3.1 2.7.4 4 .7 1 .4 3.1.1 2.9 1.6-.2 1.6-2.1.9-3.2.8zm-36.6-12.4c-1.5 0-2.9-.7-3.8-1.8 4.9.1 9.5-.2 13.9.5 11.1 1.7 22.3 1.9 33.3 4.2 4.3.8 8.7.4 12.7-1.1 1.1-.4 2.2-1.3 4 .3-5 1.6-9.2 3.9-13.5 6-2.1 1-4.2.8-6.5.4-13.4-2.9-26.4-7.3-40.1-8.5zm42.4 12.9c2.7-1.8 4.9-.5 7.7 1.1-3.2 1.4-5.4-.2-7.7-1.1zM886 86c9.4-2.2 16.6-11.4 28.3-8.6-3.7 3.6-8.1 5.3-11.7 8-7.8 5.8-5.9 4.5-16.6.6zm12 4.5c4.8-2.6 9.1-4.9 13.3-7.2 2-1.1 4.2-2.1 5.2-4.5.5-.9 1.5-1.4 2.5-1.3 3 .1 6 .8 8.8 1.9-6.6 3.1-13 6.9-18.8 11.2-3.5 2.4-6.9 1.3-11-.1zm10.8 3.4c-.3-.2-.6-.6-.5-.9.3-1.1 1.2-1.4 2.1-1.9 4.7-2.3 9.3-4.7 14-7 .6-.2 1.1-.6 1.5-1 4.3-6.3 10.2-3.5 16-2.8-7.8 3.7-15.2 7.7-21.8 13-2.3 2-8.9 2.4-11.3.6zm118.6 46.8c.7-1.6 2.1-2 3.4-2.7 6-3.1 12.2-5.7 17.9-9.3.7-.3 1.3-.7 1.9-1.1 1-1 3.6-1.7 2.2-3.6-1.2-1.5-2.5.5-3.7 1.2-7.2 3.9-14.4 7.9-21.6 11.8-1.2.7-2.5 1.1-3.9 1.1-2 0-4-1.2-4.5-2.6s1.8-1.6 2.9-2.2c6.5-3.5 13-6.7 19.5-10 1-.5 2.4-1.1 1.8-2.3-.7-1.2-2-.5-3 0l-21.6 11.7c-1 .7-2.2 1.1-3.4 1.2-1.2 0-2.4-.4-2.7-1.6-.3-1.2 1-1.5 1.9-1.9 5.5-2.7 11-5.3 16.4-8 1.2-.6 2.9-1.5 1.9-3-.8-1.3-2.2.2-3.2.7l-18 9c-2.2 1.3-5 1.1-7-.5-6.5-5-14-8.3-21.4-11.7-13.4-6.2-27.7-10.1-41.9-14-7.3-2-14.5-4.2-21.6-6.3-.3-.5-.1-1.1.4-1.4 7.8-4.3 15.4-9.1 23.5-12.9 4.5-2.1 8.6.2 12.9-.1-8.2 4.9-16.6 8.9-24.1 14.5 2.3-.2 4.5-1 6.5-2.2 7.1-3.9 14.9-6.3 21.7-10.7 2.6-1.7 4.3.4 5.9 1.6 1.4 1-.3 1.6-1 2-4.7 2.9-9.4 5.7-14 8.6-1.3.8-2.8 1.6-3.5 3.2 1.2.6 2.2-.2 3.1-.7 5.3-2.9 10.7-5.8 16-8.8a4.9 4.9 0 0 0 2.9-3.9c.3-3-.5-3.8-3.4-4.3-14.3-2.5-28.7-3.7-43-6.1-4.7-.8-9.4-1.2-14.1-1.7-1.2-.1-2.6.3-3.2-1.3-.4-1.4.2-2.9 1.5-3.6 3.6-2.6 7.4-5 11.1-7.5 10.5-6.9 20.9-14 30.9-21.6 5.2-4 10.4-7.1 17.7-3.4 6.6 3.3 14 4.9 21 7.3.4.1.8.4 1.7.8-12.2 9.3-25.2 16.4-38.7 24.1 2.9.6 4.5-.8 6-1.5 11.8-5.9 23.5-11.9 34.1-19.9 1.3-1.2 3.2-1.6 4.9-1.1 4.3 1.5 8.7 2.6 13 4.3 3.9 1.6 8.4 2 12.3 3.8.8.4 2.2.2 2.1 1.6-.1 1.1-1.2 1.4-2 2-6 4.1-12.7 7.4-18.3 12.1-.6.5-1.1 1.2-1.2 2 9.1-4.9 18.4-9.5 26.7-16.3-5.2-3.5-11-5.4-16.5-7.4-10-3.7-20-7.5-30.3-10.2-16.4-4.4-32.2-10.9-48.6-15.4-6.4-1.8-12.5-4.5-19.2-5.5-1.8-.3-3.1.6-4.9.4-.3-4.4 1-8.6 1.5-12.8.3-2.3 2.1-1.9 3.8-1.2 13.4 5.7 27.4 9.6 41.3 13.7 13.9 4.1 27.5 9.4 41.6 12.8 2.7.7 5.4 1.8 8.1 2.6.9.3 2.5.9 2.9-.5.3-1.2-1.3-1.2-2.1-1.5-9.9-4.3-20.5-6.5-30.7-10.1-19.3-6.6-39-11.8-58-19-.3-.1-.7-.2-1.1-.3-5.9-1.6-6.4-2.5-5.1-8.5 1.1-4.8 1.6-9.7 1.5-14.5-.2-2.4.8-4.8 2.7-6.3 2.2-1.9 3.9-4.2 5-6.9 1.8-3.6 4.6-6.1 8.4-9.3-3.6.7-5.6 1.9-7.1 3.9-1.8 2.4-3.7 4.7-5.5 7.1-.5.6-1 1.2-1.9.8-.7-.3-.6-1-.5-1.6.3-3 .6-5.9.8-8.9.1-1.5 1-2.1 2.2-1.8 1.6.3 2.3-.7 2.9-1.8 3.1-5.9 7.3-11.2 12.5-15.5-3.2.6-6.1 2.4-8 5-2.4 2.9-4.5 6-6.7 9-.4.6-.7 1.4-1.7 1.2-.8-.2-1.3-1.1-1.1-1.9 0-.1 0-.1.1-.2.3-1.8.4-3.7.1-5.6-.1-1-.1-2.2.8-2.8 4.9-3 6.8-8.3 10.5-12.3 1.5-1.6 3.6-2.6 5.5-4.6-4.7.1-7 3.3-9.6 5.8-1.1 1.2-2.2 2.4-3.1 3.7-.6.7-1.1 1.9-2.3 1.3-1-.5-.9-1.7-.8-2.7.1-1.6.3-3.1 1.8-4.2 2.3-1.6 3-4.5 4.6-6.7 2.2-3.1 4.9-5.7 8-7.8-1.9-.2-3.8.5-5.1 1.9-1.8 1.6-3.4 3.2-5 5-.9 1-1.4 2.9-3 2.3s-.1-2.4-.5-3.7c-1.1-3.9 1.9-5.6 3.9-8.2 2.9-3.8 5.6-7.8 8.4-11.8.8-1.1 1.8-2.1 2.8-2.9.9-.8 3.6-.7 1.4-3.4-.8-1 2.2-2.5 4-4.5-3.5.5-5.2 2.3-6.8 4.1-3.5 4-6.8 8.2-10.2 12.3-.6.7-1.2 1.9-2.3 1.5-1.1-.5-.4-1.5-.4-2.3.1-3.7.5-6.9 3.6-9.9s4.2-7.8 7.2-11.2c2-2.3 3.8-4.9 6.2-6.9 1.4-1.3 3.3-2.6 1.5-5-.7-.9.5-1.5 1-2.1 2.3-3 5.3-5.1 8.1-7.6-4.1 1.4-7.8 3.9-10.7 7.2-4.7 5-9 10.2-13 15.8-.6.8-1.5 2.1-2.7 1.6-1.2-.5-.4-1.8-.4-2.7-.2-4 1.5-7.8 4.6-10.3 4.6-4 7.8-9.6 12.3-13.9.6-.6 1.3-2 .5-2.6-.8-.7-1.9-.1-2.5.8-.8 1.3-2.1 2.2-3.5 2.8 1.9-4.7 6.3-7.2 9.3-11-5 2.1-8.5 5.9-11.7 10.1-2.2 2.9-5.2 5.1-6.6 8.7-.3.6-1 .8-1.6.5-.8-.3-.7-.9-.7-1.5 0-4.1.6-8.1 4-11.1 3.3-3.2 6.4-6.5 9.3-10.1.7-.8 1.3-1.8 1.8-2.8.4-.7 1.2-1.6.4-2.4-.8-.8-1.9-.4-2.8.1-2.9 1.4-4.9 3.8-6.8 6.2-.8 1-1.3 2.1-2.1 3.1-.5.6-1.4.6-2.1.1-.8-.5-.1-1 .2-1.5 10.1-14.6 19.2-30 31.5-42.8 8.7-9.1 16.1-19.2 24.6-28.4 3.7-4 7.6-4 11.6-3.4 5 .8 9.8 2.6 14.8 4 1.8.5 2.8 2 4.1 3.1 5.5 4.7 10.6 9.9 13.9 16.5 2 3.9 5.1 5.2 9.2 5.9 7.9 1.3 15.6 4 20.3 11.1 2.7 3.7 4.7 7.9 5.9 12.3 2.2 9.5 5.7 18.8 6.7 28.6.6 6 1.4 11.9-3.3 16.8-3.7 3.8-.8 7 1.2 10.1 3.4 5.4 6.4 11.1 8.9 17 2.4 5.8 6 11.1 8.1 17.1 2.3 6.4 4.5 12.8 6.9 19.1.5 1.3-.2 1.6-.8 2.4-2.5 3.1-5.9 5.3-9 7.7-1 .7-1.9 1.6-2.6 2.6-.4.5-.4 1.2 0 1.7.6.5 1.1.1 1.6-.3 2.6-2 5.2-3.9 7.6-6 1.5-1.5 3.6-2.1 5.6-1.5 16.3 3 32.1 8 48.2 11.4 9.2 1.9 18.3 4.1 27.5 5.9 4.5.9 8.8 2 12.7 4.8 2.2 1.5 2.2 2.8 1.4 4.6-2.5 5.9-4.7 12-7.8 17.5-2.8 5-3.5 10.5-4.5 15.9-.6 3-2 3.6-4.6 3.4-8.8-.5-17.6-1.5-26.1-4.3-8.2-2.6-16.8-3.8-24.9-6.4-14.6-4.7-29.9-6.4-44.3-11.3-7.6-2.6-14.4-6.7-18.6-14.2-2-3.5-5.5-5.9-8.7-8.5-4.3-3.5-7.7-7.9-11.3-12.1-1.7-2-3.8-3.5-5.5-5.4-5.3-5.9-11.7-11.1-15.5-18.1-2.7-4.9-3.8-10.7-5.2-16.2-2-7.6-3.4-15.4-5.6-23-2-7.3-2.6-14.8-4.5-22.2s-1.2-14.9-.8-22.2c.4-6.9 1.8-14.3 5.8-20.6 1-1.6 1-3-.7-3.7-1.7-.7-2.3.6-2.8 2-4.2 11.6-5.5 23.7-5.7 35.9-.1 6.6-.7 13.1 1.3 19.6.1.2-.2.6-.1.7 4.1 7.1 2.1 15.1 3 22.7.4 3.5 1.4 6.8 2 10.1.2.9.9 2.6 2.1 2.2 1.5-.5.3-1.9 0-2.8-1.8-6.5-2.4-13.2-3.3-19.9 0-.5 0-1 1-1.3 2.2 6 3.8 12.2 4.7 18.5.4 2.3 1.3 4.4 1.2 7s0 4.5-3.6.9c2.3 6.7 2.3 12.9 5.5 19 1.2-3.3-.4-5.9.7-8.9 7 5.7 5.2 13.8 5.8 21 1.1-2 1.1-2 1-4.7-.1-1.6 0-3.4 1.6-3.8 1.9-.4 2.2 1.6 2.6 3 .8 2.7.7 5.6 2 8.3.3.6.4 1.2 1.3 1.1 1.1-.9-.7-2.1.6-3.1 2.9 1.1 1.3 4.8 3.3 6.6-.3-1.4-.7-2.6.6-3.6.6-.4 1.3-.6 1.7 0 .8 1.6 2.5 2.7 2.2 4.9-.4 3.5-.5 7 2 10.1-.1-2.3-.2-4.6-.2-7 0-.7-.3-1.6.7-1.9.7-.1 1.5.1 2 .7 2.3 2.1 2.8 4.9 2.9 7.7.3 5.7.7 11.4 1 17.1 0 .7.2 1.5.6 2.1.6-5.5.8-11 .4-16.4-.1-1.3-.4-2.6 1.1-3.2.8-.4 1.8-.1 2.2.7.1.1.1.3.2.5.1 1.3 3.2 2 .6 3.7-1.1.7-.9 1.7-.7 2.7 1.9 11-.7 21.6-2.2 32.3-2.8 20-.9 40.4 5.7 59.5 2.3 6.7 4.3 13.5 7.9 19.6.7 1.2 1.3 2.1 2.7 2 .8.1 1.5-.5 1.6-1.3.3-1.4-.4-2.1-1.7-2.9-3-1.9-3.7-5.6-4.9-8.5-1.3-3.2-3-6.5-3.3-10.1-.1-1-.8-2.1.5-2.4 1.3-.4 1.7 1 1.9 1.9 1.1 4.5 3.6 8.5 5.2 12.8.7 1.8 2.1 3.4 3.1 5.1.5.8 1.2 1.5 2.1 1 .8-.5.3-1.3.1-2-.9-2.2-1.6-4.4-2.6-6.5-2.3-4.7-3.7-9.7-5.5-14.5-1.1-3-1.9-3.6-4.7-1.9-1.5.9-1.8-.4-2-1.2-1.8-6.9-3.8-13.8-4.5-21-1.8-19.9 2.2-39.1 5.9-58.5.2-.9.3-1.7 1.3-2s1.5.5 2.2 1.1c3.7 3.4 6.7 7.6 11.4 10.5-5.9 3.5-6.2 9.1-4.8 14.7 2.1 9 .3 17.8-1.1 26.6-.9 5.2.1 7.8 5 9.8 10.6 4.3 21.4 8 32.2 11.7 3.6 1.2 7.2 2.7 10.7 4.1.9.4 2.4.7 1.3 2.4-4.8 6.8-6.1 15.2-9.6 22.6-6.6 13.9-13.6 27.6-22.4 40.3-2.1 3-5.9 5.1-5.4 9.8.1 1-1.7 1.9-3 2.5-8.8 4-17.5 8.4-26 13-2.2.9-4 1-5.9-.6zm7.1 3.7c-1.5-1.3.3-1.8 1.1-2.3 5.1-2.6 10.2-5 15.3-7.6 2.2-1.1 4.4-2.3 6.6-3.4 4.7-2.5 4.7-2.5 9.8.7h-.1c-7.2 4.5-14.5 7.9-21.6 11.6-1.6.7-3.1 1.6-4.6 2.4-2.6 1.9-4.6.1-6.5-1.4zm16.5 2.8c-2 .9-4 1.9-6.1 2.7-1.1.6-2.4.1-3-1 0-.1-.1-.2-.1-.2-.4-1.4 1.1-1.5 1.9-1.8 7.9-3.5 15.6-7.7 23.2-11.9 2.7-1.7 5.8-2.6 9-2.5-8.2 5.1-16 10.9-24.9 14.7zm23.6-18.3c-1.6-.3-3.1-.7-4.7-1-4.9-.9-5.8-3.7-2.4-7.6 5.5-6.3 9.7-13.5 13.7-20.8 7.7-14 14.3-28.7 19.7-43.8 1.8-5.1 9.7-7 13.7-4.1 1.6 1.1 3.6 1.6 5.3 2.6 3.1 1.7 3.3 2.2 2.6 5.6-.2 15-8.7 26.5-16.1 38.3-5.5 8.7-11.3 17.3-19.4 23.9-2.6 2.1-5.3 4.1-8 6.1-1.4.9-2.9 1.2-4.4.8zm34.4 1c-8 .3-15.8-.6-24.6-.6 2.2-2 3.7-3.3 5.3-4.6 8.9-7.6 14.9-17.5 21.1-27.3 3.3-5.1 6.2-10.4 9.1-15.8 2.5-4.6 3.9-9.7 4.2-14.9.2-3 3-5.3 2-8.6-.1-.6 1.9-.9 3-.5 10.2 3.9 20.8 2.6 31.3 2.7 6.2.1 12.4.4 18.6.1 3.7-.1 7.4-.5 11.1-.9 8.3-.9 16 2 24 3.1 3.3.5 5.5 4 7.6 6.7 3 3.9 5.6 8.2 8.5 12.2.7.8 1.1 1.9 1.1 3 0 .6.1 1.6.4 1.7 6.1 1.9 3.4 6.6 3.4 10.5-.2 10.2-7.2 17.4-11.4 25.7-12 23.6-26.9 45.6-40 68.6-6.7 11.7-14.8 22.7-21.1 34.6-6.7 12.7-15.3 24.4-20.8 37.7-1.5 3.4-1.5 7.4 0 10.8 3.5 7.5 6.3 15.5 12.6 21.4 1.4 1.3 1.2 3.5 3 4.6.8.5-.1 1.3-.7 1.7-6.8 4.7-14.2 8-22.6 8.9-5.5.6-11.1 1.1-16.4 3.1-1.8.6-3.8.3-5.4-.7-8.8-4.4-18.1-7.4-27-11.4-3-1.4-2.6-2.1-.8-4.2 8.7-10.3 16.8-21.2 19.9-34.5 5.3-22.6 15-43.5 23.3-65.1 5.6-14.4 10.4-29.1 15.5-43.8 3.5-10 8.3-19.1 16.1-26.4 2.8-2.6 6-4.6 8.3-7.7 1.3-1.7 2.6-3.4 3.6-5.3-3.9.7-5.9 3.1-8.2 4.9-3.9 3.1-8.5 5.2-13.4 6.1-13.4 2.5-27 3.9-40.6 4.2zm16.4 5.9c-.9.1-2.3 1.5-2.6-.5-.3-1.2.4-2.4 1.6-2.7.2-.1.5-.1.8-.1 2.3-.2 4.7-.3 7-.6 6.8-.9 13.6-1.9 20.5-2.9a10 10 0 0 1-7.7 4c-6.7.3-13.1 1.9-19.6 2.8zm14.6-.1c-6.4 1.5-12.2 4.6-18.8 5 5.8-3.7 12.5-4 18.8-5zm-30.6 46.5c2.6-10.5 5.7-20.8 7.7-31.4.9-4.7 2.7-7.6 8.1-8.6 6.9-1.2 13.6-3.8 20.4-5.8.5-.1.9-.1 1.4 0-6 4.7-13.4 6.4-19.6 10.3 5.8-.8 11.2-3.4 17-4.3-6.4 5-14.9 6-21.3 11.2l18.4-5.7.5 1.1c-3.7 3.6-9.1 5-13.4 9.5 3.8-.6 6-2.2 8.4-3.4.9-.5 2-1.8 2.8-.4.4 1.1 0 2.4-1 3-1.7 1-3.4 2-5.2 2.8-1.8.9-3.8 1.8-5.2 3.8 2.4.4 4-1.1 5.8-1.7.9-.3 2.1-1 2.7.2s-.6 1.8-1.4 2.2c-2.7 1.5-5.5 2.9-8.2 4.4-1.1.6-2.5.7-3 2.3 3.7.9 6.5-2.8 11-1.8-4.6 3.3-9.4 5.2-12.7 9.7 3.8-.2 6-3.1 9.7-3.6-1.3 3.5-.3 7.4-6 8.1-3.1.4-5.6 4-8.3 7.7 4.5-1.3 6.7-4.9 11.3-5.9-2.8 4.1-2.5 8.8-6.2 11.8-3.3 2.6-7.1 4.5-9.9 7.9 3.4-.2 5.8-3 9.4-4-2.7 6.9-4.4 13.9-8.1 19.8-2.4 3.9-7.6 6-12.1 9.3 1.2-8.2 2.2-15.5 3.2-22.9.3-2.1 3.7-3.9.7-6.4.9-6.3 1.5-12.9 3.1-19.2zm-23.3 64.3c-.7.4-1.3 1.5-2.2 1-1.1-.6-.4-1.8-.4-2.7 0-.5.1-1 .4-1.4 3.8-5.2 8.9-9.4 14.8-12-3.9 14.3-9.7 26.4-15.7 38.5-1.7-5.5-.4-10.8.3-15.9.8-5.5 7.3-7 9.9-12.4-3.3 1.2-4.9 3.5-7.1 4.9zm8-15.2c-2.9.9-5.4 3.8-7.9 5.9-.7.6-1.4 1.3-2.3.7s-.4-1.6-.1-2.4c.2-.7.6-1.3 1.1-1.9 4.1-3.6 8.2-7.2 12.3-10.7.8-.7 1.9-1.1 2.9-1-.1 4.5-1.1 7.8-6 9.4zm.9-9.4c-3 1.4-5.3 4.3-8 6.5-1 .8-1.8 2.1-3.4 1.9-1.1-5.1.4-9 4.9-12.1 3.5-2.4 6.6-5.6 9.9-8.4 1.2-.9 2.6-1.7 3.9-2.4-1 6.2-1 11.7-7.3 14.5zm3-14.4c-3.7 2.1-6.7 5.4-10.1 8.1-1.2 1.2-2.8 2.1-4.4 2.5-.2-2.1-.1-3.8 1.4-5.2 5-4.7 9.9-9.4 14.9-14 1.1-1 2.2-2.1 3.8-2 .4 4.9-1.3 8.1-5.6 10.6zm-16.5-.3c1.8-2.8 3.9-5.4 6.2-7.8 5.3-5.3 11-10.3 17.9-13.9-.7 4-.3 7.8-5 10.2-6.2 3.2-11 8.9-16.2 13.6-.9.8-1.6 2.5-3 1.6-1.4-.9-.6-2.7.1-3.7zm-14.4 12.2c.8-.9 1.7-1.7 2.6-2.6.4.5.8 1 .8 1.1-1 1.8-2 3.6-3.2 5.3-.3.4-1 .2-1.2-.3-.3-1.3.1-2.6 1-3.5zm-15.3 61.8c3.2-7.9 5-16.4 8.8-24.1 1.1-2.3 2.6-4.4 3.9-6.6l1 .3c-.1 7.3 1.3 14.5 2.3 21.8.3 1.8.7 3.6 1.2 5.4.2.7 0 1.7 1.2 1.4.8-.2.9-1 .8-1.8-.5-4.5-1.2-9.1-1.5-13.6-.3-5.6-1.1-11.1-1.9-16.6-.7-5.1 2.1-9.3 4.5-13.5.3-.7 1.1-1.1 1.9-.9.6.2.6 1 .8 1.6 1.1 3.2.2 6.6 1.6 9.8.7 1.5-.6 3.1-1.7 4.3-1.4 1.2-2.4 2.9-2.9 4.7 2.1 1.2 2.3-2 4.2-1.6-.5 6.3-1.5 12.6-1.5 19 0 9.4-3.3 18.2-4.2 27.4-.4 3.6-1.3 7.1-.2 10.8.7 2.2-.9 2.8-2.6 1.8-6.3-3.5-13.5-2.8-20.3-4.4-2.6-.6-3.1-1.3-2.7-3.9 1-7.7 4.6-14.3 7.3-21.3zm-62.5-15.1c.8-.9 1.3-2.6 2.7-2s-.1 2 0 3c0 1.1-.1 2.2-.2 3.3-.9 8.3-3.6 16.2-5.4 24.3-.4 1.9-1.5 2.4-3.2 2.1-2.1-.3-2-1.7-1.6-3.3 1.6-6 3.1-11.9 4.8-17.9.8-3.2.6-6.7 2.9-9.5zm-18.5 20.2c-.1.5-.4.9-1 .9-.9-.1-.9-.8-.8-1.4.8-3.7 1.6-7.4 2.6-11.1.2-.7.7-1.8 1.8-1.4.9.3.4 1.2.5 2.1-1 3.5-2.1 7.1-3.1 10.9zm3.8 2.7c-.1.7-.4 1.6-1.4 1.3s-.5-1.1-.3-1.8c1-2.7 2.6-5.3 3.2-8.3.2 2.9-1 5.8-1.5 8.8zm2.8 4.7c-1.3-.4-1.1-1.5-.8-2.5.9-3.7 1.8-7.5 2.7-11.2.7-2.8 1.5-5.5 2.1-8.3.3-1.8 1.2-2.9 3.6-3.9-1.5 6.4-2.8 12.3-4.1 18.2-.4 1.9-.9 3.8-1.4 5.8-.3 1.2-.6 2.3-2.1 1.9zm93.7 29.3c1 4.8-1.4 3.5-4.3 2.9-9.9-2.2-19.8-4.6-29.8-6.5-18.1-3.5-35.8-8.3-52.8-15.6-.8-.3-1.6-.6-2.4-1s-2.8.3-2.2-1.6c.5-1.5 1.8-2.6 3.5-1.4 2.3 1.6 5.1 2.3 7.5 3.6s4.8 1 7.2.8c1.6-.1 2.1-1.2 2.1-2.5 0-1.7-1-2-2.5-1.6-2.1.5-2.4-.3-1.8-2.4 2.7-9.5 5.2-19 7.7-28.5.9-3.5 2.5-6.8 1.9-10.8-2 .8-2.6 2.4-3 4.2-2.6 10.7-5.3 21.5-7.9 32.2-.2.6-.4 1.2-.4 1.8.1 2 0 3.5-2.8 2.9-2.6-.6-3.7-1.7-2.9-4.5 1.4-4.5 2.9-9 3.9-13.6 1.3-5.9 3.3-11.7 2.1-17.9-.2-1.1.9-1.3 1.7-1.7 6.1-3.4 12.4-6.7 18.4-10.3 7.3-4.3 14.3-9 21.5-13.4 1-.6 2.7-2.7 3.4.1 2.4 9.1 5.4 18 8.7 26.7 1.4 3.7-.1 6.7-1.7 9.8-3.9 7.8-6.4 16.1-8.9 24.4-.7 2.4.4 4.8 0 7.3s-.9 3.1-3.5 2.3c-8.9-2.8-18.1-4.4-27.3-6-1.8-.3-1.9-.1-4.3 2.7 23.8 3.9 46.3 11.7 70 14.9-.4.8-1.3 1.8-1.1 2.7zm17.2 4.2c3.3.8 5.1 3.6 7.8 5.1 1.1.7 2.4 3.9 3.6 0 .2-.5 1.3-.3 1.7.1 1.8 2.4 4.8 3.6 7.8 3.3.2 0 .4.5.9 1.1-9 .1-16.8-1.2-21.8-9.6zm26.5 11.2c3.1-1.1 4.9.4 6.8 1.9l-6.8-1.9zm6.3-3.2c-15.3-6.6-31.2-11.3-46.4-18-.5-.7.4-1.4.9-2.4 1.1-2.6 1.9-3.5 5.4-1.7 5.6 3 12.1 4.4 18.2 6.4 2.9.8 5.7 1.9 8.3 3.2 1.9 1 4.2 1.6 3.9 4.6-.1 1.1 1 1.5 1.9 2 2.8 1.6 5.5 3.2 8.3 4.9l-.5 1zm27.5 10.8c-2.4-.5-4.8-1.1-7.2-1.9-.5-.1-1.1-.2-1.4-.5-5.9-7.5-15-10.5-22.6-15.7-.9-.6-1.8-1.3-2.7-2-.6-.5-2-.3-1.4-1.7.4-.9 1.2-.9 2.3-.8 1.1.1 2.2.5 3.4-.7-10.8-4.9-22.1-7.5-32.8-12-1.8-.8-3.6-1.6-5.4-2.6-1.3-.9-3-.8-4.1.3-2 2-2.2 1.3-2.8-1-1.4-5.6.6-10.6 2.8-15.4 5.4-12.3 11.2-24.3 16.2-36.8 2.7-6.7 6.4-12.9 7.9-20.1.1-.5.3-.9.7-1.3 3.5-2.6 7.3-4.9 11.2-6.8-3 8.3-6.5 15.5-8.5 23.3-.5 2.2-2.4 4-4.3 5.5-1.5 1.2-3.2 2.3-3.6 4.4 1 .7 1.4-.1 2.1-.4.9-.4 1.6-2.1 2.8-1.1.9.8.2 2.1-.1 3.2-1.9 7.3-6.1 13.6-9.7 20.1-3.3 5.9-7.5 11.1-11.6 16.3-1.7 2.3-3 4.8-4 7.4.5.6 1.4.7 2 .2l.4-.4c2.5-3.3 4.8-1.6 7.6-.2 5.8 2.8 11.8 5.2 17.8 7.7 1.7.7 3.4 1.5 5.1 2.2 3.3 1.4 6.4 3.2 10.7.9 3.8-2 8.7-2.2 13.1-2.6 8.3-.7 16.4-3.3 23.5-7.7 2.3-1.5 5-2.4 7.7-2.6 1.7-.1 3.9-.7 4.4 1.7.5 2.1-.8 4.1-2.8 4.7-5.2 1.6-10 4-15.4 5.3-7.9 1.9-15.9 4-23.3 7.3-2.6 1.2-2.6 2.4-.3 4.1 6.1 4.4 12.4 8.6 18.3 13.4 2.1 1.7 4.1 2.7 7.3 2.1 2.8-.6 4.8 3 8 5-4.8 1.4-8-.4-11.3-.8zm123.3 6.6c-.3 1.5-1.8 2-3.2 2.2-5.5.9-11.1 1.4-16.7 1.7-19.7 1-39.2-2-58.8-3.3-4.4-.3-6.8-2.9-9.7-5.4-1.7-1.4-3.2-3.1-5.3-4l-.1-.1c-1-.5-2.3-.2-2.8.9-.7 1.2.4 1.6 1.3 2.1 1.9 1.2 3.6 2.6 5 4.3-7.7-.7-15.7.4-21.9-6.2-7.3-7.8-16.5-13.3-25.2-19.3-.5-.3-1.2-.5-1.4-1.7 6-1.9 12.4-3.3 18.2-5.9 5-2.3 10.9-1.4 15.3-5.1 1.1-.9 3.1-.3 3.8.4 2.1 2.2 4.9 3.3 7.1 5.3 8.1 7.4 16.8 14 26.1 19.7 1.9 1.2 4.1 2.3 1.4 5-.8.9.8 2.6 0 3.9-1.7.3-2.8-3.3-4.3-1.2-1.7 2.4 1.5 2.7 2.6 3.9 1.5 1.6 2.7 3.7 3.5-.6.3-1.3 2.3-.7 2.8.9.3 1 .2 2.7 1.7 2.2 1.2-.3 1.6-1.8 1.4-3.2-.3-1.6-.8-3.1-1.3-4.6-2.2-7.8-7.7-12-14.9-14.9-3-1.2-5.6-3.4-8.4-5.2 4.5-1.6 7.8.6 11.2 1.8 6.7 2.5 13.4 5.1 20.4 6.7 4.1.9 8 2.7 11.9 4.2 1.3.5 2.5 1.8 1.8 3.2-.7 1.3-2.1.5-3.3.2-4-1-7.7-3.6-12.3-2.7.5 2.2 1.6 3.2 3.9 3.8 8.8 2.4 18 3.7 26.1 8.4 1.1.7 2.4 1 3.7.6-3.4-3.3-7.4-4.7-11.2-6.6-1.8-.9-5.1-1.2-4.3-3.7.9-2.8 3.5-.3 5 .3 6.5 2.6 13.3 4.4 19.8 7.2 2.7 1.2 6.1.4 8.7 2.4.9 1.1 2.7 1 2.4 2.4zm26.6-23c11.4-22.2 24.5-43.4 37.9-64.5-12 21.8-23.7 43.9-37.9 64.5zm-6-266.8c.3.4.7 1 .6 1.3-3.2 6-1.6 12.5-2.2 18.7-1.7 17.1-4.4 34-7.1 50.9-2.3 14.8-4.3 29.5-6.4 44.3-1.4 10.2-2.7 20.5-4.2 30.7-.3 2.2.2 4.3-.6 6.4 2.2-6.3 2.6-13 3.4-19.5 1.2-10.8 3.5-21.3 5-32 2.4-17.1 5.3-34.1 7.7-51.2 1.7-12.3 3.5-24.6 4.3-37.1.2-2.3-.3-4.7.6-7 .7-2 1.7-2.4 3.1-.5 2.1 2.8 4.2 5.6 6.3 8.3 1.4 2 2.1 4.5 2 7 0 3.4.1 6.8.2 10.3l1.1.1c.1-2.2.1-4.3.2-6.5.1-1.2-.4-2.7 1.2-3.3 1.6-.5 2.3 1 2.8 2 3.4 6.8 7.9 12.9 11.7 19.5 1.1 1.9 2 3.4.3 5.9-1.2 1.8-.8 4.8-.8 7.3 0 3.2.3 6.5 1 9.7.3-2.9.6-5.8.7-8.7.1-2.1.1-4.2.1-6.3 0-.8-.1-1.5.8-1.7s1.3.6 1.7 1.2c3 3.9 5.5 7.9 4.6 13.3-.3 2.5-.1 5 .6 7.4l.9-6.3c.1-.6.2-1.3.9-1.5s1 .5 1.3 1c2 3 3.9 6 3 10-.4 1.5-.3 3.3 2.3 2 1.2-.6 1.9.5 2.3 1.3 2.6 5.1 5 10.3 4.3 16.3-.1 1.9 0 3.7.3 5.6.3-.2.6-.2.6-.3.4-1.6-.7-4.1 1.5-4.4 1.8-.2 2.3 2.1 2.9 3.8.7 1.9 1.6 3.6 2.6 5.3 1.7 3 3.1 5.9.7 9.2-1.1 1.5-.4 3.2-.5 4.7-.4 12.2-1.7 24.4-3.8 36.4 2.2-2.5 1.9-5.3 2.6-7.8.7-2.7 1.2-5.4 1.5-8.1.4-2.7.8-5.4 1-8.2.3-4.2.4-8.5.6-12.7.1-1.2 0-2.9 1.4-3.1 1.4-.2 1.6 1.4 1.8 2.4 1.2 5.3 3.5 10.5 2.7 16.1-.2 1.3-.3 2 1.5 2.7 2.8 1 4 8.4 2.7 12.6-1.9 6.3-5.5 11.7-9.2 16.8-6 8.2-11.4 16.9-16.8 25.5-8.4 13.5-16.9 26.9-25 40.6-8.8 14.8-17.3 29.8-25.9 44.8-.2.4-.3.9-.5 1.4 1.7.5 3 1.2 1.4 3.1-3.2 3.6-4.7 8.9-10.5 9.7-1.7.2-1.9-.7-2.4-2-3.7-9.5-7.6-18.9-11.5-28.3-.3-.8-.5-1.6-1.3-1.9.7 5 2.6 9.6 4.2 14.2 1.6 4.5 3.7 8.9 5.6 13.3-.8.6-1.8.6-2.6.1-5.4-2.8-11.2-5.1-17.2-5.5-7.7-.6-10.8-5.1-12.6-11.8-2.9-10.3-6.1-20.6-11.3-30.1-1.2-2.2.5-5.1 3.5-6.3 2.7-1 2.8 1.6 3.5 2.9 6.5 13 12.1 26.4 17.3 40 .5 1.3.8 4.1 2.5 3.4s-.3-2.8-.7-4.2c-3.7-10.8-8.3-21.3-13-31.6-1.6-3.5-3-7.1-5.1-10.3-2.2-3.3-1.3-6 .4-8.9.3-.5.5-1 .8-1.6-.4-.2-.6-.5-.7-.5-4.5 2.2-5.2 2-8.8-2.1-.3-.4-.4-.8-.4-1.3 1.8-9.4 4.5-18.6 9.5-26.8.9-1.5 1.9-1.8 2.9.1 1.9 3.5 3.9 6.9 5.9 10.4 8.1 14.5 14.4 29.8 20.7 45 1.5 3.6 2.8 7.4 5.5 11 .3-3.2-1.6-4.9-2.4-7-4.2-10.8-8.2-21.6-12.7-32.2-2.6-6-5.5-11.9-8.8-17.5-2.6-4.6-4.1-9.8-8.2-13.6-1.1-1-1.2-3.2-.6-4.9.3-1.2.7-2.4 1.2-3.5.8-1.7-.4-4.8 2.1-5 2.1-.2 2.2 2.9 3.3 4.4 7.5 10.4 13.6 21.6 19.3 33.1 1 2 1.9 4.1 4.8 5.5-1.5-3.4-2.6-6.3-3.9-9.1-6.2-12.9-12.9-25.5-21.1-37.3-2.8-4.1-2.5-5.7.7-10.1 3.6 4.1 5 9.4 7.5 14 .9 1.6 2.1 3.1 3.4 4.5.4.5 1.2.5 1.7.1.8-.6.1-1-.2-1.5-3.9-7.3-6.4-15.2-11.5-21.8-.4-.5-.8-.9-.7-1.6 1.4-6.1.9-12.6 3.8-18.6 1.4-3 1.4-6.5 2.1-9.8 2.8-12.7 6.2-25.3 4.3-38.5-.7-5-4.6-8.4-6.6-12.8-4.3-9.5-9.2-18.7-13.9-27.9-.4-.7-.5-1.6-.2-2.4 4-13.4 4.6-27.3 6.1-41 .9-9.1.7-9.1 9.7-9.5 4-.2 8 0 11.9-.7 5.4-.9 9.6 1.8 14 3.9 1.7.8 1.2 2.5.9 3.6-1.7 7.8-1.6 15.8-2.3 23.7-1 11.5-2.8 22.9-4.1 34.4 3.2-13.6 5.3-27.4 6.3-41.3.2-3.2.9-6.5.7-9.7-.2-3.8 3.2-4.9 4.6-7.5.1-1.2 6.1 0 6.8 1zm-14.6-22.6c.8 0 1.4.6 1.6 1.3 2.2 5.9 3.9 11.9 8.2 16.9-5.6-1.6-10.4-4.4-15.2-7.1-.9-.5-.3-1.4.1-2 1.8-2.2 2.4-4.8 3.2-7.4.1-1 1-1.8 2.1-1.7zm8.1-31.5c-6.7 1.3-10.2 5.3-10.9 12-.1 1.2.5 3-1.4 3.4-1.7.4-2.3-1-3.2-2-3.3-3.8-7.7-6.1-11-9.9-3.5-4-5.3-9.3-9.9-12.3-.8-.5.1-1.3.5-1.9.8-1 2.2-1.9 1.1-3.1-1.1-1.3-2.1.5-3.2.8-1.8.6-3.4 1.5-5.2 2.1-4.1 1.3-10-1.2-11.5-4.7-3.3-7.6-2.2-12 3.9-15.5 3.7-2.1 8.6-.2 12.3 3.2 3.2 3 1.7 6.7 3 9.9.6 1.3.1 3.2 2.3 2.9 2-.3 4.7.8 5.7-2.2 2.3-6.5 3.5-13.3 3.3-20.2 0-3.3-1.6-6.4-4.3-8.2-1.5-1-1.7-2.2-1.9-3.7-.5-6.1-1-6.5-7-6.3-.6 0-1.4.1-1.7-.3-.6-.7.1-1.4.6-1.9 1.8-1.6 1.2-3.2.7-5.4-.6-3 .5-6.4.7-9.6.6-9.3 1.8-18.5 1.8-27.9 0-4.6-1.7-9.1-4.8-12.5-3.3-3.8-6.2-7.9-10.3-11-2.2-1.7-.3-4.1.4-6.1.3-.7.7-1.3 1.1-1.9 6.9 5.6 10.7 13.2 15.7 19.8 1.4 2.1 2.1 4.6 2 7.1.4 10.7 1.5 21.3-.1 32-.5 3.3-1.6 6.3-1 9.9.5 2.6 1.8 3.1 3.7 3 1.6-.1 2.9-.5 4.4.9 2.3 2.1 4.2 4.6 5.7 7.3.6 1.3-1.3 1.8-2.3 2.4-2.4 1.6-3 4.4-.8 5.9 2 1.4 2.9 3.2 4.1 5 .3.4.5 1.2.8 1.2 5.1.8 2.3 3.9 1.6 6-1.5 4.7-4.9 8.2-8.5 11.5-1.4 1.3-2.7 2.7-2.8 4.7-.1 1.6-.6 3.4 1.3 4.3 1.8 1 3.9 1 5.8.1 1.1-.5 1.6-1.7 1.2-2.8-.4-1.7-1.5-.7-2.4-.5-1.1.3-2.3 1.3-3.1 0-.7-1.3.9-1.8 1.7-2.5 4-3.9 7.5-8.3 10.5-13 .6-1 1.3-2.6 2.8-1.6 1.3.8 1 2.3.2 3.3-1.7 2.2-.9 6.1-5 6.5-.8.1-.7.9-.3 1.5 1 1.5 1.6 3.3 3.3 4.4 4.7 2.8 8.3 6.9 12.3 10.6 2.1 1.9 1.3 4.6-1.9 5.3zm67.8 20.8c.8.1 2 0 1.8 1.3-.1 1.1-1.2 1.4-1.9 1.8-.9.1-1.7-.7-1.8-1.6v-.2c.1-1 .9-1.4 1.9-1.3zm14.9 54c-1.9.8-1.9-1-2.4-2-7.5-14.6-14.5-29.5-23-43.6-1.7-2.4-3.6-4.8-5.6-6.9-.7-.9-2.6-1.1-1.8-2.8.7-1.4 2.2-.6 3.3-.5 8.6-.1 11.3 6.2 13.5 12.7 3 8.9 7.2 17.1 11.3 25.5 2.3 4.6 3.4 9.5 5.7 14.1.7 1.5.6 2.8-1 3.5zM916 296.6c4.8 3 8.5 7.3 12.4 11.5-4.2-3.8-9.2-6.7-12.4-11.5zM808 127c2.7-1.4 4.9-3.7 8.2-4.1-2.6 1.6-4.5 3.9-6.8 5.9-.7.6-1.7 1.6-2.5.5-.8-1 .4-1.9 1.1-2.3zm-51.8-29.2c7.2-1.4 14.6-1.7 21.9-.9l2.6.2c2.2.2 5-.3 6.5.9 1.3.9.9 4 1.9 5.7 3.6 6.4 5.9 13.7 12 18.5-1.5-5.2-5.3-9.1-7.5-13.9-.5-1.1-1.2-2.2-1.7-3.3-.4-.9-.8-2.1.4-2.6 1.2-.6 1.2 1 1.8 1.4 6 4.1 8.8 10.5 11.8 16.7.6 1.3 2.2 2.8.3 4.2s-3.2.1-4.4-1.3l-.7-.9c-.5 3.6-4 1.3-5.1 2.5-1.4 1.5-1.8 4.4-4.6 3.9-2-.4-2.8.1-3.9 1.6-1.4 1.9-3.1 2-4.3-.5-.6-1.5-1.6-2.8-2.9-3.9-6.2-4.7-10.5-11.2-16.2-16.3-3.4-3-6-6.8-9.6-9.8-1.5-1.7.7-2 1.7-2.2zm45.6 30.6c-4.8 3.9-9.2 8.3-14.9 10.9-.7.3-1.5 1-2.5.3.5-2.1 2.6-2.2 3.9-3.2 3.9-3.2 7.9-6.3 11.9-9.5.6-.4 1.2-1.1 1.9-.4.8.7.3 1.4-.3 1.9zm-89-29.1c1.2-3.8 4-5.5 7.8-5.9 7.2-.8 14.3-2.1 21.5-1.7 1.6.3 3.1.8 3.3 2.8.1 2.1-1.8 1.7-3 1.8-9.2 1-18.1 3.3-26.9 5.8-1.1.3-2.6 1.1-3.5.1s.4-1.9.8-2.9zM592.1 297.4c-6-1.5-5.7-1.4-2.6-6.8 7.5-12.8 15.3-25.4 22.1-38.7 6.8-13.3 15-25.9 22.3-39 10.4-18.6 22.6-35.9 35-53.1 4.9-6.9 9.1-14.3 14.5-20.8 8-9.5 14.8-20 25-27.5.3-.2.9-.4.9-.6.8-5.1 5.2-4.2 8.5-5.2 7.6-2.2 15.3-4.3 23.3-4.9 6.2-.5 11 2 15 5.5 8.2 7.2 15.7 15.2 23.4 22.8 1.3 1.3 1 2.3-.4 3.3-1.9 1.5-4.7 1.5-6.6 0-5.9-4.3-12.7-6.7-19.7-8.5-6.5-1.6-9.6.2-12.6 6.2-3.3 6.5-5.8 13.4-7.3 20.5-.6 3.2-1.4 6.5-.9 9.6.5 2.8-1 3.3-2.8 4.3-5.3 2.8-11.5 4.3-15.5 9.2-.1.2-.2.5-.2.8 1.7 1.1 3.2.4 4.7-.2 3.8-1.9 7.4-4.4 11.4-5.3 4.9-1.2 8.8-3.6 13.1-5.9 10.3-5.4 21.6-8.9 31.9-14.3 10.6-5.6 21.6-10 32.7-14.2 7.4-2.8 14.9-5.4 22.4-8 5.9-1.9 11.8-3.5 17.9-4.7 11.5-2.6 23-1.8 34.5-1.8.3 1.8-1.6 1.8-1.6 3.2.7.7 1.9.8 2.6.1 3.4-2.6 7.1-2.2 11-1.8 13.2 1.4 25.8 5.4 38.5 8.7 7.9 2 15.9 4.2 23.8 6.3 12.4 3.4 23.8 9.4 35.4 14.6 14 6.2 27.5 13.2 41.1 20.2 10.3 5.3 20.2 11.1 29.9 17.3 2.6 1.6 2.6 2.5.1 4-9 5.5-18 11-26.9 16.7-13.7 8.8-28.1 16.3-42.4 24-30.5 16.5-62.8 27.7-96.8 34.6-8.4 1.7-13.5.7-17.6-6.8-4.9-9-13.4-13.1-23-15.8-4.1-1.1-7.3-4.3-11.7-5.5-16-4.1-32.5-6.5-49-7-19.3-.4-38.5 1.2-57.4 4.7-18.5 3.3-36.3 9.3-53.4 17.1-19.6 8.8-37.7 20.5-55.8 32-4.6 2.9-9.6 5.4-14.1 8.3-7.3 5.1-14.9 4.3-22.7 2.4zm184.4-157c-.7 3.3-1.2 3.8-4.7 5.1 1-2.4 2.2-4.1 4.7-5.1zm-41.3 15.3c1.2-7.9 2.8-15.8 6.8-22.9.5-.9 1-2.3 2.4-1.7 1.2.5.6 1.8.4 2.7-1.8 8.3-4.2 16.4-7 24.4-.3 1-.5 2.2-1.8 2-1.6-.2-1.1-1.6-1.1-2.7.2-.6.3-1.2.3-1.8zm9-7.1c.5-1.5 1.5-2.8 2.8-3.7 3.9-3.3 5.3-7.9 6-12.8.2-1.5-.1-3.5 2.1-3.1 1.8.3 1.6 2.3 1.3 3.8-.8 2.9-1.8 5.7-2.6 8.5-.4 1.1-.8 2.4.6 2.8 1.4.5 1.3-1 1.8-1.8 1.5-2.7 2.5-5.7 3-8.8.2-1.9 1.3-3.1 3.2-2.7 2.2.5 1.1 2.1.8 3.3-.7 2.2-1.2 4.5-1.5 6.9-.3 2.6-1.8 4.9-4.1 6.1-4 2.4-7.7 5.4-11.5 8.2-1.2.8-2.3 1.9-4.2 1.3.7-2.6 1.5-5.3 2.3-8zm19.8-1.8c.6-.5 1.5-1.4 2.2-.4.7 1-.2 1.9-1.1 2.4-3.6 2-7.1 4.4-11.9 5.6 3.3-3.8 7.6-4.9 10.8-7.6zm.1-4.7c0-2.7 1.3-4.5 1.8-6.4.4-1.1 1.6-1.7 2.7-1.3 1 .1 1.9.8 2.3 1.7.4 1.2-.8 1.7-1.5 2.2-1.7 1.3-3.3 2.4-5.3 3.8zm-139 160.6c-3.7-.2-7.4-.6-12.2-1 4.8-4 9.5-5.8 13.6-8.6 8.1-5.7 16.6-10.8 25.1-15.9 3.4-2 7.4-3 10.5-5.3 9.8-7.3 20.7-13 32.3-17 14.6-5 29.1-10.4 44.5-13 19.2-3.4 38.7-4.9 58.1-4.5 15.9.5 31.5 2.4 46.7 6.9 5.6 1.6 10.9 4.1 15.7 7.4 2.4 1.7 5.7 1.2 8 3.4 4.5 4.1 8.5 8.7 12.2 13.6 1.2 1.6 1.9 3.4 4.4 3.5 1.3 0 2.5 1.2 3.3 2.3 5.4 7.2 12.5 12.6 19.3 18.3 1.7 1.5 3.3 3 4.8 4.6 8.5 8.9 18 16.7 27.3 24.7 4.2 3.5 8.1 7.4 11.5 11.7 1.5 2.1 3.1 4.1 4.8 6-21 .6-41.7-1-62.7-2.5.5-1.7 2.1-1.7 3.1-2.4 4.2-2.6 4.8-6.2 1.4-9.7-13.7-14.2-30.1-25.7-48.1-33.8-13.3-6-27.4-9.6-41.4-13.4-20.6-5.5-41.6-8.7-62.8-10.7-3.2-.3-6.2 1.4-8.8 1.4-3.9-.1-6.6 1.4-9.6 3-4.6 2.5-8.3 6.2-11.8 10.1-4.5 5.1-9.8 9.3-15.2 13.4-3.2 2.4-5.5 5.7-6.6 9.6-.6 2.1-1.6 2.3-3.4 2.5-5.8.4-11.4-.5-17.1-.9-15.6-1.3-31.3-2.5-46.9-3.7zm15.4 24.3c-.1-1.5 1.7-2.8 2.7-2.5 1.7.6 4 1.3 3.9 3.7.1 1-.7 1.9-1.7 1.9-.3 0-.6 0-.9-.2-2-.1-3.9-.6-4-2.9zm2.9 8.8c-.3 1.7-.5 4-3.5 3.3-1.3-1.1-4.9 0-4.2-3.6.4-2 1.1-4.8 3.5-4.4 1.9.4 4.8 1.6 4.2 4.7zm1.7-14.1c0-.7.6-1.3 1.3-1.3.2 0 .5.1.6.2 1 .5 2.4.9 2.6 2.3-.4.9-1.1 1.4-1.8.9-.9-.6-2.7-.5-2.7-2.1zm3.6 8.8c1.2-1.8 2.7-1.1 4.2-.3 8.2 4.5 15.7 10.3 24.1 14.6 1.6.8 3 1.6 4.6 2.4l-.1.8c-4.4-1.5-8.9-2.6-13-4.6-6.1-2.8-12-6.2-18-9.3-1.5-.8-3.2-1.5-1.8-3.6zm1.5-15.8c1-1.1 1.9-2.4 3.6-2.1 1.2.3 2.4.7 3.6 1.2-1 1-2.1 1.9-3.2 2.8-1.2.7-2.7.7-3.9-.1-.8-.4-.7-1.2-.1-1.8zm2.8 11.8c-.6-.4-1.6-.6-1.3-1.6.3-1 1.4-1 2.2-.9 1.5.1 2.7 1.2 4 1.8 8.9 4.4 17.8 8.7 26.7 13 1.4.7 3.1.9 4.6 1.5.7.2 1.3.8 1.3 1.6-.3 3.1-4.4 5.3-7.3 3.8-10.6-5.2-20.5-12.1-30.2-19.2zm34 28.8c1-4.4 3.6-5.1 7.5-5.2 17.6-.7 35.2-1.2 52.7-4.2 2-.5 4 .1 5.4 1.5 1.7 1.5 3.5 2.8 5.3 4-8.1 2-15.7 2.7-23.4 3.3l-44.8 4.1c-3.8.4-3.6.4-2.7-3.5zm-6.2-20.6.3-1.1 12.2 3.6-.3 1.1c-4.7 1.2-8.1-2.6-12.2-3.6zm4.7-2.2c-8.7-3.6-17.4-7.3-26-11.2-1.1-.5-3.9-.8-3.1-2.8.7-2.1 3-2.9 5.6-2.7 2.2 1.1 4.8 2.3 7.3 3.5 8.3 3.9 16.6 7.9 24.9 11.8.8.4 2.3.3 2 1.7-.2 1.2-1.3 2-2.5 1.9-.1 0-.2 0-.3-.1-2.7-.4-5.4-1.1-7.9-2.1zm.4-8c-6.2-3.3-12.5-6.5-19-9.2-.6-.2-1.5-.4-1.6-.8-1.3-3.3-4-3.8-7.2-3.8 3.3-1.9 7.4-1.8 10.6.2 9.1 5.3 18 10.9 27.7 15 .7.3 1.3.7 1.9 1.2.5.5 1.4.9 1 1.8-.4.8-1.3 1.1-2.1.7 0 0-.1 0-.1-.1-3.8-1.7-7.6-3.1-11.2-5zm-11.8-13.6c.3-.7 1.1-1.1 1.8-.9 1.9.3 3.7.7 6.3 1.2-2.7 1.2-4.5 2.4-6.8 1.1-.6-.4-1.6-.4-1.3-1.4zm6.6 4.5c3.3-1 5.6.9 8.1 1.9 4 1.5 7.9 3.3 11.9 5.1.8.3 2.3.3 1.5 1.8-.5 1.1-1.8 1.6-2.9 1.2-6.2-3.4-12.4-6.7-18.6-10zm15.2-4.9c-2-1.8-1.5-3.4 0-4.6 2.2-1.7 3.4-3.9 4.9-6 4.9-6.6 11.4-11.7 17.2-17.3 4.7-4.6 10.5-7.4 15.9-11 2.9-2 6.3-1 9.3-.7 17 1.6 34 3.5 50.5 7.7 15.3 3.8 30.6 7.2 45.3 13.1 17.3 7.1 33.5 17 47.7 29.1 2.5 2.1 4.5 4.6 6.8 6.9.5.4.8 1 .8 1.7-.2 1.7-1.2 2.1-2 2.8-4.4 3.4-8.6 1.9-13.3.6-16.4-4.4-33-7.6-50-8.2-11.3-.4-22.6.1-34-.1-3.2.1-6.4.4-9.6 1-14.6 2-29.5 2.6-43.8 6.5-3.1.9-6.5.3-9.2-1.6-8.2-5.3-17.6-8-26-12.9-3.6-2.3-7.3-4.2-10.5-7zm165.6 83.8c-1.4.1-3.3-.9-3.7 1.4s1.6 2.3 3.1 2.3c-3.5 5.8-7.2 11.1-7.2 17.9.1 1.1-.2 2.2-.6 3.3-5.9 11.1-10.4 23-18.5 32.7-12.8 15.2-27.9 27.5-46.9 34.5-9.2 3.4-18.5 6.7-28.2 8.2-7.9 1.3-15.9.9-23.8 1.3-.5 0-1.2.2-1.9-1.4 14.7 1.1 28-2.8 40.5-9.4-40.5 14.2-53.6 6.4-69.6 5.5 0-1.1 1.3-.4 1.6-1.2l-3.5-2c.6 3.5-1.1 2.8-3 2-9.1-3.8-17.7-8.5-25.9-14-12.1-8-22.2-18-32-28.7-10.8-11.8-16-26.1-20.3-41-3.4-11.8-4.8-24.2-4.1-36.5.6-11.2 4.3-21.8 9.5-31.8 4.5-8.9 9.8-17.4 15.9-25.3 1.3-1.5 2.9-2.8 4.7-3.6.8-.5 1.8-.2 2.3.6.8.9.1 1.6-.6 2.2-8.1 6.4-12.3 15.5-17 24.3-7.6 14.3-9.7 41.1-4.1 54 1.6-.4.7-1.6.6-2.4-1.5-12.9-1.9-25.8 2.3-38.4.6-1.5.9-3.1 1.6-4.6 1.6-3.7 4-4.3 7.3-1.9 1.5 1 .8 2.3.5 3.4-1.9 6.3-1.4 12.8-1.7 19.2-.1 1.3.6 2.6 1 4.1 1.4-1.3 1.2-2.7 1.2-4 0-5.4.4-10.7 1.3-16 .6-4.4 1.5-4.8 5.5-3.4 7 2.5 13.9 5.3 20.7 8.4 2 .9 4 1.9 6.6 1.2-2.5-1.3-4.9-2.7-7.5-3.8-6.9-3.2-13.8-6.2-20.8-9.2-1.8-.8-2.8-1.8-2-3.7.8-1.9 2.2-2.7 4.2-1.4 6.6 4.2 14.2 6.3 21.2 9.8 3.5 1.8 7.5 2.6 11.3 3.9 1.9.6 2.5 1.2 1.6 3.7-2.8 8-3.7 16.5-2.6 24.8.5 4 1.4 7.8 1.9 11.8 1 7.6 5.4 13.6 9.8 19.4 7 9.4 15.3 17.8 24.5 25 14 10.8 30.3 12.8 47.5 8.3 5.8-1.5 11.1-3.5 15.4-7.8 1.3-1.3 2.6-2.6 2-4.7-.4-1.5 1-1.4 1.7-1.8 4.6-3.1 10.2-4.7 13.4-9.7.2-.3.7-.5.7-.8.6-6.9 4.3-2.8 7-2 5.2 1.5 9.9 4.4 15.6 4.8 14.1 1.1 24.6-10.3 25.2-22.3l.3-4.8c.1-1.8-.3-3.4-2.4-3.5-2.3-.1-2.1 2-2.3 3.5-.1.7 0 1.5.1 2.2.5 2.4.2 4.4-2 5.9-1.5 1-1.6 2.8-2.2 4.2-3.2 8.3-6.8 11.1-15.7 10.2-8.2-.9-15.9-4.2-22.3-9.3-5.2-4-4.9-10-4.1-15.7.4-2.7 1.6-5.2 2.5-7.8.2-.9.8-1.6 1.7-1.9 6.5-2 12.5-5.5 19.3-6.5.5-.1 1.1-.3 1.5-.1 2 1.3 4.1.7 4.4-1.3.3-2.1-2.6-1.9-3.8-1.9-8.1-.1-16.1.3-23 5.4-.9.7-1.7 3-2.5-.1-.2-.7-1.1-.1-1.5.3-3.2 3.4-5.9 7.1-7 11.8-1.2 5.3-2.6 10.5-1.2 16 .4 1.3-.2 2-1.4 1.8-1.6-.2-4.6.3-4.5-1.2.4-5.6-.5-11.1-.3-16.7.1-3.8 1.8-6.7 3.9-9.6.5-.7 1.2-1.6.3-2.3-.9-.7-1.5.4-2.2.7-4.4 2-5.5 5.7-5.7 10.1-.3 5.9-.9 11.8.7 17.9-1.3.5-2.8.2-4.2-.1-5.6-1.1-11.2-2.2-16.8-3.6-1.9-.5-4.5-.5-2.7-4.5 2.1-4.7 2.3-10.1 5-14.7 1.3-2.2 1.1-3.9-2.4-3.8-7.5.1-14.9.2-22.2 1.8-1.3.3-2.7.6-3.1 2.6 7.7-.8 15.2-2.4 22.8-1-1.1 4.4-3.2 8.3-3.2 12.7 0 1.7.3 3.3-1.5 4.7-1.3 1-.4 2 .7 3 4.3 4.1 10 4.1 15.1 5.6 9.5 2.8 19.5 2.6 29.1 4.5.9.2 2.1-.3 2.5 1 .3 1.1-.2 2.3-1.1 3-2 1.8-4.5 2.7-7.1 2.8-10.1.6-20.1 1.5-30.1 2.3-.4 0-.8.3-.9.7 9.7 1.9 19.2.3 29.8.1-2.6 2.1-4.3 3.4-6 4.8-1.9 1.5-3.7 3.2-5.1 5.2-2.4 3.3-6.6 3.8-10.3 4.8-12.6 3.6-25 3.5-37.1-2-1.7-.7-3.2-1.8-4.5-3.3l.1.1c-6.5-3.2-11.5-8.3-15.6-13.9-4.4-5.9-9.7-10.8-14.2-16.5-4.8-6.2-6.7-13.8-7.8-21.4-.9-5.7-.9-11.4-.1-17.1.4-2.6 1.2-3.8 4.2-4 19.3-1 38.5-1.7 57.7-4 3.3-.4 6.7-.9 9.9-1.6 6-1.3 10.2 1.5 14.1 5.4l-.1-.1c2.3.9 4.6 1.9 6.9 2.7 1 .4 2.2.7 3.2-.2.7-.7.5-1.6.3-2.5-.4-1.5-1.6-.8-2.6-1-3.7-.5-6.9-2.7-9.3-5-3.8-3.6-8.9-5.1-12.7-8.5-1.8-1.6-3.1-4.2-6.1-3.2-2.3.8-4.6.6-6.9.8-10.1 1-20.2 2.3-30.4 3.3-7.2.7-14.3 1.1-21.6 1.7 2-7.8 8.7-12.9 16.7-12 4.5.5 8.2-2.5 12.6-2 .9.1 1.2-.7 1-1.6-.3-1.5-1.3-1.8-2.5-1.6-3.2.6-6.4 1.2-9.5 1.9-2.4.6-4.9.3-7.2-.7 4.3-3.4 9.4-4.3 13.7-4.8 5.2-.5 9.4 4.1 14.2 6.3l-.1 1.2-31.9 4.2.1 1.3c4.3-.1 8.6-.1 12.9-.4 6.9-.5 13.9-1.4 20.8-1.9 4.1-.3 7.4-2.9 11.5-3.6 24.2-4.2 48.4-6.9 73-6.8 19.2.1 37.9 2.7 56.5 6.9 1.5.4 2.8.9 4.5 1.4-.7.9-1.9 1.3-3 1.1-15.8.2-31.6.4-47.3.7-3.7 0-7.5.1-11.2.2-.5 0-1.1.2-1.5 0-3.6-1.7-7-1.2-10.4.6-.6.3-1.2.3-1.8 0-5.4-3.6-9.6 1.8-14.5 1.8-.8 0-1.2.7-1.5 1.3 2.1.3 4.1-.3 6.3 1.9 4.4 4 9.5 7.3 15 9.5 1 .4 2.1.3 3-.2l-10-7.1c-.9-.5-1.7-1.1-2.4-1.7-.7-.7-2.7-.9-1.7-2.3 1-1.1 2.6-1.3 3.7-.3 3.3 2.2 6.6 4.5 9.9 6.6 2.6 1.6 5.1 3.4 8.6 3l-13.5-9.4c3-1 5.3-1.2 7.8.1 6.6 3.3 12.3 7.9 18.7 11.4.8.4 1.6 1.3 3.2.4-5.1-4.3-11.2-7.1-16-11.8 2.4-1.3 4.1-.5 6.1.8 14.7 8.8 27.2 20.7 41.8 29.7 1.1.7 2.2 1.7 4.3 1.1-14.3-10.3-27.2-21.9-41.6-31.2 1.8-1.5 5.4-2.1 7-.5 5.9 6 13.6 9.5 20.3 14.3 10 7.2 19.5 14.9 29.1 22.5 4.1 3.2 4.2 3.3.2 7-1.7 1.6-3.5 3.1-4.7 5.2-.9 1.6-2.6 1.8-4.2 2-5.1.4-10.6.9-16 1.4zm-68.8 14c-3.5-.3-4.1-1.8-3.5-10l3.5 10zm76.4 7.1c-1.3-.6-.2-1.5.2-2.1 2.4-4 3.8-8.7 8-11.6-2.1 4.2-4.1 8.3-6.2 12.5-.4.9-1.2 1.6-2 1.2zm7.3-1.1c-.4 1-1.5 1.6-2.6 1.2-.1 0-.2-.1-.2-.1-1-.7.1-1.6.5-2.2 3.5-6 5.9-12.6 10.3-18.1.6-.9 1.5-1.5 2.5-1.7-2.9 7.5-7.2 14-10.5 20.9zm2.3.9c3.2-5.9 6.1-11.6 9.3-17.2 1.2-2.2 2.2-4.4 3.1-6.7.6-1.6 1.4-3.2 2.3-4.7.5-1 1.8-1.5 2.8-1 1.5.7.9 1.6.3 2.7-2.9 5.7-5.8 11.5-8.7 17.3-1 2-2.4 3.9-3 6-.9 3.3-3.1 3.7-6.1 3.6zm83.5-25.3c-6.7 1-11.9 5.6-18.2 7.4-4.8 1.4-12.5.9-13.9-5.4 9.5 2.2 18.5 1 27.2-2.2 1.5-.4 2.7-1.3 3.5-2.6.4-.8.9-1.7 1.9-1.6.5.1.8.5.7.9 0 .1 0 .1-.1.2-.5 1.1.5 3.1-1.1 3.3zm-7.1-4c-7 3-14.7 3.8-22.2 2.3-2.1-.4-3.9-1.8-4.8-3.7-2.6-4.9-2.8-10.2-2.9-15.6 0-1.2.8-2.9-1-3.6-1.1-.5-1.4-3-3.1-1.8-2 1.4.6 2.1.8 3.2.4 2 .5 4.1.4 6.2-.3 3.8 0 7.7 1 11.5-1.9-2.6-4-5-6.4-7.2-2.7-2.5-5.9-4.5-10.1-3.8-2.4.3-4.8-.5-6.4-2.2-7.3-6.5-14.6-13-23.3-17.6-.7-.2-1.2-.9-1.2-1.7 5.8-.1 11.3 1.3 16.8 2.3 6.5 1.2 13 1.9 19.4 3.7 13.6 3.7 27.7 5.5 40.7 11.4 1.3.6 2.6 1.4 3.8 2.2 5.7 4.1 5.1 11.5-1.5 14.4zm-54.8-6.6c-.9 2-.6 4-3 4.5-.7.1-1.4-.5-1.3-1 .6-1.9 1.9-3 4.3-3.5zm90.4 15.1c-9.6.4-18.7 3.6-28 5.7-22.1 4.9-44 10.4-66.6 12.9-2.5.3-4.8 1-7.3 1.3-2 .3-2.5-.4-1.4-2.3 4.1-6.8 7.5-14.1 11.5-20.9 1.9-3.3 2.8-6.8 4.6-10 1.6-2.9 6.2-3.5 8.2-1l-.1-.1c1.2.4 2.3 1 3.3 1.7 2.1 1.7 3.5 3.2 1.6 6.5-3.2 5.6-5.6 11.6-8.3 17.5-.4 1.1-.8 2.3-1.1 3.5 2.5-.5 3.3-2 4.1-3.6 2.4-5.1 4.8-10.1 7.2-15.1.9-1.9 1.9-2.5 3.6-.9 1.5 1.4 4.7.8 3.9 4.8-.5 2.7 5.9 6.6 8.9 7.3 8.1 1.8 14.8-1.1 21.3-5.3 3.9-2.5 8.4-1.8 12.7-1.4 1.3.1 2.7.6 4-.6-.5-.4-.8-1-1.2-1-5.1-.5-5.7-3.8-5.3-8 1.2-12.3-7.3-18.3-16.4-21.3-23.9-7.9-48.5-12.8-73.4-16.3-5.9-.8-11.7-2.5-17.5-3.8-1-.2-2.6-1.5-2.7.8-.1 1.4-.5 2.8 2.1 3 5.9.5 10.8 3.3 15.8 6.6 8.4 5.6 16.3 11.8 24.3 17.8 1.6 1.2 2.2 2-.1 3-.9.5-1.7 1-2.5 1.7-4.6 3.4-4.9 3.4-9-.5-13-12-27.7-21.7-42.1-31.9-1.3-.7-2.3-1.6-3.1-2.8 5-.1 9.6-.3 14.3-.3 6.7 0 13.4.1 20.2.1 2.5 0 4.9.2 7.3-1.2 1-.4 2.2-.5 3.3-.3 15.6 1.4 31.1 3.8 46.7 4.2 7.3.2 14.7 1.1 21.8 1.1 5.6 0 6.5 3.1 8.9 5.7 5 5.4 9.4 11.5 13 17.9 3.8 6.5 9.1 11.9 12.1 18.8.9 1.5 1.8 3 2.8 4.5.8 1.5.2 2.1-1.4 2.2zm350.3-87.6c6.8-9 12.9-18.5 18.5-28.3 3.2-5.7 7.5-10.5 10.4-16.3 5.7-11.6 13.2-22.2 18.7-33.9.9-1.9 1.8-3.5 4.3-3.5 1.7 0 2.5-1.3 3.1-2.8 1.6-3.9 3.5-7.7 5.1-11.6.8-2 1.6-2.1 3.6-1.5 16.4 4.7 31.2 13.1 45.2 22.3 15.4 10.1 31.3 19.7 44.6 32.7 6.8 6.4 12.9 13.4 18.2 21.1.8 1.1 1.8 2.3.8 3.7-.8 1.2-2 1.3-3.3 1.1-1.7-.2-3.5.2-5 1-15.3 6.3-30.8 12.4-47.3 15.2-9 1.5-18.3 1.7-27.1 5.4 1.5.2 2.9.8 4.2.5 7.1-1.3 8.8 4 11.3 8.7 1.8 3.3 4.5 6 6.5 9.3 5.7 9.1 10.4 18.6 12.7 29.1 4.8 22.8-.9 43.4-12.9 62.8-8.1 13-20.7 17.7-35.2 19.2-7.7.8-15.4 2.1-23.1 3.1-2 .1-4-.3-5.8-1.2-1.7-.8-3.4-1.6-5.1-2.2-6.9-1.9-12-6.7-17.4-10.9-18.4-14.3-30.4-32.8-34.7-55.8-1-5.5-.7-11.2-1-16.8-.1-1.7.9-2.1 2.1-2.7 2.9-1.3 5.9-2.3 8-5.1.7-.9 2.8.5 4.5-.3 7-3.2 13.8-6.7 20.7-10.2 3.5-1.9 6.5-5.1 11-4.9 0 1.8-1.6 2.8-2.6 4.8 3.8-.7 6.2-.5 5.2 4-.3 1.2 2.2.5 3 2 4.3 8.2 9 16.2 12.3 25 2.8 7.5 5.2 15.2 9.6 23.2.1-3.4 1.5-3.3 3-2.2 6.8 5.2 14.3 3.6 21.8 2.1 5.3-1 7.6-5.2 10.3-9 .6-.7.5-1.8-.2-2.4-6.6-6.5-8.6-15.4-12.5-23.3-3.4-6.8-6.7-13.5-10.1-20.3-3.1-6.4-6.2-12.8-9.3-19.3-1.1-2.2-.3-3.2 2.1-3.4 3.8-.3 7.7-.6 11.5-.9 1.6-.1 3.1-.4 2.7-2.5-.4-2.4-1.9-.7-2.9-.6-16 1.1-32 2.3-48 3.5-9.3.9-18.6 1-27.9.3-3.4-.4-6.8.5-9.5 2.5 1.5-3.8 3.5-7.4 5.9-10.7zm132.1 122.7c-1.6 3.5-4.6 5.1-7.4 7.2-.7-1.3-.1-1.6.3-2 .9-.9 1.3-2.1.4-3-1.1-1.1-1.5.8-2.4 1-2.5.6-3.9 2.9-5 4.7-3.2 5.1-7.9 7.6-13.6 9s-11.4 2.6-17.1 3.7c-8 1.5-16.2.6-23.8-2.3-2.2-.8-4.7-.8-7.7-2.7 5.2-.4 10.3-.5 15.5-.3 16.2.6 30.2-4 40.8-16.6 5.2-6.2 8.5-13.5 11.3-20.8 3.9-10.5 6-21.6 6-32.8.3-10.1-1.6-20.2-5.5-29.6-1-2.3-.6-3.6 1.6-4.8 2.7-1.4 3.7.7 4.2 2.2 3.9 10.9 9.1 21.4 10.7 33.2.9 6.8 2.1 13.6 2.3 20.4.3 7.7-.3 15.6-6.5 21.8-2.4 2.4-3.4 6.1-6.8 8.5 4.2.2 4 .1 2.7 3.2zm-23-114.4c.1.6-1.1 1.1-1.8.9-1.5-.5-2.7-1.7-3.2-3.3-.4-1.2.2-1.7 1.1-1.9 3.2-.5 6.4-.9 9.7-1.4-.1 1.7-1 2-1.9 2.4-1.7.6-4.8-.5-3.9 3.3zm.5 3.4c.5-.5 1.3-.8 2-.6 1.4.2 4.5 4.5 4.1 5.8-.3.7-.8 1.2-1.4 1.5-.7.3-1.4-.1-1.8-.8-.8-1.3-1.7-2.7-2.5-4-.4-.6-1.2-1.1-.4-1.9zm5.9-4.3c1.3-2.7 8.3-6.5 10.8-6.2-2.7 2.6-5.6 5.3-8.4 7.9-.5.6-1.4.7-2 .3-.7-.4-.9-1.3-.4-2zm18.2-7.7c-.1-.2.3-.7.6-.8l11.4-3.6.4.9c-5.9 4.2-11.7 8.4-17.6 12.6-2.2 1.6-4.6 3-6.8 4.5-1.2.8-2.4 1-3.3-.2s.3-2 1.3-2.6c4.1-2.3 7.5-5.7 11.7-7.8.9-.6 3.3-.7 2.3-3zm25.3-3.3c.4 1.2-.9 1.3-1.5 1.8-9.7 7.6-19.9 14.7-30.5 21.1-2.3 1.4-3.3.3-4.5-1.3-1.4-1.9-.5-2.8 1.2-4 8.6-5.8 17.9-10.7 26.1-17.1 1.8-1.4 4-2.2 6.3-2.4 1.5.2 2.5.7 2.9 1.9zm-41.1 23c1.7.1 2.7 1.5 3.4 3-.6 1.4-1.4 2.6-2.8 2.6-2.1 0-2.3-2-2.5-3.5-.2-1 .5-1.9 1.5-2.1 0-.1.2-.1.4 0zm4.4 6.1c1.6.1 4.5 3.5 3.9 4.9-.6 1.7-2.3 3.2-3.9 2.9-2.5-.4-2.6-3-2.8-5-.1-1.6 1.3-2.6 2.8-2.8zm5.9 0c-.7-1.7-2.6-3.2.6-4.9 10.8-5.7 21-12.3 30.6-19.8 1.1-.9 2.5-1.6 3.8-.9 1.4.7 2.2 2.3 3 3.6-.1.9-.7 1.7-1.5 2.1-10.8 7.1-21.6 14.1-32.3 21.2-2.1 1.1-3.3.6-4.2-1.3zm-139.1 21c1.3-2.2 4-1.8 5.8-3.2-1.3 2.1-3.5 2.6-5.8 3.2zm51.7-14.4c-1.1-.2-1.2-1.3-.8-2.2.9-2.5 3.1-3 5.3-3.2 1.1-.2 1.4.9 1.4 1.8-.1 1.3-4 3.9-5.9 3.6zm-5.1-5.1c1.6-2.7 4-3.6 8-3.6-2.9 2.4-5.7 2.6-8 3.6zm7 8.1c.9-2.3 3.3-1.7 4.9-2.6 2 .7 3.3 2.5 3.2 4.6-.2 1.9-2.7 2.5-4.5 3-.7.3-3.9-4.1-3.6-5zm8.9 5.6c1.5.5 2.3 2 1.8 3.5-.3 1.7-1.1 3.6-3.2 3.3-1.9-.3-2.3-2.3-2.3-3.7 0-2.1 2-2.6 3.7-3.1zm2.8 7.6c1.2-.1 2.3.8 2.4 2v.7c-.3 1.8-1.8 3.1-3.6 3.2-1.9.1-1.6-1.4-1.7-2.7.1-1.8.9-3.2 2.9-3.2zm1 7.8c1.1-.7 2.3-1.9 3.6-.6 1.1 1.2 2.2 2.6 3.1 3.9-1.6.2-3.1.5-4.6.9-1 .3-2.2 1.3-2.8-.2-.5-1.3-1-2.9.7-4zm5.9 4.6c1 .1 1.8.8 2.1 1.7.4 1.2 1 2.2 1.7 3.3 1.7 2.3 2 3.9-1.3 4.8-1.4.4-2.8 3-4 1.7-1.6-1.9-2.6-4.2-2.9-6.7-.2-2.9 3.5-2.7 4.4-4.8zm7.1 16c.6-.6 1.7-2.5 3.1-.2 1.5 2.5 2.4 5.4 5.6 8.2-4.9 0-7.6-2.7-10.5-4.4-1.7-1 .7-2.7 1.8-3.6zm-2.9-16.6c-2.8-5.3-5.8-10.5-8.4-15.9-3-5.9-5.5-11.9-7.5-18.1-.8-2.7.4-5.6-3.6-7.2-2.1-.9-2-5.4-6-7.3 1.1 2.8-.3 5.1 1.8 6.9.5.5.5 1.3 0 1.9-.1.1-.3.3-.5.3-2.9 1.5-5.9 2.9-8.9 4.1 1.5-2.1 4.3-2.2 5.8-4.2.5-.6 1.8-1 1.2-2-.7-1.3-1.8-.4-2.6 0-6.6 3.3-12.9 6.9-19 11-2.4 1.6-4.9 3.2-7.4 4.8l-.7-.9c3.4-2.6 6.8-5.4 10.3-7.9 3.8-2.6 6.9-6.1 10.6-8.8.7-.4 1.1-1.1 1.2-1.8.1-3.4 2.2-4.5 5.2-4.6 6.8-.3 13.5-.6 20.3-.9 3.3-.2 4.8 1.2 6.1 4.5 2.7 6.7 6.3 13.1 9.8 19.5 5.9 10.9 10.7 22.4 16.1 33.5.9 2.1 2 4.2 3.2 6.2 1.2 1.5 1.1 3.8-.4 5.1-3 3-6.6 5.2-11.3 4.9-1 0-1.9-.5-2.4-1.4-4.6-7-8.9-14.3-12.9-21.7zm-73.9-37.3c6.8-1.6 13.2-5 19.8-7.6.8-.3 1.9-.6 1.4-1.8-.4-1-1.4-.9-2.3-.5l-13.9 5.4c-3 1.2-5.9 2.9-9.6 3.1 1.8-5 5.9-6.5 10-7.9 7.6-2.6 15.4-2.3 23.3-2 3.2.1 6.3-1.5 10.3.1-18.1 9.5-36.8 16.3-54 26.1 3.7-6.4 6.5-13 15-14.9zm63.5 168c8.8 0 17.6-.5 26.4-1.6-8.6 3.2-17.5 2.7-26.4 1.6zm136.6-105.8c-1.7 10.2-4.8 20-10.1 28.7-5.4 9-11.8 17.4-20.1 24.1-6.4 5.1-11.7 11.4-16.8 17.8-5.8 7.4-13.5 12.2-21.8 15.7-11.9 5-24.3 8.8-37.4 9.5-18.5 1-36.9.9-54.5-5.6-8.9-3.5-17.4-7.9-25.3-13.3-14.8-9.6-26.8-22.8-34.9-38.5-8.6-16.5-15.5-33.6-17.3-52.4-.3-2.7 2-3.9 3.2-5.6 4.5-6.8 9.7-13.2 14-20.2 2.5-4.1 6.3-5.9 10.2-7.7 9.2-4.1 18.4-8.1 27.4-12.5 4.7-2.3 9.6-4.2 14.6-5.9-13.5 13.1-30.7 20.9-45.5 33.3 2.5 0 4.2 0 5.7-1 2.4-1.6 2.9-.5 2.9 1.9-.7 13.2 2.2 26.4 8.4 38.1 8 15.3 19.6 28.5 33.8 38.4 13.9 9.7 29.8 13.2 45.8 16.9 6.8 1.6 13.4.1 20-1.4 10.5-2.5 20.9-5.4 30.2-11.2 4-2.5 7.9-5.3 10.5-9.3.9-1.5 2.5-3 .5-4.9-.5-.5-.4-1.5.3-1.6 5.3-.9 5.3-6 6.7-9.4 2.1-5.2 4-10.9 4.4-16.4.5-5.7.9-11.6.2-17.5-1-8.8-5-16.5-7.8-24.6-1.8-5.2-3.1-10.7-5.6-15.7-2.6-5.1-2.5-5 2.5-8.1 9.7-6 19.9-11.2 29.2-18 3.6-2.7 6.9-1.4 7.9 2.9.4 1.8-1.2 2-2.1 2.6-9.8 6.9-19.3 14-28.5 21.6-.2.1-.2.4-.3.7 4.8-1.7 8.5-4.9 12.5-7.7 5.8-4.1 11.5-8.3 17.3-12.4 2.5-1.8 4-.1 5.5 1.8 6.6 8 10.3 17.5 13.4 27.2 3.9 13.2 3.1 26.4.9 39.7z"/><path d="M722.7 433.4c.1-.9.5-1.5 1.4-1.2 5.1 1.3 10.4.8 15.6 1.7-5.8 1.5-11.5-.3-17.2-.6l.2.1zM919.2-14.7c6 1.5 11.9 4.1 18 6.1 20.7 6.6 40.7 15.2 61.4 21.8 5.6 1.8 10.9 4.2 16.4 6.1 1.4.5 1.8 1.3 1.6 2.4-.3 1.8-1.8 1-2.7.7-9.2-3.6-18.4-7.3-27.8-10.4-12.1-4-24-8.6-36-12.9-10.5-3.7-21.1-7.3-31.6-11-1-.4-3-.3-2.6-2 .3-1.4 1.9-.7 3.3-.8zM1040.2-74.6c-.8-5.6-2-11.1.8-16.5.7-1.4-.5-3.1-1-4.6-.2-.5-.8-.7-1.3-.5-1.2.3-1.4 1.4-1.5 2.3-.3 4.8-.7 9.6-.9 14.5.1 1.2-.2 2.5-1 3.4-1.6-4.6-.4-8.8-.4-12.9 0-2 .7-4.1.2-5.9-1-3.3 3.2-4.4 2.6-7.5-.1-.6 1.2-.2 2 .8 3.2 3.7 4.3 8.4 5.7 12.7 4 11.5 8.4 22.8 11.7 34.5 1.2 4.1 3.2 7.9 3.3 13.2-3-3.1-3.1-6.6-4.2-9.5-1.6-3.9-2.6-2.9-4.9.7.2-2.8.2-4.6.6-6.1 1.3-4.7-1-8.8-2.3-13-.1-.6-.6-1.1-1.3-1.2-1 0-1.1.8-1.3 1.5-1 2.7-1.1 5.6-1.5 8.4-.1.8.3 2.4-1.2 2.2-1.2-.2-.5-1.4-.4-2.2.7-5.3.9-10.6 2-15.9.8-4-1.9-6.8-2.6-10.2 0-.4-.4-.7-.8-.6-.1 0-.2.1-.3.1-.8.5-1.2 1.3-1.3 2.2-.1 3.4-.4 6.7-.7 10.1zM1019.7-104.3c0-5.8 1.3-11.4 2.4-17.1.4-2.2 1.6-3.9-.4-6.4-1.5-1.8-.1-5.3 1.3-7.4 2-2.9 2-5.7 1.5-8.8l-.3-1.5c-.2-1.4 1.2-3.3-.3-4.2-1.8-1.1-1.5 2.3-3.3 2.2.3-5 4.3-9.5 2.2-15.2-3.4 2.6-1 6.9-4.1 9.9.4-4.1 1.2-8.2 2.4-12.1.3-1 1.3-1.6 2.4-1.4 1.2.1 1.7 1 1.8 2.1.3 3 .6 5.9.9 8.9 1.5 15.9-.6 31.4-4.6 46.7-.4 1.4-.6 2.9-.8 4.3h-1.1zM922.1 72.4c3.8-4.5 8.8-7.1 13.5-10.1 10.3-6.5 20.4-13.3 30.1-20.6l1.2-.9c.8-.4 1.6-1.6 2.5-.4.7 1-.4 1.6-1 2.1-3.4 2.9-6.6 6.1-10.4 8.5-11.1 7-22.5 13.7-33.8 20.5-.6.4-1.3.7-2.1.9zM975.3 74.1c3-3.5 6.8-5.8 10.6-7.8 7.2-3.9 14.1-8.3 20.8-13 .9-.7 2.2-2.1 3.2-.9 1.2 1.4-.6 2.5-1.5 3.2-7.3 5.6-15.5 9.7-23.6 13.9-3.3 1.5-6.4 3-9.5 4.6zM1052.3 47c2.1 9.2 5 18.2 8.9 26.8.9 2 1.7 3.5-.2 5.5-1.2 1.3-1.5 3.3-2.4 5-.6 1.2-1.3 2.5-2.9 2.6-.5.1-.9 0-1.3-.3-.5-.4-.2-1 .2-1.3 2.4-2 1.8-5.8 4.6-7.7 1-.7 1-2.3.5-3.5-2.9-6.7-5.4-13.6-7.3-20.6-.7-2.1-.7-4.4-.1-6.5zM957.5 103.6c4.5-2.7 9-5.4 13.6-8 1.3-.8 2.6-1.4 3.9-2.1.8-.5 1.5-1.6 2.5-.4s-.3 2.1-1.1 2.6c-5.7 3.6-11.8 6.6-18.2 8.8l-.7-.9zM1008.8 124.3c2.5-1.4 5-2.9 7.6-4.2 2.8-1.5 5.8-2.9 8.6-4.3.8-.4 1.7-.9 2.3.1.6 1 0 1.6-.7 2.3-2.8 2.6-6.6 3.4-10 4.7-2.4.9-4.6 2.5-7.3 2.5l-.5-1.1zM971.9 109.3c2.3-3.4 6.1-4.8 9.4-6.7 1.6-.9 3.5-1.3 4.8-2.7.9-.9 2.3-1.7 3.2-.4 1 1.5-.6 2-1.6 2.7-4.8 3.2-10.3 5.1-15.8 7.1zM998.5 120.2c3.8-3.9 8.7-6.1 13.4-8.5.6-.4 1.4-.3 1.8.3 0 .1.1.1.1.2.7 1.2-.1 1.9-.9 2.4-4.5 2.8-9.6 3.7-14.4 5.6zM979.6 112.6c1.6-2.2 4.1-3.1 6.3-4.3 2.4-1.3 4.9-2.2 7.1-4 .5-.6 1.4-.6 2-.1.1.1.2.2.2.3.6.9.3 1.5-.5 2.2-4.3 3.8-9.8 4.6-15.1 5.9zM1031.3 59.6c-4 2.9-8.3 5.5-12.8 7.6-.6.3-1.2.5-1.7 0s-.1-1.2.3-1.5c3.5-2.8 7.2-5.2 11.1-7.4.9-.5 2.1.1 3.1 1.3zM990.2 114.9c3-4.3 7.9-5.6 12-8.1.8-.5 1.7 0 2.2.8.8 1.3-.4 1.5-1 1.9-4.1 2.3-8.6 4.1-13.2 5.4zM1068 60c-2.2-3.1-4-6.2-4.6-9.9-.1-.8-.3-1.9.9-2 1.2-.1.8 1 1 1.8.8 3.4 1.8 6.8 2.7 10.1zM1060.8 63.9c-1.8-4-3.8-8-4.8-12.4-.2-1.1-.6-2.2.3-3.2.3-.1.7-.1 1 .1 1.1.9.1 1.8.1 2.7 0 2.7 1.2 5.1 2.2 7.4.9 1.7 1.3 3.6 1.2 5.4zM1073.3 56.8c-3.7-2.3-4.1-5.4-4.7-8.5 0-.5.3-.9.7-1.1.8-.3 1.1.3 1.2 1 .2 2.8 1.6 5.2 2.8 8.6zM1319.2 48.9c1 2 1.3 4.3.8 6.5-.5 1.8-.6 3.9 1.4 4.3 2.4.4 1.9-2.1 2.2-3.5.3-1.8-.2-4.1 2.7-4.8 0 2.9-1.1 5.3-1.6 7.8-.6 2.5-1.2 4.9.8 7 .9.9 1.8 1.4 3 .9s1.2-1.5.9-2.5-.2-2 .4-2.8c.3-.5 1-.7 1.5-.5.8.3.5.8.4 1.5-.5 2.8-1.8 5.4-.9 8.3.4 1.4 1 2.8 2.4 3 1.8.3 1.7-1.2 2-2.5.1-.8.8-1.4 1.6-1.3.1 0 .2 0 .3.1.8.3 1.1 1.2.8 2 0 .1-.1.2-.1.2-1 1.6-1.5 3.5-1.3 5.3.1 1.6.8 3 2.4 3.4 2 .5 2.2-.8 2.1-2.4.1-.7.7-1.1 1.4-1 .7.1 1.1.7 1 1.4 0 .1-.1.3-.1.4-2.5 6 1.3 9.9 4.5 14.3 5.6 7.7 9.8 16.3 13.8 25 4.2 8.8 7.6 18 10.2 27.4 1.3 4.5 2.4 9.1 3.2 13.8-1.8-2-2.2-4.6-3-7-5.8-18.3-13.7-35.9-23.4-52.5-2-3.4-4.9-6.4-7.2-9.6-2.3-3.2-4.6-6.5-6.9-9.8-4.5-6.4-10.4-11.5-15.1-17.7-4.3-5.4-8.3-11.1-11.9-16.9-2.3-3.8-4.9-7.2-5.3-11.8-.2-2.3.1-4.8-.7-7.1-.4-1.3.5-2.6 2-3.1 1.7-.5 3.7-1.2 5 .1 1.5 1.5 3.3 3.1 2.7 6-.5 3.7-.7 7.4-.6 11.1 0 2.6-1.1 6 3.5 6.3 1.3.1.4 1.5.7 2.2.6 1.5.1 4 2.4 4 2.2 0 1.1-2.4 1.7-3.6.1-.7.2-1.3.3-1.9zm-9.7-13.8c.2-2.3.4-3.6.4-4.9 0-.8-.1-1.9-1.2-2-.9 0-1 1-1.1 1.6-.3 1.5-.4 2.9-.4 4.4.2 1.8-1.5 5 .8 5.1 2.7.2 1.2-3.3 1.5-4.2zm-3.5-8.3c0 2-3.2 3.2-.9 6 .5-2.2 1.8-3.9.9-6zM866.8 102.9c2.7-1.5 5.9-1.6 8.7-.4 9.6 3.9 20 4.4 29.9 7.5 6.6 2.1 13.4 3.8 20 5.7.8.3 1.5.8 2.2 1.4 1 .9 2.4 2.3 1.6 3.3-1.1 1.5-2.6.5-3.8-.6-1.2-1.1-2.9-1.4-4.4-1.9-13-4.2-26.3-7.1-39.6-10-4.8-1.1-9.3-3.2-14.6-5zM1106 164.9c-1.9 2.2-4.1 2.4-5.7 3.4-8.1 5.3-15.9 10.9-22.8 17.7-.8.9-2.1 1.3-3.3.9-.8-.2-1.5-.5-1.6-1.3-.1-1.4 1.2-1.8 2.1-2.4 7.2-4.8 13.9-10.4 21.3-14.9 3-1.8 6.1-2.5 10-3.4zM1242.7 407.4c6.5-8 13.8-15.5 21.5-22.3 1-.9 2.4-2 3.6-.5 1.4 1.7-.7 2.3-1.5 3-6.8 6.3-13.7 12.5-20.6 18.7-.8.8-1.4 2-3 1.1zM1058.4 153.9c6.5-5.5 14.5-8.6 21.5-13.2 2.7-1.8 5.5-3.3 8.3-5 1.8-1.1 3.6-1.6 5.7-.1-11.4 6.9-23.2 13-35.5 18.3zM1034.4 394.9c-.6.8-1.3 1.6-2 2.3-6 4.6-12.1 9.1-18.1 13.7-.6.5-1.3 1.5-2.2.6s0-1.8.6-2.3c6-5.2 12-10.3 18.2-15.3 1.1-1 2.5-.5 3.5 1zM1095.4 405.2c6.3-5.2 12.8-10 19.6-14.5.7-.4 1.4-.5 2.2-.3 1.1.2 2.1 1 .7 2-6.7 4.9-13.7 9.4-21 13.4-.3.1-.7-.3-1.5-.6zM1082.4 152.8c-5.6 2-9.5 6-14 8.9-1.6 1-3.2 2-4.8 2.8-.9.5-2.1.1-2.5-.8v-.1c-.4-.6-.2-1.5.4-1.9 0 0 .1 0 .1-.1 6-3.4 11.9-7.2 18.3-9.8.5-.1 1.5-.1 2.5 1zM1087 164.5c.1.8-.4 1.5-1.1 1.6h-.1c-5 1.3-8.4 5-12.4 7.8-1.6 1.1-4 3.4-5.4 1.5-1.3-1.7 2-2.4 3.3-3.5 4.2-3.5 8.5-6.7 14.1-7.7.5 0 1-.3 1.6.3zM1220.5 396.3c-2.9 5.2-8.7 6.8-11.9 11.9-.3-5.2 6.4-11.7 11.9-11.9zM1233.4 408.1c-1.3-2.5.3-3.3 1-4.5 2-3.2 5.1-5.3 8.1-7.4.6-.4 1.2-1.1 1.9-.3.6.7.6 1.7 0 2.4-.1.2-.3.4-.5.5-3.8 2.5-7.7 4.9-10.5 9.3zM1161.1 392.7c1 .3 1.7.5 2 1.3s-.4 1.1-.9 1.5c-2.8 2.2-5.7 4.3-8.6 6.4-.5.4-1.1.7-1.6.1-.4-.4-.4-1 0-1.3 2.7-2.5 5.3-5.1 8-7.5.2-.5.8-.5 1.1-.5zM1219.8 408c-1.2-.2-1.2-.8-.7-1.6 2.1-2.7 4.6-5.1 7.4-7.1.8-.6 1.9-.4 2.5.3 0 .1.1.1.1.2.7 1 .1 1.7-.6 2.2l-7.5 5.4c-.4.3-.8.5-1.2.6zM1133.8 403.7c2.3-3.3 5.8-5.4 8.8-7.9.9-.8 1.9.2 2.6.9 1.1 1-.2 1.6-.7 1.9-3.3 2.1-6.6 4.1-9.9 6.1l-.8-1zM1207.4 398.7c-.7 1.8-2.3 3.2-4.1 3.7-1.6.5-3.3 3.4-4.7 1.3-1.1-1.6 2-2.2 2.9-3.5s2.3-2.3 3.8-2.7c1.3-.4 1.7.3 2.1 1.2zM1178 395.9c-.3 1.7-6.2 6.7-7.5 6.6s-1.2-1.1-.7-1.8c1.7-2.3 3.7-4.3 6.1-5.9 1.2-.7 2.1-.2 2.1 1.1zM1187.8 396.5c.6 0 1.2.4 1.4 1 .4.7 0 1.2-.5 1.6-1.7 1.4-3.5 2.8-5.3 4.1-.5.4-1.1.7-1.7.1-.3-.4-.5-.8-.5-1.3.1-1.1 5.4-5.6 6.6-5.5z"/><path d="M1315.4 34.9c-.2 3.3 1.6 6.6-.4 9.8-.4-3.2-.7-6.5.4-9.8zM845 210.1l-19.3-17.6c-1-.9-1.6-2.2-1.7-3.6 0-.6.4-1.2 1-1.4.5-.2.8.2 1.2.6 6 6.8 13.4 12.1 19.6 18.6 5.2 5.4 11.6 7.7 18.2 10 .5.2 1 .2 1.5.3l.9-.3c-4.5-4.6-9.6-8.3-14.3-12.4-4.9-4.4-9.9-8.7-14.8-13.1-1.1-1-2.5-2.4-1.1-3.8s2.5.2 3.6 1.3c7.6 7.9 16.2 14.7 24.2 22 6.4 5.9 13 11.4 21 15.2 3 1.4 6.4 1.9 9.8 4.6-.8-3.1-2.9-4-4.3-5.2-7.8-6.5-15.6-13-23.1-19.9-2.6-2.3-5-4.8-7.3-7.4-.9-1.1-1.7-2.6-.7-3.5s1.6.8 2.5 1.5c8.9 8 17.9 15.8 26.7 23.8 6.3 5.7 12.5 11.6 18.7 17.4 2.7 2.5 6.1 3.9 9.1 5.8 2.4 1.5 4.6-.5 6.3-2 .9-.8-.8-1.8-1.5-2.5-5.1-4.9-10.3-9.7-15.5-14.5-8.7-8.1-17.5-16.1-26.9-23.4-2.1-1.8-4-3.7-5.9-5.7-.8-.8-1.8-1.7-.8-2.9 1.1-1.3 2.5-.5 3.2.4 4.3 5.4 10.3 8.8 15.1 13.7 2.1 2.2 3.8 6.5 8.3 3.5.6-.4 1.1.6 1.6 1.2 3.6 4.2 7.5 8.1 11.8 11.6 5.6 4.5 10.5 9.8 14.3 15.9.3.9 1.4 1.4 2.3 1 .1 0 .1 0 .2-.1 2.2-.8 4.4-1.7 6.5-2.8 1.9-1 .3-1.8-.4-2.5-4.6-4.2-9.3-8.2-13.8-12.5-6.9-6.5-14.7-11.8-21.8-18-1.8-1.5-1.1-2.5-.3-3.7 1.4-1.8 2 0 2.8.8 8.3 8.2 17.6 15.2 26.2 22.8 1.4-1.2-1.7-1.9.2-2.8 1.1-.7 2.5-.5 3.4.3 2.7 2.2 4.3 5.1 6 8 2.6 4.2 3.9 4.6 8.2 2.7-7.2-7.2-13.2-15.4-21-21.9l-6.6-5.4c-.6-.6-1.2-1.2-1.7-1.9-.8-1-1.1-2.1 0-3 1.3-1.1 1.9.1 2.7.9 4.8 5.2 11.2 8.7 15.4 14.7 1.4 2 3.6 4.2 6.9 3.6 1.3-.2 1.5 1.2 1.9 2 1 2.1 2.2 4.2 3.6 6.1 3.6 4.3 4.3 4.4 8.8.3-6.5-5.6-12.3-11.8-19.3-16.7-.9-.6-1.1-1.9-.5-2.8l.1-.1c.8-1.2 1.8-.4 2.8.3 6.3 4.5 11 10.6 16.4 16 2 2 3.8 2.7 6.4 1.2 3.5-1.9 7.1-3.6 10.6-5.3 1.7-.8 2.4-1.7.2-2.7-3.7-1.7-6-5.2-9.6-7-.9-.5-2-1.2-1.7-2.6.2-.6.6-1 1.2-1.3 1.7-.7 1.5 1.1 2.3 1.8 3.1 2.7 6.1 5.4 9.3 8 1.8 1.5 7.9.3 9.1-1.6.6-1-.1-1.5-.8-1.7-2.2-.8-3.5-3.2-6-3.6-.7-.1-1.4-1-2-1.6-.5-.5-.5-1.3 0-1.8l.2-.2c.7-.6 1.2-.3 1.8.3 2.6 2.1 5.5 3.8 8 6 2.9 2.6 5.4.8 7.8-.5 1.4-.7.5-1.4-.7-1.9s-3.7-1-2.8-2.6 2.8-.3 4 .7c1.2 1 3.5 1.1 4.8 2.9-9.7 6.2-19.9 10.8-29.9 16-5 2.7-10 5.4-15 8.3-.7.4-1.5.7-2.3.9-2.6.7-6.2 0-6.7 4.2-.1.6-.8.5-1.2.3-4.8-1.5-8.3.2-11.2 3.9-.5.6-1.1 1.1-1.9.8-3.3-1.2-5.9 1.3-8.9 1.8-2.1.3-.5 1.9-.7 2.8-1.9-.3-3.6-1.1-5.1-2.2-14.4-9-29.1-17.4-44.7-24.1-1.8-.8-3.9-2.3-6.2-.5-1 .7-2.1 0-3-.8-7.5-5.9-16.5-6.8-25.3-6.8-4.2 0-8.9 1.1-12.4-.6-4-2-8.7-2.1-12.8-.3-8.9 4-18.3 3.2-27.4 4.3-2.7.2-5.5.1-8.2-.1-.6 0-1.3 0-1.6-.7-.3-1 .5-1.2 1.2-1.6 2-1.3 4.3-1 6.5-1.3 8.7-1.1 17.4-2.5 26.1-3.7 4-.5 8.2.3 12.5-1.5-1.6-1.5-3-2.9-4.5-4.1-1-.6-1.5-1.7-1.2-2.8.1-.8.7-1.4 1.5-1.6 1.4-.2 1.7 1 2.3 1.9 3.1 5 6.9 6.8 12.6 5.5-3.6-2.5-7-5.3-10.2-8.3-1.3-1.3-2.8-2.5-3.4-4.3-.2-.7-1.8-1-.5-2 .7-.6 1.8-.6 2.4.1.1.1.1.2.2.3 3.6 4.4 8.1 7.9 12.3 11.7 4.2 3.8 7.5 5.2 14.2 4.5zM947.4 168.5l-5.2-.4c-.6 0-1.3-.1-1.5-.8-.2-.7.3-1.1.9-1.4 1.5-.6 2.9-1.4 4.6-1.2 18.1 2.1 35 7.9 51.3 15.9 4 2.1 7.8 4.8 11 7.9.8.8 2.4 1.7 1.1 3s-2-.2-3-.9c-5.5-3.9-11-8-17.4-10.4-13.6-5-27.1-10.5-41.8-11.7z"/><path d="M950.2 207.4c6.4 2.9 12.1 7.2 16.6 12.7-6-3.5-12.2-6.9-16.6-12.7zM783.7 448.3c0 2.7-1.4 4-3.1 4.2-7.6.7-14.5 4-21.8 5.6-4.7 1.1-9.6 1.4-14.4.8-3.3-.4-6.6-.9-10-.1-2 .5-4.1-.1-5.5-1.5-1.2-1.1-2.7-1.9-4.3-2.1-21.9-4.7-36.6-18.5-48.2-36.7-6.8-10.2-11.2-21.8-13-33.9-.2-1.2-.5-2.3.8-2.8 1.5-.6 1.5 1.1 1.8 1.8 2.8 6 3.8 12.5 6.3 18.6 4.5 10.9 11.1 20.8 19.4 29.3 5.1 5.2 11.4 9.3 17.6 13.2 7.7 4.8 16.3 6.8 25 8.9 13.4 3.3 26.4 1.3 39-3.3 3.5-1.5 7.3 1.4 10.4-2zM763.9 369.3c-4.4 3.8-10 3-15.3 4.6 3.5 1.6 7.1.1 10.5 1.2-9.7 3.8-19.9 1.3-29.8 2.9 2.1-2.8 5.3-1.9 8.1-2.9-2.5-.8-5.1.7-7.4-1.2 11.3-1.2 22.5-3.7 33.9-4.6zM770.8 360.3c.1 2.1-1.8 2.3-3.1 2.6-6.2 1.5-12.7 2.1-19.1 1.7-3-.2-6.5 1.1-9.8 1.3-8.3.4-16.6 1-25.3.3 1.3-2 3-1.5 4.2-1.5 17.5-.4 34.9-2.3 52.3-4.2h.8v-.2z"/><path d="M744.8 411.6c-.2 1.6-2 1.4-1.6 3 2.7.4 5.5-.9 8.5.3-.5 1.2-1.7 2-3.1 2.1-5.5.1-10.9 1.2-16.3 1.8-2.3.3-3.7-.1-1.6-2.8-3.1-.2-5.8.5-8.5.9-1 .1-2.2.4-2.5-.9-.3-1.2 1-1.7 1.9-1.8 7.5-1.3 15.1-2.9 23.2-2.6zM791.8 358.9c-2.9 1.7-5.2.4-7.1-.7-8.6-4.9-17-10.1-25.6-15.2-1.1-.7-2.4-1.5-1.6-2.8 1-1.7 2.3-.4 3.5.2 8.4 4.4 15.9 10.1 23.9 15.1 2.2 1.2 4.4 2.1 6.9 3.4zM707.1 411.9c2.1-2.2 4-2 5.6-2 9.3-.3 18.4-2.7 27.6-3.5 1-.1 2.5-.9 2.9.6.4 1.7-1.3 1.8-2.4 2.1-11 2.5-22.3 3.4-33.7 2.8zM786.5 342.1c.1.9.3 1.8 1.1 2.2 6.8 2.9 11 9.6 17.6 12.7.5.3 1.6.7 1.1 1.6s-1.5.5-2.3 0c-2.9-1.5-5.6-3.1-8.2-5-5.5-4-11-7.9-16.5-11.9-.8-.6-2.6-1.2-1.4-2.8s2.5-.3 3.5.5c1.6 1.2 2.9 2.7 5 2.9l.1-.2zM744 401.9c-.4 1.7-2.2 1.9-3.7 2.1-4.1.4-8.2.7-12.3.7-4.6 0-9.2-.2-13.7.5-.9.2-1.5 0-1.7-.9-.3-1.2.5-1.6 1.4-1.6 8.3-.6 16.6-1.3 24.9-1.8 1.2-.1 2.5.3 3.7-.2.7-.3 1.4-.2 1.4 1.2zM747.9 420.4c-.8.1-1.7-.1-1.6-1 .1-.9 1-1 1.7-1 9-.6 18.1-1.2 27.1-1.8.5 0 .9.1 1.3.4.4.6-.1 1.1-.5 1.6-1 .8-2.2 1.2-3.4 1.3-8.3.7-16.5.9-24.6.5zM715 399.4c-.3 0-1.7-.2-3-.5-.8-.2-2.1-.2-1.8-1.3.2-1 1.3-.9 2.2-.8 6.5.7 12.9-.3 19.3-.7 1.6-.1 3.2-.4 4.8-.5.7-.1 1.6-.1 1.8.8.2.9-.7 1.2-1.3 1.6-3.1 1.8-6.5 1.3-9.8 1.5-3.7.2-7.5-.1-12.2-.1zM767.9 388.6c1.5.3 2.4 1.2 1.5 2.6-1.7 2.5-2.4 5.5-2 8.4.1 1.5-.3 2.9-2 3.1-1.7.2-1.5-1.6-1.9-2.7-1.6-3.6-.2-6.8 1.7-9.8.4-1.1 1.6-1.7 2.7-1.6zM1343 232.9c-1.5 4.5-4.1 8.2-6.3 12.2-9.2 16.5-18.3 33-27.4 49.5-5.7 10.3-10.6 21-16.4 31.2-.6 1-1 1.7-2.1 1.6-.5 0-.9-.3-1.2-.7-.4-1.1 1-1.3 1.3-1.9 1.6-3.3 3.1-6.7 4.6-10 4.4-9.7 9.9-18.9 15.1-28.2 6.2-11 12.5-22 18.8-33 3.7-6.3 7.5-12.6 11.3-18.9.3-1 1.2-1.7 2.3-1.8zM1264.3 319.7c-1-.7-1.8-1.7-2.2-2.9-6.9-16.3-15.2-32-24.6-47-.6-1-1.7-1.8-.5-2.8s2.1.3 2.7 1.1c4.3 5.4 7.4 11.5 10.5 17.7 5.4 10.7 10.1 21.7 14 33 0 .4 0 .7-.1 1.1l.2-.2zM1325.6 243.3c-4.3 10.2-10.3 19.3-15.7 28.7-3.5 6.1-7.1 12.2-10.8 18.2-.8 1.4-2.2 4-3.4 3.3-1.8-1.1.4-3.1 1.2-4.3 9-14.7 18-29.3 27.2-43.9.4-.7 1-1.3 1.5-2zM1264.8 59.3c-.2 21.9-4.5 43.2-9.6 64.4 3.7-21.4 8.1-42.7 9.6-64.4zM1249.7 93.8c.8-11.1 1.1-22.1 1.7-33.1.1-1.1 0-2.5 1.6-2.3 1.1.1.9 1.3.7 2.1-2.1 10.7-1.5 21.6-3.8 32.3 0 .3-.1.7-.2 1zM1304.1 122.8c-.6-9 .6-17.8 1.4-26.6.3 8.9.5 17.8-1.4 26.6zM1315.3 102.3l-1.4 16.1-.9-.1c.7-5.4-1-10.9 1.2-16.2l1.1.2zM1345.1 179.6l1.3-15.6c1.6 5.4-.6 10.5-1.3 15.6zM1424.2 285.5c8.8-2.2 16.9-4.3 25.1-6.2 5.1-1 10.1-2.5 15-4.5 1-.5 2.8-.1 2.9-1.7.1-1.2-1.4-1.7-2.2-2.4-1-1-2.2-.3-3.4.2-8.7 2.8-17.7 4.6-26.8 5.2 8.7-2.8 17.2-6 26.6-7.4-2.1-3.1-4.1-4-7.6-3.6-8.2.8-16.2 2.5-24.3 3.2-.5 0-1-.3-1.4-.7 7-2.7 14.4-3.6 21.9-5.5-1.9-2.5-4.8-3.5-6.9-5.5-.5-.5-1.3 0-2.1.3-5.4 2.2-11.2 2.1-16.9 3.1 3.7-4 8.9-3.8 14.4-5.3-4-2.7-7.6-4.1-11.2-5.7-1.9-.9-4-1.5-5.8-2.5-1.3-.7-2.6-2.1-1.8-3.6s2.1-.4 3.3.1c14.4 7.1 29.5 13.1 42.5 22.8 2.7 1.9 4.7 4.6 5.7 7.8 2 5.9-1.6 4.3-4 4.8-12.5 2.7-25 5.3-37.5 7.8-1.4.3-3 1.1-5.5-.7zM1442.3 302.7c-3.6 3.2-7.5 3.5-11.2 4.3-11.8 2.5-24 2-36 2.5-9.4.4-18.4 2.7-27.7 3.1-5.9.3-11.8 1.7-17.8.8-1.2-.2-2.9-.2-2.8-1.7.1-1.6 1.7-1.6 2.9-1.6 18.5-.3 36.6-4.8 55.1-4.8 11.6-.1 23.3-1 34.8-2.8.8 0 1.8 0 2.7.2zM1401.4 425.7c-.3-5.7-.6-11.5 1.9-16.8 1-2.3 3.6-3.1 5.7-3.8 7.5-2.6 15-3 22.3.8 1.2.4 2 1.5 2.2 2.8.7 6.8-.9 12.7-6.5 17.3-5.6 4.6-11.7 5.4-18.3 2.4-2.3-1.1-4.5-2.9-7.3-2.7zm28.9-12.4c.6-2.8-.6-4.8-3.4-5.5-5.2-1.2-10.7-1-15.7.8-5.4 1.9-6.9 4.7-6.1 10.5.3 1.9.6 3.8 2.3 4.9 10.6 6.6 22.4-2.8 22.9-10.7zM1368.4 426c-1.3 1-2 .3-2.7-.4-10.7-9.8-20.3-20.4-25.9-34-2.9-6.6-4.7-13.6-5.5-20.7-.3-3.2-.5-6.2 1.8-9.2s4.9-3.6 8.1-3.4c-5.4 4.3-8 9.2-6.9 16.8 2.6 16.5 11.3 29.4 22.2 41.3 2.8 3.2 5.9 6.4 8.9 9.6zM1354.7 369.1c1-9.9 13.3-23 22.3-24.4 2.1-.3 2.5.9 2.2 2.4-1 4.8-1.6 9.7-3.5 14.3-.3.8-.3 2.3-1.7 1.9-1.4-.4-.8-1.7-.7-2.6.4-2.7 1-5.3 1.5-8 .2-.9 1.4-1.9.1-2.6-.9-.5-1.8.4-2.7.9-8.1 4.2-11.8 11.7-14.6 19.8-.4 1.1.6 3.4-1.6 3-1.7-.3-1.2-2.4-1.2-3.8-.1-.3-.1-.6-.1-.9zM1401.4 425.7c-4.3 1.9-8.1-.6-11.7-1.9-10.9-4-20.4-10.1-27.2-19.9-.6-.9-1.5-1.7-.8-3 .2-.4.7-.7 1.2-.6 1.5.2 1.4 1.2 1.5 2.4.1 1.5 1.4 2.5 2.6 3.5 9 8 19 14.4 30.7 17.7 1.3.5 2.5 1.1 3.7 1.8zM1373.8 383c.4-1.4.5-3.4 2.5-3.5 2.2-.2 1.4 2.1 2.1 3.2 2.9 4.2 6 8.1 9.1 12.1.6.7 1.9 1.1 1.5 2.3-.4 1.1-1.4 1.8-2.5 2-1.2.2-2.4 0-2.7-1.4-.4-1.9-3.8-2.6-2.2-5.3-.7-.3-1.4-.5-2-.8-3.3-1.6-6.2-5.7-5.8-8.6zM1452.4 389.8c-.3 6.9-4.6 10.8-10.4 10.3-.7-.1-1.7.2-1.9-.7-.3-1.2.7-1.3 1.6-1.5 5-1 6.8-4.9 7.9-9.2.3-1.1-.2-3.1 1.3-3 1.7.1 1.5 2.2 1.6 3.6-.1.4-.2.9-.1.5zM1440 327.3c1.5.3 2.5.5 3.5.6 1.2.1 2.2 1.1 2.1 2.4v.2c-.2 1.4-1.6 1.3-2.7 1.1-5.3-.9-10.7-2.5-16 0-.4.2-.9 0-1.1-.4 0-.1-.1-.2-.1-.2-.2-.6.1-1.3.7-1.6 1.5-1.1 3.3-1.7 5.2-1.9 2.9-.1 5.9-.1 8.4-.2zM1459.4 365.5l-5.8-17c4.3 2.1 7.1 10.3 5.8 17zM1104.2 275.6c.5 2.2 2.2 2.9 3.8 3.7 2 1 3.5 2.8 4.3 4.9.6 2.2 2.2 3.9 4.4 4.7 1.8.6 2.5 2.2 3 4 .3 1 .1 1.9-1 2-3.9.4-7.7 2-11.8.9-1.4-.2-2.5-1.1-3-2.5-1.8-5.9-.3-11.7.3-17.7zm9.7 17.1c-2.1-1.1-3.7-2.9-4.5-5.2-.2-.6-.8-1.1-1.5-1-.8.2-.6.9-.7 1.5-.4 4.2.9 5.3 6.7 4.7zM1047.9-291.9c1.7-1.6 3.5-1.4 5.1-1 4.3 1 8.3-.1 12.4-1s6.1 1.1 5.5 5.2c-.4 2.1-.3 4.2.3 6.2.3.9.3 1.9-.9 2-1.4.2-1.2-.9-1.2-1.8 0-2.1-.9-4.1-.4-6.3s-.3-2.7-2.4-1.8c-5.8 2.8-8.7 7.5-8.6 13.9.1 3.9 0 7.8 0 12.6-2.3-2.3-3.4-4-3.1-6.4.2-1.4.1-2.7.2-4.1.1-3.2 1.5-7-4.7-7.2 3-2.6 5.3-4.6 7.5-6.7.7-.6 2-1.1 1.4-2.3-.4-.9-1.5-.8-2.3-.7-2.9.8-5.6.3-8.8-.6zM1072.1-230.8c-1.6-5.6-.4-8 4.6-10.2 1.7-.7 1.9-2.1 1.6-3.7-1-6.4-1.8-12.8-2.8-19.1-.1-.9-1-2.1.7-2.2 1.4-.1 1.6 1.1 1.7 2 .3 7.1 2.6 13.9 2.8 21 .1 1.8-.3 3-1.8 3.6-3.6 1.7-6.1 4.3-6.8 8.6z"/><path d="M1061.8-271.5c-1.1-2.7-.7-4.9-.6-7 .1-1-.3-2.3.9-3 .7-.4 1.2.3 1.3.9.2 1.2 2.4 2.3.3 3.7-1.6 1.2-.6 3.3-1.9 5.4zM1046.4-218.7l-10.4-22 1-.5c5.3 6.5 7.1 14.6 10.5 22l-1.1.5zM911.6 379.8c-1.6 8.1-5.8 15.2-9.6 22.4-1.6 3.1-2.5 6.6-5.5 9.7-.7-2.7.2-4.3 1-5.9 3.9-7.4 7-15.1 10.3-22.7.8-1.8 1.6-3.4 3.9-3.4l-.1-.1zM1023.9 251.5c-2 7.4-3.9 14.7-5.9 22-1.6 6.1-3.2 12.2-4.9 18.3-.3 1 .3 3.1-1.5 2.8-1.8-.3-.6-2-.4-3.1 2.3-12.3 6.1-24.3 9-36.5.3-1.3.5-2.7.9-4 .3-1 .8-2 2-1.7 1 .3.8 1.4.8 2.2zM1002.8 295.6c-1-3.8.6-6.9 1.3-9.9 2.4-9.9 5.1-19.7 7.7-29.5.3-1 .2-2.7 1.8-2.2 1.3.3 1.1 1.8.8 2.9-2.7 10.4-5.3 20.9-8.8 31.1-.8 2.4-.4 5.2-2.8 7.6zM1255.3 354.9c-1.9.8-3.4-.1-4.9-.3-9.6-1.5-19.1-3.1-28.7-4.7-1.3-.2-2.7-.5-2.5-2.1.2-1.9 1.8-1.3 2.9-1.2 3.9.2 7.5 1.5 11.3 2.4 6.4 1.5 12.8 2.9 19.2 4.4 1.2.1 2.1.7 2.7 1.5zM1195.1 345.4c-.4.8-1.3 1.2-2.2.8-.1-.1-.2-.1-.3-.2-2.4-1.3-4.5-3.2-6.1-5.3-.6-.7-.7-1.7.4-2.2 1-.5 8.3 5.8 8.2 6.9zM1231.3-30.2c.6-2 2.2-3.5 4.2-3.9.6-.2 1.3.1 1.6.6.3.8-.4 1.1-1 1.3-1.5.7-3 1.3-4.8 2zM1228.1 5c-4.6-.1-6.9-3.5-10.3-4.5-.6-.3-.8-.9-.5-1.5.1-.1.2-.3.3-.4.6-.7 1.7-.7 2.3 0 2.5 2 5.5 3.2 8.2 6.4zM918.7 370.7l-21.6-11.9.5-1c8.5 1.5 14.8 7.3 21.8 11.5l-.7 1.4zM790.5 114.7l-7.3-15c4 2.7 7.6 9.6 7.3 15zM790 126.5c-3.7-4.2-5.6-9.3-7.5-14.4 4 4.1 5.3 9.5 7.5 14.4zM1210.6-58.9c.3 3.7-3 6-4 9.3-.5 1.7-2.3-1-3.8-.4-.6.3-1.2-.7-.9-1.2 1.5-2.4 1.8-5.6 4.4-7.4 1.7 1.3-.4 2.6.6 4 1.6-1.1 1.3-4.1 3.7-4.3zM1230.8 62.7c-1.2-.2-1.2-.9-1.1-1.7.3-1.5.6-3 2.7-2.7.9.1 1.8.4 1.7 1.5-.2 2-2.2 1.9-3.3 2.9zM759.9 63c-1.1.3-2.3.7-3.4 1.2.4.3.9.5 1.3.7h.8c.4-.5.9-1 1.3-1.5V63zM783 63.1v.4c2-.2 4-.5 6-.8l-.3-.6c-1.9.2-3.8.5-5.7 1zM716.1-278.6c.9.9 1.4 2.2 1.3 3.4v15.2c0 2.7-2.2 4.8-4.9 4.8-1.2 0-2.4-.5-3.3-1.3-.9-.9-1.4-2.1-1.4-3.4v-11.5h-54.9v11.5c0 2.7-2.2 4.8-4.9 4.8-1.2 0-2.4-.5-3.3-1.3-.9-.9-1.4-2.1-1.4-3.4V-275c0-1.3.5-2.5 1.4-3.4s2.1-1.4 3.4-1.3h2.7l25.1-59.9c.6-1.9 2.5-3.2 4.5-3.2 2.1-.1 3.9 1.2 4.5 3.2l25.1 59.9h2.6c1.3-.3 2.5.2 3.5 1.1zm-55.5-1.4h40.3l-20.3-49.4-20 49.4zM743-275.3c-5.4-3-9.9-7.6-12.9-13-3.1-5.8-4.7-12.4-4.6-19-.1-6.6 1.5-13.1 4.6-19 3-5.5 7.4-10 12.9-13 11.8-6.2 25.9-6.2 37.7 0 5.4 3 9.9 7.5 12.9 13 3.1 5.8 4.7 12.3 4.6 19 .1 6.6-1.5 13.2-4.6 19-3 5.5-7.4 10-12.9 13-11.8 6.2-25.9 6.2-37.7 0zm32.9-7.6c4.1-2.4 7.5-5.9 9.7-10.1 4.6-9 4.6-19.6 0-28.6-2.2-4.2-5.6-7.7-9.7-10.1-8.7-4.9-19.4-4.9-28.1 0-4.1 2.4-7.4 5.9-9.7 10.1-4.6 9-4.6 19.6 0 28.6 2.2 4.2 5.6 7.7 9.7 10.1 8.8 4.9 19.4 4.9 28.1 0zM716.8 16.8c.6.9 1 2 1 3.1 0 1.2-.4 2.3-1.2 3.2-.8.9-2 1.4-3.2 1.4-1.4 0-2.8-.6-3.7-1.7L689.9-4.8l-21.1 27.9c-.9.9-2.1 1.4-3.3 1.4-1.2.1-2.3-.4-3.2-1.3-.8-.9-1.2-2-1.1-3.1 0-1.2.4-2.4 1.1-3.3l21.3-28.4-20.1-27.9c-.6-.8-.9-1.8-.9-2.8 0-1.2.4-2.4 1.2-3.3.8-.9 2-1.4 3.2-1.4 1.3-.1 2.6.4 3.4 1.4l19.7 27.2 20.5-27.3c.9-.9 2.1-1.4 3.4-1.4 1.2-.1 2.3.4 3.1 1.3.8.9 1.2 2 1.1 3.1 0 1.1-.4 2.2-1 3.1l-20.9 27.8 20.5 28.6zM732.8 23.1c-.9-.9-1.4-2.1-1.4-3.4v-62c0-1.3.5-2.5 1.4-3.4s2.1-1.4 3.4-1.3H758c3.8-.1 7.5.8 10.9 2.4 6.3 3.1 10.3 9.6 10.2 16.6 0 2.9-.8 5.7-2.4 8.1-1.7 2.4-4 4.4-6.6 5.8 8.1 1.5 13.8 8.8 13.4 17 .1 3.9-1 7.8-3 11.2-2 3.3-4.9 6-8.3 7.7-3.8 1.9-7.9 2.8-12.1 2.7h-23.8c-1.4 0-2.6-.5-3.5-1.4zM758-17.7c3.1.2 6.2-.8 8.7-2.7 2.2-1.8 3.2-4.3 3.3-7.7 0-3.4-1.1-5.9-3.3-7.6-2.5-1.8-5.6-2.8-8.7-2.6h-17.1v20.6H758zm2 33.4c4.3 0 7.7-1.1 10.3-3.3s3.9-5.4 3.9-9.5c0-3.8-1.3-6.7-3.9-8.7-2.6-2-6.1-3-10.4-3h-19v24.5H760z"/><path d="M940.1-261.1c-18.1-37-45.5-68.8-79.4-92.2-51.2-34.9-113.9-48.4-174.9-37.9-2.5.4-5 .9-7.5 1.5s-5 1-7.4 1.6c-4.9 1.3-9.9 2.5-14.7 4.1-29.1 9.1-56.2 23.9-79.6 43.4l-2.9 2.4-1.5 1.2-1.4 1.3-5.6 5.1-1.4 1.3-1.3 1.3-2.7 2.7c-1.8 1.8-3.6 3.5-5.3 5.5l-5.1 5.6c-.9.9-1.7 1.9-2.5 2.9l-2.4 2.9c-3.3 3.8-6.2 8-9.2 12-5.9 8.2-11.2 16.9-15.9 25.8-2.5 4.4-4.5 9-6.7 13.6-.6 1.1-1 2.3-1.5 3.5l-1.4 3.5c-.9 2.3-2 4.6-2.8 7l-2.5 7.1-.6 1.8-.5 1.8-1.1 3.6-1.1 3.6c-.4 1.2-.7 2.4-1 3.6l-1.8 7.3c-.7 2.4-1.1 4.9-1.6 7.4s-1 4.9-1.4 7.4l-1 7.5-.5 3.7-.3 3.8-.7 7.5c-.2 2.5-.2 5-.4 7.5-.3 5-.1 10.1-.1 15.1v1.9l.1 1.9.2 3.8.2 3.8.1 1.9c.1.6.1 1.3.2 1.9.6 5 1 10 1.9 15 1.5 9.9 3.6 19.8 6.4 29.5 1.5 4.8 2.8 9.7 4.6 14.4.9 2.4 1.6 4.8 2.6 7.1l2.9 7C535.7-9.6 580.6 35.4 637 59.8c1.2.6 2.3 1 3.5 1.5l3.6 1.4 3.6 1.4 1.8.7 1.8.6 7.3 2.5 1.8.6c.6.2 1.2.4 1.8.5l3.7 1.1 3.7 1.1c1.2.3 2.5.7 3.7 1l7.5 1.8c1.3.3 2.5.6 3.8.9l3.8.7L696 77l-.1 1.1c-10.3-.9-20.6-2.5-30.7-4.8-5.1-1-10.1-2.5-15.1-3.9l-1.9-.5-1.9-.6-3.7-1.2-3.7-1.2c-1.2-.4-2.5-.8-3.7-1.3-19.6-7.3-38.1-17.2-55.1-29.5-8.5-6.1-16.6-12.8-24.3-20-3.7-3.7-7.6-7.3-11.1-11.2L542 1l-1.3-1.4-1.3-1.5-5.1-6c-6.6-8.2-12.7-16.8-18.2-25.7-2.9-4.4-5.3-9.1-7.9-13.7-.7-1.1-1.2-2.3-1.8-3.5l-1.7-3.5c-1.1-2.4-2.4-4.7-3.4-7.1-17.3-38.8-23.8-81.5-18.8-123.6 2.4-20.9 7.5-41.5 15.2-61.1.9-2.5 2-4.9 3-7.3l1.6-3.6c.5-1.2 1-2.4 1.6-3.6 2.3-4.7 4.5-9.5 7.2-14 5.1-9.2 10.7-18.1 16.9-26.5 3.2-4.2 6.3-8.4 9.7-12.4l2.5-3c.8-1 1.7-2 2.6-3l5.3-5.8c1.7-2 3.7-3.7 5.5-5.6l2.8-2.8 1.4-1.4 1.5-1.3 5.9-5.2 1.5-1.3 1.5-1.2 3.1-2.5c24.4-19.8 52.5-34.7 82.7-43.7 5-1.6 10.1-2.7 15.1-4.1 2.5-.6 5.1-1.1 7.7-1.6 2.6-.5 5.1-1.1 7.7-1.4 20.6-3.4 41.6-4 62.4-1.9 10.4 1 20.7 2.6 30.8 5 71.9 16.7 132.1 65.7 163.2 132.7l-.8.5z"/><path class="st1" d="M694-164.3c7.6 4.3 13.5 10.3 17.8 17.8 4.3 7.6 6.5 15.9 6.5 25.1 0 9.2-2.2 17.6-6.5 25.1-4.3 7.6-10.3 13.5-17.8 17.8-7.6 4.3-15.9 6.5-25.1 6.5-9.2 0-17.6-2.2-25.1-6.5-7.6-4.3-13.5-10.2-17.8-17.8-4.3-7.5-6.4-15.9-6.4-25.2 0-2.8.9-5.2 2.7-7.1 1.8-1.9 4.1-2.8 7-2.8 2.8 0 5.2.9 7.2 2.8 1.9 1.9 2.9 4.2 2.9 7.1 0 5.6 1.3 10.6 3.9 15.1 2.6 4.5 6.1 8.1 10.6 10.7 4.5 2.6 9.5 3.9 15 3.9 5.6 0 10.6-1.3 15.1-3.9 4.5-2.6 8.1-6.1 10.7-10.7 2.6-4.5 3.9-9.6 3.9-15.1 0-5.6-1.3-10.6-3.9-15.1-2.6-4.5-6.1-8.1-10.7-10.7-4.5-2.6-9.6-3.9-15.1-3.9h-32.4c-2.8 0-5.2-.9-7-2.8-1.8-1.9-2.7-4.2-2.7-7.1v-52.4c0-2.8.9-5.2 2.7-7.2 1.8-1.9 4.1-2.9 7-2.9h64.8c2.7 0 5 1 7 3 1.9 2 2.9 4.4 2.9 7.1 0 2.6-.9 4.8-2.8 6.8-1.9 1.9-4.2 2.9-7.1 2.9h-54.9v32.8h22.5c9.2.2 17.6 2.4 25.1 6.7zM759.8-137.3c-6.9-3.9-12.3-9.4-16.2-16.4-3.9-7-5.8-14.9-5.8-23.9 0-8.8 1.9-16.7 5.8-23.7s9.3-12.4 16.2-16.4c6.9-3.9 14.8-5.9 23.6-5.9 8.9 0 16.8 2 23.8 5.9 6.9 3.9 12.3 9.4 16.2 16.4s5.8 14.9 5.8 23.7c0 10-2.5 18.8-7.4 26.6l-44 73.3c-2.3 3.6-5.3 5.4-8.9 5.4-3 0-5.4-1-7.4-2.9-1.9-1.9-2.9-4.3-2.9-7 0-1.9.5-3.7 1.6-5.2l26.6-44h-3.3c-8.9 0-16.8-2-23.7-5.9zm4.2-60.9c-5 5.3-7.6 12.2-7.6 20.6 0 8.4 2.5 15.3 7.6 20.7 5 5.4 11.6 8.1 19.6 8.1 7.9 0 14.4-2.7 19.4-8.1 5-5.4 7.6-12.3 7.6-20.7 0-8.4-2.5-15.3-7.5-20.6-5-5.3-11.5-8-19.5-8-8.1.1-14.6 2.7-19.6 8z"/></svg>