<svg xmlns="http://www.w3.org/2000/svg" viewBox="0 0 865.76 682.89"><rect x="264.35" y="322.59" width="20.53" height="24.43" fill="#0071f2"/><rect x="349.62" y="321.61" width="20.53" height="24.43" fill="#0071f2"/><g opacity="0.2"><rect x="264.35" y="322.59" width="20.53" height="24.43"/><rect x="349.62" y="321.61" width="20.53" height="24.43"/></g><rect x="514.56" y="562.3" width="21.99" height="17.84" fill="#63283a"/><rect x="614.74" y="562.3" width="21.99" height="17.84" fill="#63283a"/><g opacity="0.2"><rect x="514.56" y="562.3" width="21.99" height="17.84"/><rect x="614.74" y="562.3" width="21.99" height="17.84"/></g><path d="M613.68,422.34s-2.6-5.67-39.74-1.52l-30.3-52.29-16.13-35.92s-32.44.13-34.09,32.62l1.35,55.59s21,32,82.1,9.29C576.87,430.11,597,419.7,613.68,422.34Z" fill="#63283a"/><g opacity="0.2"><path d="M613.68,422.34s-2.6-5.67-39.74-1.52l-30.3-52.29-16.13-35.92s-32.44.13-34.09,32.62l1.35,55.59s21,32,82.1,9.29C576.87,430.11,597,419.7,613.68,422.34Z"/></g><path d="M630.38,450.63h45.45a0,0,0,0,1,0,0v79.1a38.18,38.18,0,0,1-38.18,38.18h-7.26a0,0,0,0,1,0,0V450.63A0,0,0,0,1,630.38,450.63Z" fill="#63283a"/><g opacity="0.2"><path d="M630.38,450.63h45.45a0,0,0,0,1,0,0v79.1a38.18,38.18,0,0,1-38.18,38.18h-7.26a0,0,0,0,1,0,0V450.63A0,0,0,0,1,630.38,450.63Z"/></g><path d="M701.46,567.51s-1.93,11.16,13,10.91c1-.24,47.64,0,47.64,0s1.72-11.72-23.45-10.5l-5.73-4.3-10.4-3.28Z" fill="#f5b8ae"/><path d="M766,555.46s-3.66,20,12,19.06c1-.25,47.65,0,47.65,0s1.71-11.73-23.46-10.51l-5.73-4.3L786,556.43Z" fill="#f5b8ae"/><path d="M570.27,424.24S555.61,465.29,659.21,458l34.46,107.76s27.61,8.55,44-5.62L706.37,449.9s5.38-2,13,14.41l42.76,93.83s33.48,2.69,40.81-3.66L762.57,447.21s-6.84-19.06-21.25-27.61L694.4,397.36l-78.19,1.71Z" fill="#38395e"/><path d="M495.19,365.6l-.42,55.22s21.5,32,82.1,9.29c0,0,34.45-19.55,51.31,1.46s12.71,41.79,12.71,41.79l.24,94.31-132.79.41A25.27,25.27,0,0,1,483,542.62l1.28-177.51s4.09-40,43.34-37.49l-.09,5s-2.07.41-3.54.61C507.6,335.42,495.32,348.56,495.19,365.6Z" fill="#63283a"/><g opacity="0.2"><path d="M676.81,411.29a43,43,0,0,1,24.47,20.93c.26.46.82,1.68,1.06,2.17.42,1,.86,2,1.21,3s.77,2.17,1,3.05.6,2.21.81,3.12c.09.38.26,1.18.32,1.58.16.89.4,2.27.49,3.17l.2,1.6-.23-1.59c-.1-.9-.37-2.27-.55-3.17-.07-.39-.24-1.17-.35-1.56a47.46,47.46,0,0,0-2.46-7.63c-.33-.85-.93-2.08-1.33-2.91-.19-.42-.54-1-.75-1.42a44.17,44.17,0,0,0-23.89-20.33Z"/></g><g opacity="0.2"><path d="M659.21,458c3.2,2.39,6.31,4.93,9.29,7.58-3.19-2.4-6.3-4.93-9.29-7.58Z"/></g><path d="M446.63,535.42,417.8,582.58H223.3l-27.61-38.12S181.51,528.82,191,500l.47-1.48,4.21-13.41,45.66-145.4H395.81l46.36,139.92L446.94,494l3.6,10.88S455.18,523.69,446.63,535.42Z" fill="#0071f2"/><rect x="263.13" y="359.49" width="29.81" height="21.99" fill="#38395e"/><path d="M274.91,365.41v-2.62h4.9v14.82h-2.93v-12.2Z" fill="#fff"/><rect x="302.47" y="359.73" width="29.81" height="21.99" fill="#38395e"/><path d="M313.42,374.64c1.3-1.08,2.33-2,3.11-2.71a12.94,12.94,0,0,0,1.93-2.27,4.27,4.27,0,0,0,.77-2.32,2.43,2.43,0,0,0-.49-1.62,1.8,1.8,0,0,0-1.5-.59,1.89,1.89,0,0,0-1.57.68,3,3,0,0,0-.57,1.86h-2.76a4.66,4.66,0,0,1,4.94-5,4.86,4.86,0,0,1,3.56,1.23,4.39,4.39,0,0,1,1.24,3.24,5.85,5.85,0,0,1-.86,3,12.08,12.08,0,0,1-2,2.51c-.73.71-1.69,1.57-2.86,2.57h6v2.36h-10v-2.11Z" fill="#fff"/><rect x="342.29" y="359.98" width="29.81" height="21.99" fill="#38395e"/><rect x="263.13" y="381.24" width="29.81" height="3.18" fill="#38395e"/><rect x="302.47" y="381.48" width="29.81" height="3.18" fill="#38395e"/><rect x="342.29" y="381.72" width="29.81" height="3.18" fill="#38395e"/><g opacity="0.2"><rect x="263.13" y="381.24" width="29.81" height="3.18"/><rect x="302.47" y="381.48" width="29.81" height="3.18"/><rect x="342.29" y="381.72" width="29.81" height="3.18"/></g><path d="M354.19,364a5.31,5.31,0,0,1,3.51-1.11,5.67,5.67,0,0,1,2.54.52,3.73,3.73,0,0,1,1.6,1.4,3.86,3.86,0,0,1,.53,2,3.52,3.52,0,0,1-.66,2.17,3.2,3.2,0,0,1-1.57,1.19v.08a3.43,3.43,0,0,1,1.84,1.3,4.05,4.05,0,0,1,.66,2.4,4.29,4.29,0,0,1-.56,2.18,3.81,3.81,0,0,1-1.65,1.49,6.6,6.6,0,0,1-6.35-.62,4.36,4.36,0,0,1-1.53-3.42h2.77a2.21,2.21,0,0,0,.68,1.6,2.47,2.47,0,0,0,1.76.6,2.08,2.08,0,0,0,1.59-.58,2,2,0,0,0,.56-1.49,1.94,1.94,0,0,0-.77-1.75,4.31,4.31,0,0,0-2.4-.53h-.59v-2.34h.59c1.93,0,2.89-.64,2.89-1.93a1.76,1.76,0,0,0-.52-1.36,2.06,2.06,0,0,0-1.49-.49,2,2,0,0,0-1.48.52,2.13,2.13,0,0,0-.6,1.31h-2.78A4.1,4.1,0,0,1,354.19,364Z" fill="#fff"/><rect x="262.88" y="390.77" width="29.81" height="21.99" fill="#38395e"/><path d="M271.91,406v-2.24l6.65-9.51h3.31v9.27h1.79V406h-1.79v2.89H279V406Zm7.3-8.7L275,403.52h4.17Z" fill="#fff"/><rect x="302.22" y="391.01" width="29.81" height="21.99" fill="#38395e"/><path d="M321.37,396.77h-6.59v3.47a3,3,0,0,1,1.22-.86,4.35,4.35,0,0,1,1.69-.33,4.56,4.56,0,0,1,2.66.71,4.07,4.07,0,0,1,1.5,1.82,5.87,5.87,0,0,1,.47,2.37,5.29,5.29,0,0,1-1.33,3.76,4.93,4.93,0,0,1-3.79,1.42,5.58,5.58,0,0,1-3.7-1.16,4.34,4.34,0,0,1-1.57-3h2.77a2.15,2.15,0,0,0,.82,1.3,2.6,2.6,0,0,0,1.64.49A2.2,2.2,0,0,0,319,406a3.11,3.11,0,0,0,.61-2,2.76,2.76,0,0,0-.62-1.93,2.39,2.39,0,0,0-1.82-.66A2.23,2.23,0,0,0,314.9,403h-2.72v-8.7h9.19Z" fill="#fff"/><rect x="342.05" y="391.25" width="29.81" height="21.99" fill="#38395e"/><rect x="262.88" y="412.51" width="29.81" height="3.18" fill="#38395e"/><rect x="302.22" y="412.76" width="29.81" height="3.18" fill="#38395e"/><rect x="342.05" y="413" width="29.81" height="3.18" fill="#38395e"/><g opacity="0.2"><rect x="262.88" y="412.51" width="29.81" height="3.18"/><rect x="302.22" y="412.76" width="29.81" height="3.18"/><rect x="342.05" y="413" width="29.81" height="3.18"/></g><path d="M358.4,397a2.16,2.16,0,0,0-1.43-.43,2.23,2.23,0,0,0-2.07,1.13,7.74,7.74,0,0,0-.68,3.67,3.38,3.38,0,0,1,1.42-1.27,4.93,4.93,0,0,1,4.38.11,4,4,0,0,1,1.58,1.66,6.14,6.14,0,0,1,0,5.19,4.16,4.16,0,0,1-1.7,1.75,6.18,6.18,0,0,1-6-.3,4.84,4.84,0,0,1-1.69-2.61,15.28,15.28,0,0,1-.48-4.14,10.14,10.14,0,0,1,1.28-5.62,4.53,4.53,0,0,1,4.05-1.9,4.48,4.48,0,0,1,3.31,1.16,4.55,4.55,0,0,1,1.36,2.88H359.1A2.4,2.4,0,0,0,358.4,397Zm-3.18,5.61a2.27,2.27,0,0,0-.73,1.83,2.39,2.39,0,0,0,2.6,2.59,2.3,2.3,0,0,0,1.74-.68,2.53,2.53,0,0,0,.64-1.81,2.74,2.74,0,0,0-.62-1.87A2.33,2.33,0,0,0,357,402,2.66,2.66,0,0,0,355.22,402.58Z" fill="#fff"/><rect x="263.13" y="423.02" width="29.81" height="21.99" fill="#38395e"/><path d="M282.93,428.74l-5.41,12.67h-2.88l5.44-12.35h-6.95v-2.44h9.8Z" fill="#fff"/><rect x="302.47" y="423.02" width="29.81" height="21.99" fill="#38395e"/><path d="M312.36,430.28a3.75,3.75,0,0,1,.56-2,3.85,3.85,0,0,1,1.69-1.44,7.3,7.3,0,0,1,5.51,0,3.87,3.87,0,0,1,1.68,1.44,3.66,3.66,0,0,1,.56,2,3.52,3.52,0,0,1-.55,2,3.7,3.7,0,0,1-1.46,1.31A4,4,0,0,1,322.1,435a3.86,3.86,0,0,1,.63,2.22,4.24,4.24,0,0,1-.7,2.41,4.51,4.51,0,0,1-1.92,1.57,6.59,6.59,0,0,1-2.75.55,6.43,6.43,0,0,1-2.73-.55,4.51,4.51,0,0,1-1.92-1.57,4.24,4.24,0,0,1-.7-2.41,3.92,3.92,0,0,1,.63-2.23,3.83,3.83,0,0,1,1.75-1.41A3.48,3.48,0,0,1,312.36,430.28Zm3.12,5.11a2,2,0,0,0-.72,1.68,2.12,2.12,0,0,0,.7,1.66,2.7,2.7,0,0,0,1.9.64,2.62,2.62,0,0,0,1.89-.65,2.16,2.16,0,0,0,.69-1.65,2.05,2.05,0,0,0-.71-1.67,2.8,2.8,0,0,0-1.87-.6A2.84,2.84,0,0,0,315.48,435.39Zm3.52-6.24a2.32,2.32,0,0,0-1.64-.55,2.29,2.29,0,0,0-1.62.55,2,2,0,0,0-.6,1.56,1.85,1.85,0,0,0,.62,1.46,2.6,2.6,0,0,0,3.21,0,1.86,1.86,0,0,0,.63-1.47A2,2,0,0,0,319,429.15Z" fill="#fff"/><rect x="342.29" y="423.02" width="29.81" height="21.99" fill="#38395e"/><rect x="263.13" y="444.77" width="29.81" height="3.18" fill="#38395e"/><rect x="302.47" y="444.77" width="29.81" height="3.18" fill="#38395e"/><rect x="342.29" y="444.77" width="29.81" height="3.18" fill="#38395e"/><g opacity="0.2"><rect x="263.13" y="444.77" width="29.81" height="3.18"/><rect x="302.47" y="444.77" width="29.81" height="3.18"/><rect x="342.29" y="444.77" width="29.81" height="3.18"/></g><path d="M355.86,438.83a2.34,2.34,0,0,0,1.55.48,1.93,1.93,0,0,0,1.83-1.05,7.85,7.85,0,0,0,.57-3.52,3.06,3.06,0,0,1-1.31,1,4.42,4.42,0,0,1-1.82.37,5.05,5.05,0,0,1-2.35-.54,3.94,3.94,0,0,1-1.65-1.61,5.09,5.09,0,0,1-.61-2.59,4.82,4.82,0,0,1,1.34-3.59,4.94,4.94,0,0,1,3.66-1.33,4.47,4.47,0,0,1,4.07,1.85,10.37,10.37,0,0,1,1.19,5.57,17.21,17.21,0,0,1-.45,4.33,4.27,4.27,0,0,1-4.59,3.44,5.21,5.21,0,0,1-2.56-.58,4.2,4.2,0,0,1-1.62-1.53,4.78,4.78,0,0,1-.64-2.08h2.65A2.15,2.15,0,0,0,355.86,438.83Zm3.08-5.68a2.48,2.48,0,0,0,.61-1.75,2.59,2.59,0,0,0-.64-1.86,2.32,2.32,0,0,0-1.74-.66,2.3,2.3,0,0,0-1.74.68,2.83,2.83,0,0,0,0,3.56,2.4,2.4,0,0,0,1.86.68A2.19,2.19,0,0,0,358.94,433.15Z" fill="#fff"/><rect x="262.88" y="454.05" width="29.81" height="21.99" fill="#38395e"/><path d="M280.09,461.89l1,1.83-2.64.95,2.64,1-1.06,1.89-2.19-1.81.46,2.81h-2.11l.45-2.81-2.18,1.85-1.12-1.95,2.65-1-2.63-.91,1-1.87,2.26,1.79-.47-2.83h2.14l-.49,2.83Z" fill="#fff"/><rect x="302.22" y="454.05" width="29.81" height="21.99" fill="#38395e"/><path d="M312.91,459.3a5.47,5.47,0,0,1,8.44,0,10.28,10.28,0,0,1,1.27,5.51,10.41,10.41,0,0,1-1.27,5.55,5.42,5.42,0,0,1-8.44,0,10.32,10.32,0,0,1-1.27-5.55A10.19,10.19,0,0,1,312.91,459.3Zm6.71,3a3.45,3.45,0,0,0-.78-1.68,2.17,2.17,0,0,0-1.71-.65,2.19,2.19,0,0,0-1.72.65,3.35,3.35,0,0,0-.77,1.68,13.86,13.86,0,0,0-.2,2.53,14.45,14.45,0,0,0,.19,2.59,3.27,3.27,0,0,0,.77,1.69,2.22,2.22,0,0,0,1.73.64,2.2,2.2,0,0,0,1.72-.64,3.2,3.2,0,0,0,.78-1.69,15.57,15.57,0,0,0,.18-2.59A14,14,0,0,0,319.62,462.28Z" fill="#fff"/><rect x="342.05" y="454.05" width="29.81" height="21.99" fill="#38395e"/><rect x="262.88" y="475.8" width="29.81" height="3.18" fill="#38395e"/><rect x="302.22" y="475.8" width="29.81" height="3.18" fill="#38395e"/><rect x="342.05" y="475.8" width="29.81" height="3.18" fill="#38395e"/><g opacity="0.2"><rect x="262.88" y="475.8" width="29.81" height="3.18"/><rect x="302.22" y="475.8" width="29.81" height="3.18"/><rect x="342.05" y="475.8" width="29.81" height="3.18"/></g><path d="M362.07,463.44l-.67,3.13H364v2.54h-3.13l-.73,3.46h-2.71l.73-3.46h-3.7l-.73,3.46H351l.73-3.46h-3.07v-2.54h3.62l.67-3.13h-3.05V460.9h3.6l.71-3.38h2.68l-.71,3.38h3.7l.72-3.38h2.7l-.71,3.38h2.6v2.54Zm-2.71,0h-3.7l-.67,3.13h3.7Z" fill="#fff"/><polygon points="446.94 494 395.07 520.27 238.2 520.27 191.51 498.51 195.72 485.1 237.84 505.49 393.49 505.49 442.17 479.62 446.94 494" fill="#4cbd98"/><g opacity="0.2"><path d="M446.63,535.42,417.8,582.58H223.3l-27.61-38.12S181.51,528.82,191,500l.47-1.48,46.69,21.76H395.07L446.94,494l3.6,10.88S455.18,523.69,446.63,535.42Z" fill="#fff"/></g><path d="M417.8,382.46V357.78a32.11,32.11,0,0,0-1.71-5.87c-3.48-9-13.52-25.18-40.56-23.94H250.42s-22.41.33-33.79,18.22a34.24,34.24,0,0,0-3.22,6.47l-.09.23A36.9,36.9,0,0,0,211.13,364l-.78,18.25-93.34.25a117.75,117.75,0,0,1,4.31-29.57c7.91-29.43,30.31-71.58,93.67-81.37H414.13s70.51,4.48,86.49,80.39a156,156,0,0,1,3.19,30.55Z" fill="#0071f2"/><g opacity="0.2"><path d="M213.32,352.89A36.9,36.9,0,0,0,211.13,364l-.78,18.25-93.34.25a117.75,117.75,0,0,1,4.31-29.57Z"/></g><path d="M128.58,352.62h28.21s-8.75-43.71,49.65-72.54C206.44,280.08,155.79,286.13,128.58,352.62Z" fill="#fff"/><g opacity="0.2"><path d="M417.8,382.46V357.78a32.11,32.11,0,0,0-1.71-5.87h84.53a156,156,0,0,1,3.19,30.55Z"/></g><rect x="116.52" y="382.46" width="93.59" height="7.33" fill="#0071f2"/><rect x="417.8" y="382.46" width="85.77" height="7.33" fill="#0071f2"/><path d="M712,312h-1V195.6a65.91,65.91,0,0,0-65.79-65.82l-307.34-.17h0a66.12,66.12,0,0,0-66.13,66.12v76.21h-1V195.73a67.12,67.12,0,0,1,67.13-67.12h0l307.34.17A66.9,66.9,0,0,1,712,195.6Z" fill="#38395e"/><polygon points="509.43 96.08 533.13 120.52 533.13 128.34 487.93 144.95 610.61 129.24 509.43 96.08" fill="#0071f2"/><g opacity="0.2"><polygon points="533.13 120.52 610.59 129.31 533.13 128.34 533.13 120.52" fill="#fff"/></g><path d="M125.59,503.21a23.59,23.59,0,0,1-11.8-3.54c-1.45-.87-3.13-3.53-4.56-6.92-9.79,6.92-17.77,3.09-17.86,3a24,24,0,0,1-7.63-8.5,20,20,0,0,1-18.31-.56l-.12-.1a29.78,29.78,0,0,1-3.92-5.74c-20.34,7.57-28.79-6.16-28.87-6.3l-.07-.19a28.43,28.43,0,0,1,.2-9.94c-5.45.15-10-.62-11.15-1.16-3.64-1.65-5.67-3.89-6-6.64-.77-6,6.81-12.26,7.14-12.53,1.59-.92,3.1-1.77,4.55-2.55-6.71-3.48-10.22-7.35-10.45-11.52-.32-5.84,5.92-10,6.18-10.15,3.25-1.46,6.2-2.67,8.88-3.65-3.4-4.65-4.57-8.88-3.49-12.56,1.63-5.5,7.66-7.7,7.91-7.79l.1,0c3.45-.49,6.63-.8,9.52-.93A24.9,24.9,0,0,1,45,384a15,15,0,0,1,7.57-11.2,21.19,21.19,0,0,1,16.1-1.25,25,25,0,0,1,8,4,19.18,19.18,0,0,1,13.89-5.37l26.67.79,0,1-26.67-.79a18.1,18.1,0,0,0-13.07,5,20.93,20.93,0,0,1,5,6.05c3.65,6.75,2.36,10.85.64,13.1a6.37,6.37,0,0,1-5.3,2.5A6,6,0,0,1,73,395c-2.38-3.73-1.72-9.22-1.69-9.45s.08-.41.12-.6A18.67,18.67,0,0,1,76,376.26a24.15,24.15,0,0,0-7.61-3.8A20.31,20.31,0,0,0,53,373.63,14.05,14.05,0,0,0,46,384.09a23.79,23.79,0,0,0,.89,10.83c8.57-.28,14.59,1.07,18,4a8.17,8.17,0,0,1,2.92,6.36,3.72,3.72,0,0,1-3.1,3.64c-2.45.43-6.54,0-12.15-4.51l-.08-.07a19.79,19.79,0,0,1-6.25-8.4c-2.82.12-6,.41-9.69.92-.54.21-5.83,2.34-7.24,7.12-1,3.43.18,7.43,3.51,11.92,16.18-5.73,22.17-3,24.36-.5a3,3,0,0,1,.74,2.18,2.92,2.92,0,0,1-1,2c-9.38,8-23.78-2.08-24.42-2.53-2.71,1-5.71,2.21-9,3.71,0,0-5.95,4-5.66,9.22.21,3.86,3.67,7.51,10.27,10.86l.34.08c13.92-7.42,21-8.59,24.5-8.14a3.09,3.09,0,0,1,1.6,5.43c-8.44,7-22.5,4.53-26,3.77Q26,443.35,23.18,445s-7.41,6.1-6.71,11.59c.31,2.38,2.14,4.35,5.45,5.85.84.39,5.38,1.26,11,1.08a17.38,17.38,0,0,1,3.94-7.28c7.06-7.76,19.31-7.3,19.83-7.28l.63,0-.17.6a18.3,18.3,0,0,1-10.46,12,35.51,35.51,0,0,1-13,2.89,26.79,26.79,0,0,0-.26,9.75C34.2,475.38,42.09,487,61,480a14.26,14.26,0,0,1-1.13-9.29c1.93-8.09,11.14-12.05,11.53-12.21l.34-.14.24.27a8,8,0,0,1,1.92,6.13c-.72,7.45-10.14,15-10.54,15.36l-.12.07-.87.36A28.82,28.82,0,0,0,66,485.92a18.52,18.52,0,0,0,17.32.5A15.71,15.71,0,0,1,82.08,481c-.54-10,8.31-18.22,8.69-18.56l.26-.24.31.17a7.48,7.48,0,0,1,4,5.1c1.37,6.36-4.81,14.6-5.07,14.94a24.76,24.76,0,0,1-5.65,4.38,22.84,22.84,0,0,0,7.26,8.11c.3.14,7.67,3.64,17-3.12-2.24-5.71-3.68-13.08-2.23-17.48,1-3,3.25-4.48,6.51-4.17,3.07.29,5.07,1.44,5.94,3.39,2.29,5.11-4.09,13.89-4.36,14.26a33.59,33.59,0,0,1-4.65,4.31c1.4,3.35,3,5.95,4.26,6.7.55.37,12.85,8.5,22.6-1.57a12.24,12.24,0,0,1-4.16-4.85c-4.2-8.86,3-21,3.36-21.51l.12-.21.25,0c7-.77,8.12,8.17,8.13,8.26,1.8,11.48-4.86,17.19-6.13,18.16a23.08,23.08,0,0,0,8.33,2.65c.92-.1,12.83-1.64,14.4-11.06l.07-.43,33.65.37v1l-32.8-.36c-2,10.14-15.14,11.47-15.28,11.48h-.11a23.8,23.8,0,0,1-9-2.91A16.32,16.32,0,0,1,125.59,503.21Zm11.27-31.58c-1,1.66-6.86,12.6-3.19,20.36a11.45,11.45,0,0,0,3.94,4.53l0,0,.1-.08c.08-.06,7.77-5.37,5.89-17.35C143.59,478.71,142.65,471.19,136.86,471.63Zm-24.59-.5a4.54,4.54,0,0,0-4.69,3.52c-1.41,4.27,0,11.16,2.11,16.54a35.17,35.17,0,0,0,4.26-4s6.27-8.64,4.22-13.22c-.72-1.6-2.44-2.55-5.12-2.81Zm-21.09-7.66c-1.46,1.44-8.57,8.91-8.1,17.52a14.65,14.65,0,0,0,1.15,4.95,23.49,23.49,0,0,0,5.29-4.14s6.13-8.17,4.85-14.08A6.41,6.41,0,0,0,91.18,463.47Zm-19.77-3.92c-1.67.8-9,4.62-10.6,11.37a13.29,13.29,0,0,0,1.08,8.7l.85-.35c.77-.62,9.47-7.87,10.12-14.63A7,7,0,0,0,71.41,459.55ZM56,449.9c-2.62,0-12.56.54-18.4,7A16.34,16.34,0,0,0,34,463.42a33.85,33.85,0,0,0,12.29-2.81A17.34,17.34,0,0,0,56,449.9Zm-26.11-8.64c4.66.84,16.68,2.24,23.92-3.79a2.09,2.09,0,0,0-1.08-3.67C49.41,433.38,42.82,434.47,29.87,441.26Zm3.72-24.6c2.81,1.79,14.83,8.81,22.6,2.19a2,2,0,0,0,.18-2.78C54.36,413.81,48.81,411.34,33.59,416.66Zm13.66-20.74a18.87,18.87,0,0,0,5.8,7.65l.09.07c5.31,4.27,9.1,4.7,11.35,4.3a2.7,2.7,0,0,0,2.27-2.65,7.2,7.2,0,0,0-2.58-5.61C61.88,397.67,57.1,395.68,47.25,395.92Zm29.53-19a17.62,17.62,0,0,0-4.37,8.31l-.12.54s-.63,5.33,1.56,8.76a5,5,0,0,0,4,2.33,5.34,5.34,0,0,0,4.46-2.11c2.21-2.88,2-7-.73-12A19.73,19.73,0,0,0,76.78,376.88Z" fill="#0071f2"/><g opacity="0.2"><path d="M416.09,351.91c-3.48-9-13.52-25.18-40.56-23.94H250.42s-22.41.33-33.79,18.22a34.24,34.24,0,0,0-3.22,6.47h-1.85s8.56-29.59,36.9-30.81l134.4-1S413.65,323.57,416.09,351.91Z"/></g><polygon points="745.47 305 688.29 322.59 651.88 417.89 714.44 393.94 745.47 305" fill="#4cbd98"/><polygon points="685.36 319.9 688.29 322.59 745.47 305 747.18 300.6 685.36 319.9" fill="#0e9a6c"/><polygon points="685.36 319.9 662.65 378.47 649.93 411.29 616.21 399.07 613.3 403.32 651.88 417.89 688.29 322.59 685.36 319.9" fill="#2ea67f"/><polygon points="653.84 376.1 621.82 391.95 616.21 399.07 649.93 411.29 662.88 378.06 653.84 376.1" fill="#aaebd6"/><path d="M663.37,376.1l-.73,2-8.8-2L643.58,382l-23.22-1.71L621.82,392l.74,5.9L580.78,422c-28.89,11.86-41.36-.23-46.75-13.23A59.9,59.9,0,0,1,530,387.59c-4.39-43.25-2-65.73-2-65.73-.25-19.06,40.81-37.51,40.81-37.51l28.31,1.91A61.19,61.19,0,0,1,620.61,305c10.75,14.66,1,64.75,1,64.75Z" fill="#0071f2"/><g opacity="0.2"><path d="M622.56,397.85,580.78,422c-28.89,11.86-41.36-.23-46.75-13.23,13.3,15.69,30.38,7.61,30.38,7.61L621.82,392Z"/></g><g opacity="0.2"><path d="M536.55,309.89s16.62-7.09,20,11c0,0,1.46,4.4,3.42,34.94,0,0,.18,18.38,4.44,27.95a5.34,5.34,0,0,0,5.53,3.16l44.52-5.45-37.14.46a5.43,5.43,0,0,1-3.74-1.41c-3.41-3.08-10.66-11.33-12.15-26.91L559,326.5S560,300.36,536.55,309.89Z"/></g><g opacity="0.2"><path d="M571.74,366.82l31.27-.25s15.15-6.84,10.51-28.34c0,0,1.47,14.66-10.26,18.57Z" fill="#fff"/></g><path d="M568.81,258.57h28.1a0,0,0,0,1,0,0v28a11.8,11.8,0,0,1-11.8,11.8h-4.49a11.8,11.8,0,0,1-11.8-11.8v-28a0,0,0,0,1,0,0Z" fill="#f5b8ae"/><path d="M574.85,272.07s4.9,17.44,22.27,14.19L596.9,276Z" fill="#f39997"/><path d="M538.7,253.32s-25.12,3.79-21.7-15.76c0,0-.73-4.4,12-12,0,0,8.06-4.89,7.57-13.44,0,0-1.23-23.71,19.3-23.71.74,0,13.44-.24,14.91,16.38Z" fill="#63283a"/><g opacity="0.2"><path d="M538.7,253.32s-25.12,3.79-21.7-15.76c0,0-.73-4.4,12-12,0,0,8.06-4.89,7.57-13.44,0,0-1.23-23.71,19.3-23.71.74,0,13.44-.24,14.91,16.38Z"/></g><path d="M588.71,212.88h6.37a16.73,16.73,0,0,1,16.73,16.73v32a19.91,19.91,0,0,1-19.91,19.91h0A19.91,19.91,0,0,1,572,261.63v-32A16.73,16.73,0,0,1,588.71,212.88Z" fill="#f5b8ae"/><path d="M602.16,219.13a7.31,7.31,0,0,0-12.1,4.75s-3.61,24.77-18,27.17l0,10.58s-2.44,15.27-15.64,13.31c0,0-20.52-1.71-17.35-22.72,0,0-.73-39.1,21.75-46.43,0,0,16.37-8.79,28.83,1.71,0,0,3.18,3.91,7.34,0s14.41-3.17,19.05,4.89a27.29,27.29,0,0,1,1.92,8.84,22.75,22.75,0,0,1-1,8.91,7.55,7.55,0,0,0,1.31,6.93s12,18.82-6.59,20.53v-20a13.57,13.57,0,0,0-.72-4.37C609.65,229.65,606.86,222.84,602.16,219.13Z" fill="#63283a"/><path d="M590.22,208.18l-.64-.68c-3.91,0-8.37,3.51-8.37,3.51-7.69,6.42-10.58,17.38-11.52,22.2a4.36,4.36,0,0,0-.52-.05c-5.6,0-10.14,7.77-10.14,17.35s4.54,17.35,10.14,17.35,10.14-7.77,10.14-17.35c0-8.41-3.5-15.42-8.14-17C575.12,211.64,590.22,208.18,590.22,208.18Z" fill="#0071f2"/><g opacity="0.2"><path d="M590.22,208.18l-.64-.68c-3.91,0-8.37,3.51-8.37,3.51-7.69,6.42-10.58,17.38-11.52,22.2a4.36,4.36,0,0,0-.52-.05c-5.6,0-10.14,7.77-10.14,17.35s4.54,17.35,10.14,17.35,10.14-7.77,10.14-17.35c0-8.41-3.5-15.42-8.14-17C575.12,211.64,590.22,208.18,590.22,208.18Z"/></g><path d="M620.12,379.28l1.7,12.67,9.76,1.33a5.79,5.79,0,0,0,2.45-.17l7.87-2.25a4,4,0,0,1,2.36,0l6,1.94a1.61,1.61,0,0,0,1.82-.61h0a1.61,1.61,0,0,0-.54-2.33l-4.72-2.6a5.15,5.15,0,0,0-1.7-.6l-3.25-.58s-.25-2.69,5.62-1.71l5.36.77a1.76,1.76,0,0,0,1.92-1.21h0a1.75,1.75,0,0,0-1.27-2.21c-2.87-.67-8.61-1.78-13.34-1.26,0,0-.25-2.44,3.42-2.2l11,.21a2.18,2.18,0,0,0,2.22-2.18h0a2.18,2.18,0,0,0-2.18-2.18h-10l1.71-2.69,9.44.24a1,1,0,0,0,.64-.23,4.12,4.12,0,0,0,1.45-2.36,1,1,0,0,0-.92-1.09l-9.39-.18a6.91,6.91,0,0,0-4.37,1.45l-4,3.12a11.7,11.7,0,0,1-3.56,1.88Z" fill="#f5b8ae"/><path d="M589.58,207.5a13.74,13.74,0,0,0-2.19-1.57c-17.64-.74-20.33,21.67-20.72,27-5.46.28-9.84,7.92-9.84,17.33,0,9.58,4.54,17.34,10.14,17.34s10.14-7.76,10.14-17.34c0-8-3.14-14.68-7.43-16.71C575,207.52,589.58,207.5,589.58,207.5Z" fill="#0071f2"/></svg>