<?xml version="1.0" encoding="UTF-8"?>
<svg xmlns="http://www.w3.org/2000/svg" xmlns:xlink="http://www.w3.org/1999/xlink" id="a" viewBox="0 0 865.76 682.89">
  <defs>
    <clipPath id="b">
      <path d="M563.92,301.43c-1.36,5.58,.97,11.23,4.47,15.59,2.04,2.56,5.21,4.36,6.87,7.17,1.57,2.64,1.2,5.96-.16,8.58-3.01,5.81-10.26,8.08-15.93,10.41-8.73,3.59-20.41,9.92-18.72,21.25,.79,5.29,4.49,10.01,8.35,13.53,4.31,3.94,9.46,6.84,14.8,9.18,6.17,2.7,13.53,4.5,15.31,11.95,1.6,6.65-.2,10.36-4.29,15.33,0,0,1.45,1.01,1.64,.9,2.75-1.69,6.96-5.58,9.11-7.94,4.62-4.77,7.53-10.54,4.42-17.43-1.82-4.04-5.12-7.15-7.58-10.78-3.18-4.71-3.73-9.76-.09-14.41,3.76-4.81,9.62-7.14,14.17-11.07,4.28-3.71,6.26-8.52,5.69-14.19-.49-4.89-2.55-9.6-5.69-13.4-3.59-4.35-8.35-6.72-13.47-8.83-5.78-2.39-12.68-5.42-14.26-12.14-1.54-6.57,2.33-12.72,5.94-17.81,.13-.18-.14-.4-.29-.25-4.19,4.1-8.84,8.43-10.28,14.35Z" fill="none"></path>
    </clipPath>
  </defs>
  <g>
    <g>
      <rect y="501.93" width="865.76" height="180.96" fill="#fff"></rect>
      <path d="M866.26,683.39H-.5v-181.96H866.26v181.96ZM.5,682.39H865.26v-179.96H.5v179.96Z" fill="#253238"></path>
    </g>
    <g>
      <path d="M596.7,359.95c1.45-8.54,.94-17.31-1.5-25.62l-7.25-24.65c-.38-1.84-.7-3.65-.95-5.42-4.67-32.81,11.73-52.94,11.73-52.94-4.71-48.11,3.49-66.79,3.49-66.79l15.58-4.25,48.07,32.19,61.01-30.46,14.56,5.49s-27.26,35.3-11,69.4l25.83,120.19,12.61,124.83h-196.4l24.22-141.98Z" fill="#ffcb9a"></path>
      <path d="M769.43,502.43h-197.54l24.32-142.56c1.43-8.42,.92-17.2-1.49-25.39l-7.25-24.65c-.39-1.88-.71-3.71-.96-5.49-4.43-31.09,10.17-51.15,11.71-53.16-4.63-47.54,3.47-66.65,3.55-66.84l.1-.22,16.03-4.37,48.02,32.15,60.94-30.43,15.4,5.81-.41,.54c-.27,.35-26.88,35.45-10.94,68.88l.04,.11,25.83,120.19,12.68,125.43Zm-196.36-1h195.25l-12.56-124.28-25.81-120.08c-15.06-31.68,7.37-64.73,10.68-69.33l-13.74-5.18-61.07,30.49-48.12-32.22-15.12,4.12c-.87,2.22-7.74,21.64-3.37,66.32l.02,.2-.13,.16c-.16,.2-16.21,20.36-11.62,52.56,.25,1.76,.57,3.57,.94,5.39l7.24,24.61c2.45,8.34,2.97,17.28,1.52,25.84l-24.12,141.39Z" fill="#253238"></path>
    </g>
    <g>
      <path d="M657.82,399.99c-14.39,0-26.06,5.22-26.06,11.67s11.67,11.67,26.06,11.67,26.06-5.22,26.06-11.67-11.67-11.67-26.06-11.67Zm-3.13,20.08c-6.92,0-12.53-2.75-12.53-6.15s5.61-6.15,12.53-6.15,12.53,2.75,12.53,6.15-5.61,6.15-12.53,6.15Z" fill="#9dddb6"></path>
      <path d="M657.82,423.83c-14.89,0-26.56-5.35-26.56-12.17s11.67-12.17,26.56-12.17,26.56,5.35,26.56,12.17-11.67,12.17-26.56,12.17Zm0-23.34c-14.09,0-25.56,5.01-25.56,11.17s11.47,11.17,25.56,11.17,25.56-5.01,25.56-11.17-11.47-11.17-25.56-11.17Zm-3.13,20.08c-7.31,0-13.03-2.92-13.03-6.65s5.72-6.65,13.03-6.65,13.03,2.92,13.03,6.65-5.72,6.65-13.03,6.65Zm0-12.31c-6.52,0-12.03,2.59-12.03,5.65s5.51,5.65,12.03,5.65,12.03-2.59,12.03-5.65-5.51-5.65-12.03-5.65Z" fill="#253238"></path>
    </g>
    <g>
      <path d="M573.04,344.94c-2.8,1.49-5.96,.99-8.42,.1-1.99-.71-3.83-1.8-5.45-3.15l-28.65-23.79c-3.34-2.77-6.41-5.87-9.11-9.27-6.61-8.29-5.4-10.45-5.4-10.45,0,0,35.6,18.52,57.03,46.54Z" fill="#9dddb6"></path>
      <path d="M569.06,346.39c-1.44,0-2.98-.29-4.6-.87-1.98-.71-3.87-1.8-5.6-3.24l-28.65-23.78c-3.41-2.83-6.5-5.97-9.18-9.34-6.49-8.14-5.67-10.59-5.45-11l.24-.42,.43,.22c.36,.19,35.94,18.89,57.2,46.68l.36,.47-.52,.28c-1.25,.67-2.67,1-4.22,1Zm-52.62-47.19c.11,1.05,.91,3.75,5.37,9.34,2.64,3.31,5.68,6.41,9.04,9.19l28.65,23.79c1.64,1.37,3.43,2.4,5.3,3.06,2.88,1.03,5.39,1.09,7.48,.18-19.56-25.28-50.92-42.9-55.83-45.57Z" fill="#253238"></path>
    </g>
    <g>
      <path d="M527.82,305.36l-81.31,157.66s-4.57,9.46-12.65,16.69c0,0-22.53,17.43-17.22,21.04,0,0,2,1.49,7.27,0,0,0-4.72,7.01,2.93,4.46,0,0,8.08-2.98,33.37-19.56,0,0,8.7-5.73,12.94,.53,.5,.73,1,1.45,1.58,2.12,2.21,2.57,7.24,7.81,11.33,7.48,1.41-.11,2.37-1.48,2.06-2.86-.2-.88-.64-2.07-1.55-3.66,0,0-6.75-10.07-2.95-16.94l83.73-141.14-16.58-30.47-22.95,4.63Z" fill="#fff"></path>
      <path d="M424.12,506.28c-.84,0-1.43-.24-1.8-.72-.79-1.04-.07-2.86,.54-4.02-4.58,1.02-6.44-.32-6.53-.38-.63-.43-.99-1.08-1.01-1.88-.17-5.67,17.47-19.38,18.22-19.96,7.88-7.05,12.46-16.42,12.5-16.51l81.43-157.89,23.55-4.75,16.89,31.04-.15,.24-83.73,141.14c-3.59,6.5,2.87,16.3,2.94,16.4,.84,1.49,1.38,2.77,1.62,3.83,.18,.82,0,1.67-.49,2.34-.48,.65-1.21,1.06-2.01,1.13-4.19,.36-9.16-4.65-11.75-7.65-.61-.71-1.14-1.46-1.62-2.17-3.92-5.79-12.17-.45-12.25-.39-25.06,16.42-33.14,19.49-33.48,19.61-1.17,.39-2.13,.59-2.89,.59Zm.96-6.37l-.76,1.13c-.81,1.21-1.72,3.23-1.2,3.92,.18,.23,.88,.68,3.56-.21,.07-.02,8.34-3.17,33.26-19.5,.09-.06,9.16-5.93,13.63,.67,.46,.68,.97,1.4,1.55,2.08,1.98,2.3,7,7.61,10.91,7.31,.52-.04,.98-.3,1.29-.73,.32-.44,.44-1,.32-1.53-.22-.97-.72-2.15-1.5-3.52-.26-.39-6.85-10.38-2.95-17.42l83.59-140.91-16.27-29.89-22.35,4.51-81.2,157.45c-.04,.08-4.7,9.62-12.76,16.83-5.03,3.89-17.99,14.88-17.86,19.16,.01,.48,.2,.83,.59,1.09,.03,.02,1.95,1.32,6.85-.07l1.31-.37Z" fill="#253238"></path>
    </g>
    <path d="M423.91,501.26c-.14,0-.29-.06-.39-.18-.17-.21-.14-.53,.07-.7l26.11-21.26c.21-.17,.53-.14,.7,.07,.17,.21,.14,.53-.07,.7l-26.11,21.26c-.09,.08-.2,.11-.32,.11Z" fill="#253238"></path>
    <g>
      <path d="M471.89,399.99c-14.39,0-26.06,5.22-26.06,11.67s11.67,11.67,26.06,11.67,26.06-5.22,26.06-11.67-11.67-11.67-26.06-11.67Zm3.13,15.57c-6.92,0-12.53-2.75-12.53-6.15s5.61-6.15,12.53-6.15,12.53,2.75,12.53,6.15-5.61,6.15-12.53,6.15Z" fill="#9dddb6"></path>
      <path d="M471.89,423.83c-14.89,0-26.56-5.35-26.56-12.17s11.67-12.17,26.56-12.17,26.56,5.35,26.56,12.17-11.67,12.17-26.56,12.17Zm0-23.34c-14.09,0-25.56,5.01-25.56,11.17s11.47,11.17,25.56,11.17,25.56-5.01,25.56-11.17-11.47-11.17-25.56-11.17Zm3.13,15.57c-7.31,0-13.03-2.92-13.03-6.65s5.72-6.65,13.03-6.65,13.03,2.92,13.03,6.65-5.72,6.65-13.03,6.65Zm0-12.31c-6.52,0-12.03,2.59-12.03,5.65s5.51,5.65,12.03,5.65,12.03-2.59,12.03-5.65-5.51-5.65-12.03-5.65Z" fill="#253238"></path>
    </g>
    <g>
      <polygon points="369.84 573.39 84.75 573.39 94.8 501.93 360.55 501.93 369.84 573.39" fill="#fff"></polygon>
      <path d="M370.41,573.89H84.18l10.18-72.47H360.98l9.43,72.47Zm-285.09-1H369.28l-9.17-70.47H95.23l-9.9,70.47Z" fill="#253238"></path>
    </g>
    <g>
      <rect x="84.75" y="573.39" width="285.09" height="10.88" fill="#ffcb9a"></rect>
      <path d="M370.35,584.77H84.25v-11.88H370.35v11.88Zm-285.09-1H369.35v-9.88H85.25v9.88Z" fill="#253238"></path>
    </g>
    <g>
      <path d="M351.31,553.9h0c-2.66,0-4.88-2.04-5.09-4.7l-2.55-31.69c-.23-2.81,1.99-5.21,4.81-5.21h0c2.48,0,4.56,1.88,4.8,4.35l3.11,31.64c.3,3-2.06,5.61-5.08,5.61Z" fill="#fff"></path>
      <path d="M351.31,554.4c-2.9,0-5.36-2.27-5.59-5.16l-2.55-31.69c-.12-1.48,.39-2.95,1.39-4.04,1.01-1.09,2.43-1.71,3.91-1.71,2.75,0,5.03,2.07,5.3,4.8l3.11,31.64c.15,1.57-.37,3.14-1.43,4.32-1.06,1.17-2.58,1.84-4.16,1.84Zm-2.83-41.6c-1.22,0-2.35,.49-3.18,1.39-.83,.9-1.23,2.06-1.13,3.28l2.55,31.69c.19,2.38,2.21,4.24,4.59,4.24,1.3,0,2.54-.55,3.42-1.51s1.3-2.25,1.17-3.55l-3.11-31.64c-.22-2.22-2.07-3.9-4.3-3.9Z" fill="#253238"></path>
    </g>
    <g>
      <path d="M320.55,501.92H122.9c-.67,0-1.16-.62-1.01-1.27l20.76-91.31,12.71-58.02c.01-.05,.02-.1,.02-.16l1.61-25.86s0-.04,0-.07c0-1.5-.18-57.35,13.97-86.99,1.21-2.53,1.89-5.28,1.96-8.08l1.71-68.7c.01-.56,.47-1.01,1.04-1.01h12.76c.55,0,1,.43,1.04,.97l3.05,48.52c.2,3.22,1.57,6.27,3.85,8.55,6.39,6.39,21.56,18.61,46.93,22.48,.02,0,.04,0,.06,0,.74,.07,15.58,1.34,29.57-5.6,4.67-2.32,8.18-6.45,9.77-11.41l14.35-44.96c.17-.54,.75-.85,1.3-.68l14.44,4.51c.54,.17,.85,.74,.69,1.29-1.68,5.65-10.06,34.3-11.75,48.96-.26,2.23-.06,4.48,.59,6.63,2.61,8.68,9.96,36.43,7.29,65.96,0,0-.67,4.95-1.16,7.88l-3.4,20.3s-.62,3.21-.64,5.86c0,.06,0,.12,.02,.19,.66,3.64,20.58,114.65,17.17,161.03-.04,.54-.49,.96-1.04,.96Z" fill="#9dddb6"></path>
      <path d="M320.55,502.42H122.9c-.47,0-.91-.21-1.2-.58-.29-.37-.4-.84-.3-1.3l20.76-91.31,12.71-58.02,1.63-25.94c0-2.37-.13-57.6,14.02-87.24,1.2-2.51,1.84-5.16,1.91-7.87l1.71-68.7c.02-.84,.7-1.5,1.54-1.5h12.75c.81,0,1.48,.63,1.54,1.44l3.05,48.52c.2,3.11,1.51,6.03,3.71,8.23,6.72,6.71,21.71,18.54,46.65,22.34,.65,.06,15.47,1.33,29.33-5.54,4.5-2.23,7.97-6.29,9.51-11.11l14.35-44.96c.26-.8,1.12-1.25,1.92-1l14.44,4.51c.8,.25,1.25,1.1,1.02,1.91-1.66,5.6-10.05,34.26-11.74,48.88-.25,2.17-.06,4.33,.57,6.43,2.4,7.97,10.01,36.29,7.31,66.15,0,.07-.67,5.01-1.16,7.92l-3.4,20.3s-.62,3.21-.63,5.78c.85,4.76,20.6,114.88,17.18,161.25-.06,.8-.73,1.42-1.53,1.42ZM175.67,160.97c-.29,0-.53,.23-.54,.53l-1.71,68.7c-.07,2.86-.75,5.64-2.01,8.28-14.06,29.43-13.93,84.44-13.92,86.77v.11s-1.62,25.85-1.62,25.85c0,.08-.02,.16-.03,.24l-12.71,58.02-20.76,91.31c-.04,.16,0,.33,.1,.46s.26,.2,.42,.2h197.66c.28,0,.52-.22,.54-.49,3.4-46.25-16.32-156.25-17.16-160.91-.02-.1-.02-.19-.02-.28,.01-2.65,.62-5.81,.65-5.94l3.4-20.29c.48-2.89,1.15-7.82,1.16-7.87,2.68-29.65-4.89-57.82-7.27-65.75-.67-2.23-.88-4.52-.61-6.83,1.7-14.71,10.1-43.44,11.77-49.05,.08-.28-.08-.58-.35-.67l-14.44-4.51c-.28-.08-.58,.07-.67,.35l-14.35,44.96c-1.62,5.09-5.28,9.35-10.02,11.71-14.11,7-29.2,5.71-29.84,5.65-25.32-3.86-40.5-15.83-47.3-22.63-2.37-2.37-3.79-5.52-4-8.87l-3.05-48.52c-.02-.28-.25-.5-.54-.5h-12.75Z" fill="#253238"></path>
    </g>
    <g>
      <ellipse cx="271.39" cy="497.44" rx="39.48" ry="28.14" fill="#fff080"></ellipse>
      <path d="M271.39,526.08c-22.05,0-39.98-12.85-39.98-28.64s17.94-28.64,39.98-28.64,39.98,12.85,39.98,28.64-17.94,28.64-39.98,28.64Zm0-56.28c-21.5,0-38.98,12.4-38.98,27.64s17.49,27.64,38.98,27.64,38.98-12.4,38.98-27.64-17.49-27.64-38.98-27.64Z" fill="#253238"></path>
    </g>
    <g>
      <path d="M211.51,453.71l48.04,8.18c1.76,.3,3.46,.89,5.01,1.77,3.21,1.83,7.98,5.53,8.81,11.59l-60.74-10.77-1.12-10.77Z" fill="#fff"></path>
      <path d="M273.96,475.86l-61.79-10.96-1.22-11.8,48.69,8.29c1.86,.32,3.6,.93,5.17,1.83,3.01,1.72,8.18,5.55,9.06,11.96l.09,.68Zm-60.87-11.81l59.67,10.58c-1.02-5.29-5.12-8.64-8.45-10.54-1.47-.84-3.1-1.42-4.84-1.71l-47.39-8.07,1.01,9.74Z" fill="#253238"></path>
    </g>
    <g>
      <path d="M156.99,325.28c-12.75-50.7-43.04-112.39-43.04-112.39,8.29-20.25,14.51-29.49,14.51-29.49,13.71-25.35,46.21-22.92,46.21-22.92l-1.73,69.25c-.07,2.9-.78,5.74-2.06,8.34-3.89,7.89-12.42,31.33-13.88,87.23Z" fill="#ffcb9a"></path>
      <path d="M157.39,328.94l-.89-3.53c-12.59-50.06-42.71-111.68-43.01-112.3l-.1-.2,.08-.21c8.21-20.06,14.49-29.49,14.56-29.58,13.68-25.3,46.33-23.17,46.66-23.14l.47,.04-1.74,69.72c-.07,2.98-.79,5.85-2.11,8.54-3.67,7.44-12.36,30.8-13.83,87.02l-.1,3.64Zm-42.9-116.07c1.88,3.85,29.4,60.82,42.1,108.87,1.75-53.88,10.21-76.57,13.83-83.91,1.26-2.56,1.94-5.29,2.01-8.13l1.72-68.76c-4.05-.16-32.76-.42-45.26,22.69-.09,.13-6.27,9.43-14.4,29.24Z" fill="#253238"></path>
    </g>
    <g>
      <path d="M297.36,178.05l-14.95,46.82c-1.33,4.15-4.17,7.68-8,9.76-14.76,8-31.08,6.37-31.08,6.37-24.76-3.77-39.81-15.49-46.47-22-2.6-2.54-4.15-5.97-4.38-9.61l-3.08-48.92h11.32c14.76-.87,22.24-8.78,22.24-8.78,7.31,10.23,49.29,14.48,49.29,14.48,.96,4.07,10.68,7.02,10.68,7.02l14.43,4.86Z" fill="#ffcb9a"></path>
      <path d="M246.88,241.63c-2.22,0-3.55-.12-3.6-.13-24.84-3.78-39.96-15.49-46.77-22.14-2.68-2.62-4.29-6.15-4.53-9.93l-3.11-49.45h11.86c14.34-.85,21.81-8.54,21.88-8.62l.42-.44,.35,.49c7.09,9.93,48.51,14.23,48.93,14.27l.35,.04,.08,.35c.73,3.11,7.71,5.85,10.34,6.65l14.91,5.02-15.1,47.29c-1.39,4.35-4.32,7.92-8.24,10.05-10.59,5.74-22.09,6.55-27.78,6.55Zm-56.95-80.66l3.05,48.39c.22,3.54,1.73,6.83,4.23,9.28,6.72,6.56,21.66,18.13,46.19,21.86,.14,.01,16.32,1.51,30.77-6.31,3.69-2,6.45-5.37,7.76-9.47l14.8-46.35-13.96-4.71c-.38-.12-9.48-2.92-10.91-7.03-4.21-.45-41.04-4.6-48.96-14.19-1.78,1.66-9.13,7.75-22.16,8.52h-10.82Z" fill="#253238"></path>
    </g>
    <g>
      <path d="M147.84,294.8l-5.2,16.93s12.91,24.87,14.35,13.55c0,0-5.46-20.02-9.15-30.48Z" fill="#ffcb9a"></path>
      <path d="M155.19,328.73c-4.07,0-11.51-13.92-12.99-16.77l-.09-.18,5.71-18.58,.5,1.43c3.65,10.36,9.1,30.32,9.16,30.52l.03,.1v.1c-.28,2.07-.93,3.17-2.02,3.36-.1,.02-.19,.03-.29,.03Zm-12.01-17.05c3.4,6.52,9.61,16.49,12.13,16.04,.56-.1,.98-.95,1.17-2.41-.4-1.45-5.13-18.68-8.61-28.91l-4.69,15.27Z" fill="#253238"></path>
    </g>
    <path d="M153.74,291.21c-.22,0-.42-.15-.48-.37-8.3-30.8-33.98-87.29-34.24-87.86-.11-.25,0-.55,.25-.66,.25-.11,.55,0,.66,.25,.26,.57,25.98,57.13,34.3,88.01,.07,.27-.09,.54-.35,.61-.04,.01-.09,.02-.13,.02Z" fill="#253238"></path>
    <g>
      <path d="M313.76,183.18l13.87,4.96s9.37,3.22,17,20.03c0,0,10.46,23.48,13.44,46.54,0,0-32.52,30.08-47.72,67.7l-5.31,11.48,3.4-20.3s6.73-28.46-6.19-73.8c-.55-1.92-.74-3.93-.52-5.92,.17-1.58,.37-3.19,.6-4.82,1.06-7.49,2.59-14.34,4.34-20.47,2.36-8.47,4.73-16.93,7.09-25.4Z" fill="#ffcb9a"></path>
      <path d="M303.93,337.47l4.02-23.96c.07-.32,6.56-28.91-6.18-73.58-.58-2.03-.76-4.09-.54-6.11,.17-1.61,.38-3.24,.6-4.84,.97-6.9,2.44-13.81,4.35-20.54l7.24-25.91,14.38,5.14c.39,.13,9.66,3.48,17.29,20.29,.11,.24,10.53,23.81,13.48,46.68l.03,.26-.19,.18c-.33,.3-32.62,30.44-47.6,67.52l-6.89,14.87Zm10.17-153.64l-6.95,24.88c-1.9,6.69-3.36,13.56-4.33,20.41-.22,1.59-.43,3.21-.6,4.81-.21,1.9-.04,3.83,.51,5.73,12.81,44.94,6.26,73.76,6.19,74.05l-2.78,16.6,3.75-8.11c14.46-35.79,44.95-65.13,47.65-67.68-2.98-22.64-13.26-45.92-13.37-46.15-7.43-16.38-16.61-19.73-16.7-19.76l-13.37-4.78Z" fill="#253238"></path>
    </g>
    <path d="M310.19,292.52c-.1,0-.21-.03-.3-.1-.22-.16-.27-.48-.11-.7,18.57-25.25,43.13-48.72,43.37-48.96,.2-.19,.52-.18,.71,.02,.19,.2,.18,.52-.02,.71-.25,.23-24.74,23.65-43.26,48.83-.1,.13-.25,.2-.4,.2Z" fill="#253238"></path>
    <g>
      <path d="M315.3,311.55l4.09,10.23s-10.1,13.07-14.99,18.07c0,0-.03-1.97,.64-5.95,0,0,3.79-8.2,10.26-22.35Z" fill="#ffcb9a"></path>
      <path d="M303.92,341.05l-.02-1.2c0-.08-.02-2.06,.64-6.04l.04-.13s3.79-8.2,10.26-22.34l.49-1.06,4.63,11.58-.17,.23c-.1,.13-10.17,13.15-15.02,18.11l-.84,.86Zm1.6-7.01c-.34,2.03-.49,3.52-.56,4.49,4.67-5.04,12.58-15.19,13.86-16.83l-3.55-8.88c-5.85,12.81-9.4,20.47-9.75,21.22Z" fill="#253238"></path>
    </g>
    <g>
      <path d="M358.08,254.71s.74,1.38-.93,7.04l-1.34-4.85,2.27-2.19Z" fill="#ffcb9a"></path>
      <path d="M357.13,263.57l-1.89-6.82,2.96-2.86,.31,.58c.09,.16,.79,1.73-.89,7.42l-.5,1.68Zm-.76-6.51l.78,2.8c.52-2.12,.61-3.4,.59-4.13l-1.37,1.32Z" fill="#253238"></path>
    </g>
    <path d="M262.05,181.18c-.23,0-.43-.15-.49-.38-.06-.27,.1-.54,.37-.6,.13-.03,12.6-3.05,18.54-6.17,.24-.13,.55-.03,.67,.21,.13,.24,.04,.55-.21,.68-6.04,3.18-18.25,6.14-18.77,6.26-.04,0-.08,.01-.12,.01Z" fill="#253238"></path>
    <path d="M231.91,176.56s-.1,0-.15-.02c-21.18-6.48-37.39-15.54-37.55-15.63-.24-.14-.33-.44-.19-.68,.14-.24,.44-.33,.68-.19,.16,.09,16.29,9.1,37.36,15.55,.26,.08,.41,.36,.33,.62-.07,.22-.26,.35-.48,.35Z" fill="#253238"></path>
    <g>
      <rect x="161.7" y="449.54" width="56.43" height="12.8" rx="6.4" ry="6.4" transform="translate(92.6 -28.29) rotate(11.25)" fill="#fff080"></rect>
      <path d="M211.32,467.09c-.45,0-.91-.04-1.36-.13l-42.79-8.51c-1.81-.36-3.37-1.4-4.39-2.93-1.02-1.53-1.39-3.37-1.03-5.18,.74-3.73,4.38-6.17,8.11-5.42l42.79,8.51c1.81,.36,3.37,1.4,4.39,2.93,1.02,1.53,1.39,3.37,1.03,5.18s-1.4,3.37-2.93,4.39c-1.15,.77-2.47,1.17-3.82,1.17Zm-1.17-1.12c1.55,.31,3.12,0,4.43-.88,1.31-.88,2.2-2.21,2.51-3.75,.31-1.54,0-3.12-.88-4.43-.88-1.31-2.21-2.2-3.75-2.51l-42.79-8.51c-3.19-.64-6.3,1.45-6.94,4.64-.31,1.55,0,3.12,.88,4.43,.88,1.31,2.21,2.2,3.75,2.51l42.79,8.51Z" fill="#253238"></path>
    </g>
    <g>
      <path d="M136.45,404.15s-20.64,46.91-9.98,76.37l15.8-69.51-5.82-6.85Z" fill="#ffcb9a"></path>
      <path d="M126.57,482.29l-.58-1.6c-10.61-29.31,9.78-76.27,9.99-76.74l.32-.73,6.5,7.65-.06,.24-16.18,71.18Zm10.01-77.2c-2.5,5.97-18.71,46.62-10.22,73.58l15.35-67.54-5.14-6.04Z" fill="#253238"></path>
    </g>
    <g>
      <path d="M701.39,173.63c-32.3,30.53-64.4,1.18-64.4,1.18,.19-.1,.38-.2,.55-.3,3.72-2.1,6.46-5.58,7.83-9.62l3.46-10.25c2.62,1.03,5.44,1.66,8.4,1.81,13.77,.7,25.64-9.16,27.73-22.49l.21-.12-.71,13.19,.71,10.44c1.7,7.29,16.22,16.15,16.22,16.15Z" fill="#fff"></path>
      <path d="M669.69,187.93c-18.76,0-32.82-12.56-33.03-12.75l-.53-.49,.64-.33c.18-.09,.36-.19,.54-.29,3.54-2,6.24-5.32,7.6-9.34l3.63-10.75,.49,.19c2.62,1.03,5.4,1.63,8.24,1.77,13.45,.69,25.13-8.8,27.21-22.07l.04-.24,1.21-.69-.76,14.11,.71,10.38c1.62,6.92,15.84,15.67,15.98,15.76l.56,.34-.47,.45c-11.09,10.49-22.22,13.94-32.05,13.94Zm-31.82-13.03c4.3,3.57,33.54,25.84,62.71-1.19-2.73-1.74-14.33-9.45-15.89-16.12l-.73-10.52,.47-8.75c-3.75,11.48-14.76,19.27-27.22,18.63-2.78-.14-5.49-.7-8.07-1.66l-3.3,9.76c-1.43,4.23-4.26,7.72-7.98,9.85Z" fill="#253238"></path>
    </g>
    <g>
      <path d="M726.88,182.01c-18.18,14.24-19.24,56.86-19.24,56.86-44.32,24.87-83.54,4.78-83.54,4.78-13.39-31.25-6.3-63.37-6.3-63.37l19.19-5.48s32.1,29.35,64.4-1.18l25.49,8.38Z" fill="#9dddb6"></path>
      <path d="M661.04,251.75c-21.84,0-36.92-7.52-37.16-7.64l-.16-.08-.07-.17c-13.3-31.04-6.4-63.35-6.33-63.68l.06-.29,19.74-5.64,.21,.19c.32,.29,32.14,28.67,63.72-1.17l.22-.2,26.66,8.77-.74,.58c-17.78,13.93-19.04,56.06-19.05,56.48v.28s-.25,.14-.25,.14c-16.93,9.5-33.21,12.44-46.85,12.44Zm-36.55-8.46c2.77,1.33,40.61,18.73,82.66-4.71,.13-4.01,1.8-42.12,18.71-56.38l-24.33-8.01c-30.83,28.87-61.79,3.63-64.65,1.17l-18.63,5.32c-.65,3.27-6.15,33.49,6.26,62.61Z" fill="#253238"></path>
    </g>
    <g>
      <path d="M789.69,348.62h0c-.45-.55-31.5-38.27-66.13-32.75l6.89-58.97s-11.9-21,.13-49.4c0,0,4.15-11.17,10.87-20,0,0,36.05,11.51,39.9,29.27,0,0,10.7,102.09,8.35,131.84Z" fill="#9dddb6"></path>
      <path d="M790.06,350.28l-.81-1.42c-1.23-1.48-31.66-37.91-65.62-32.49l-.65,.1,6.95-59.47c-1.03-1.95-11.28-22.63,.18-49.69,.03-.09,4.24-11.32,10.94-20.11l.21-.28,.34,.11c1.48,.47,36.37,11.8,40.24,29.64,.12,1.08,10.69,102.53,8.36,131.99l-.13,1.62Zm-59.46-35.46c28.95,0,53.87,27,58.68,32.54,1.96-30.85-8.33-129.53-8.43-130.53-3.54-16.33-35.57-27.52-39.22-28.74-6.48,8.62-10.55,19.48-10.59,19.59-11.8,27.85-.28,48.77-.16,48.98l.08,.14-.02,.16-6.81,58.32c2.18-.31,4.34-.46,6.47-.46Z" fill="#253238"></path>
    </g>
    <g>
      <path d="M789.69,348.62c-.7,1.69-2.27,2.32-3.75,2.51-1.64,.21-3.31-.15-4.77-.93l-48.92-26.14c-2.29-1.22-4.41-2.73-6.29-4.52-3.04-2.9-2.41-3.66-2.41-3.66,34.64-5.52,65.68,32.19,66.13,32.74h0Z" fill="#9dddb6"></path>
      <path d="M784.99,351.69c-1.38,0-2.77-.36-4.07-1.05l-48.92-26.14c-2.38-1.27-4.53-2.82-6.4-4.59-2.94-2.8-2.79-3.92-2.44-4.34l.12-.14,.18-.03c34.53-5.51,65.3,31.34,66.6,32.91l.12,.21-.04,.3c-.65,1.58-2.08,2.55-4.15,2.81-.33,.04-.67,.06-1,.06Zm-60.96-35.38c.11,.37,.55,1.23,2.27,2.87,1.8,1.72,3.88,3.21,6.18,4.44l48.92,26.14c1.43,.76,2.98,1.07,4.47,.88,1.59-.2,2.68-.85,3.23-1.94-2.58-3.07-32.11-37.33-65.07-32.38Z" fill="#253238"></path>
    </g>
    <g>
      <path d="M598.73,251.32s-16.4,20.14-11.73,52.94l-13.95,40.68c-21.43-28.02-57.03-46.54-57.03-46.54l36.61-76.77c9.12-19.14,26.81-32.84,47.64-36.76,1.25-.24,1.96-.33,1.96-.33,0,0-8.2,18.68-3.49,66.79Z" fill="#9dddb6"></path>
      <path d="M573.21,345.99l-.57-.74c-21.12-27.61-56.51-46.22-56.86-46.4l-.43-.22,36.82-77.21c9.19-19.26,27.13-33.11,48-37.04,1.26-.24,1.99-.34,1.99-.34l.88-.12-.36,.82c-.08,.19-8.09,19.16-3.45,66.54l.02,.2-.13,.16c-.16,.2-16.21,20.36-11.62,52.56l.02,.12-14.29,41.68Zm-56.54-47.8c4.07,2.19,36.16,19.98,56.2,45.72l13.61-39.69c-4.37-31.02,10.19-51.03,11.73-53.04-4.09-42.08,1.78-61.88,3.24-66.01-.29,.05-.66,.12-1.09,.2-20.56,3.87-38.23,17.51-47.28,36.48l-36.4,76.34Z" fill="#253238"></path>
    </g>
    <g>
      <rect x="423.91" y="577.39" width="287.19" height="24.2" fill="#fff"></rect>
      <path d="M711.59,602.08H423.41v-25.2h288.19v25.2Zm-287.19-1h286.19v-23.2H424.41v23.2Z" fill="#253238"></path>
    </g>
    <g>
      <polygon points="711.09 577.39 423.91 577.39 438.79 505.95 696.96 505.95 711.09 577.39" fill="#fff"></polygon>
      <path d="M711.7,577.88H423.29l.13-.6,14.96-71.84h258.99l.08,.4,14.25,72.03Zm-287.18-1h285.96l-13.94-70.44H439.19l-14.67,70.44Z" fill="#253238"></path>
    </g>
    <g>
      <rect x="493.34" y="583.71" width="86.86" height="10.71" fill="#fff"></rect>
      <path d="M580.7,594.92h-87.87v-11.71h87.87v11.71Zm-86.87-1h85.87v-9.71h-85.87v9.71Z" fill="#253238"></path>
    </g>
    <g>
      <rect x="598.84" y="583.71" width="86.86" height="10.71" fill="#fff"></rect>
      <path d="M686.21,594.92h-87.87v-11.71h87.87v11.71Zm-86.87-1h85.87v-9.71h-85.87v9.71Z" fill="#253238"></path>
    </g>
    <g>
      <circle cx="440.29" cy="589.07" r="6.45" fill="#ffcb9a"></circle>
      <path d="M440.29,596.01c-3.83,0-6.95-3.12-6.95-6.95s3.12-6.95,6.95-6.95,6.95,3.12,6.95,6.95-3.12,6.95-6.95,6.95Zm0-12.89c-3.28,0-5.95,2.67-5.95,5.95s2.67,5.95,5.95,5.95,5.95-2.67,5.95-5.95-2.67-5.95-5.95-5.95Z" fill="#253238"></path>
    </g>
    <path d="M564.34,553.69c-39.42,0-71.5-11.17-71.5-24.89s32.07-24.89,71.5-24.89,71.5,11.17,71.5,24.89-32.07,24.89-71.5,24.89Zm0-48.79c-38.87,0-70.5,10.72-70.5,23.89s31.63,23.89,70.5,23.89,70.5-10.72,70.5-23.89-31.63-23.89-70.5-23.89Z" fill="#253238"></path>
    <path d="M564.34,545.36c-26.5,0-47.25-7.28-47.25-16.56s20.76-16.56,47.25-16.56,47.26,7.28,47.26,16.56-20.76,16.56-47.26,16.56Zm0-32.13c-25.5,0-46.25,6.98-46.25,15.56s20.75,15.56,46.25,15.56,46.26-6.98,46.26-15.56-20.75-15.56-46.26-15.56Z" fill="#253238"></path>
    <g>
      <rect x="670.42" y="517.1" width="17.19" height="7.54" rx="3.77" ry="3.77" fill="#fff"></rect>
      <path d="M683.83,525.13h-9.65c-2.35,0-4.27-1.92-4.27-4.27s1.91-4.27,4.27-4.27h9.65c2.35,0,4.27,1.91,4.27,4.27s-1.92,4.27-4.27,4.27Zm-9.65-7.54c-1.8,0-3.27,1.47-3.27,3.27s1.47,3.27,3.27,3.27h9.65c1.8,0,3.27-1.47,3.27-3.27s-1.47-3.27-3.27-3.27h-9.65Z" fill="#253238"></path>
    </g>
    <g>
      <rect x="668.89" y="533.16" width="22.69" height="7.54" rx="3.77" ry="3.77" fill="#fff"></rect>
      <path d="M687.8,541.19h-15.15c-2.35,0-4.27-1.91-4.27-4.27s1.92-4.27,4.27-4.27h15.15c2.35,0,4.27,1.92,4.27,4.27s-1.92,4.27-4.27,4.27Zm-15.15-7.54c-1.8,0-3.27,1.47-3.27,3.27s1.47,3.27,3.27,3.27h15.15c1.8,0,3.27-1.47,3.27-3.27s-1.47-3.27-3.27-3.27h-15.15Z" fill="#253238"></path>
    </g>
    <g>
      <rect x="667.67" y="550.15" width="25.99" height="7.54" rx="3.77" ry="3.77" fill="#fff"></rect>
      <path d="M689.89,558.19h-18.46c-2.35,0-4.27-1.92-4.27-4.27s1.91-4.27,4.27-4.27h18.46c2.35,0,4.27,1.91,4.27,4.27s-1.91,4.27-4.27,4.27Zm-18.46-7.54c-1.8,0-3.27,1.47-3.27,3.27s1.47,3.27,3.27,3.27h18.46c1.8,0,3.27-1.47,3.27-3.27s-1.47-3.27-3.27-3.27h-18.46Z" fill="#253238"></path>
    </g>
    <g>
      <path d="M647.14,410.35c-.03,.22-.07,.44-.1,.66,0,0,0,0,0,.01-1.03,3.17-9.39,6.05-22.48,8.22-15.19,2.52-36.77,4.09-60.71,4.09s-45.51-1.57-60.7-4.09c-12.8-2.12-21.07-4.92-22.4-8.01l-.19-.88c0-7.17,37.29-12.98,83.29-12.98s83.3,5.81,83.3,12.98Z" fill="#fff"></path>
      <path d="M563.85,423.83c-23.25,0-44.84-1.46-60.78-4.1-9.43-1.57-21.04-4.28-22.78-8.3l-.23-1.08c0-8.44,42.6-13.48,83.79-13.48s83.8,5.04,83.8,13.48v.08s-.18,.9-.18,.9c-1.58,4.08-13.25,6.82-22.82,8.41-15.94,2.64-37.53,4.1-60.79,4.1Zm-82.79-13.53l.18,.83c1.17,2.68,9.2,5.49,22,7.62,15.66,2.6,37.75,4.08,60.62,4.08s44.97-1.49,60.63-4.08c13.11-2.17,21.16-5.04,22.09-7.88l.08-.55c-.13-6.02-33.37-12.44-82.8-12.44s-82.61,6.42-82.79,12.43Z" fill="#253238"></path>
    </g>
    <path d="M647.51,411.16l-.97-.23,.1-.66,.99,.08c0,.27-.04,.55-.13,.81Z" fill="#ed1c24"></path>
    <g>
      <path d="M647.04,411.02c-5.89,37.17-11.79,74.34-17.68,111.5-.87,5.5-5.01,9.91-10.45,11.1-15.77,3.46-35.79,6.21-58.92,5.52-17.12-.52-32.25-2.8-44.92-5.62-5.18-1.15-9.23-5.2-10.34-10.39l-23.98-111.91c2.91,6.76,39,12.1,83.1,12.1,10.58,0,20.7-.31,30.01-.87,2.67-.16,5.27-.34,7.79-.54,25.81-2.05,43.83-6.14,45.38-10.9Z" fill="#9dddb6"></path>
      <path d="M567.17,539.76c-2.4,0-4.8-.04-7.2-.11-15.1-.46-30.25-2.35-45.02-5.63-5.36-1.19-9.57-5.42-10.72-10.77l-23.98-111.91,.95-.3c2.8,6.5,39.87,11.79,82.64,11.79,10.31,0,20.4-.29,29.98-.87,2.58-.15,5.2-.34,7.78-.54,25.89-2.06,43.53-6.2,44.95-10.56l.97,.23-17.68,111.5c-.91,5.75-5.16,10.27-10.84,11.51-17.05,3.75-34.46,5.64-51.84,5.64Zm-85.51-126.64l23.56,109.92c1.07,4.97,4.97,8.9,9.96,10,14.71,3.27,29.79,5.15,44.83,5.61,19.7,.6,39.47-1.26,58.8-5.5,5.27-1.16,9.22-5.35,10.06-10.69l17.36-109.5c-4.68,4.12-20.77,7.58-44.53,9.47-2.59,.21-5.22,.39-7.8,.54-9.6,.58-19.71,.87-30.04,.87-40.99,0-74.65-4.5-82.19-10.72Z" fill="#253238"></path>
    </g>
    <g>
      <path d="M624.56,419.24c-15.19,2.52-36.77,4.09-60.71,4.09s-45.51-1.57-60.7-4.09c4.86-4.3,30.19-7.58,60.71-7.58s55.84,3.28,60.71,7.58Z" fill="#fff080"></path>
      <path d="M563.85,423.83c-23.25,0-44.84-1.46-60.78-4.1l-1.04-.17,.79-.7c5.04-4.46,30.71-7.7,61.04-7.7s55.99,3.24,61.04,7.7l.79,.7-1.04,.17c-15.94,2.64-37.53,4.1-60.79,4.1Zm-59.42-4.89c15.58,2.48,37.13,3.89,59.42,3.89s43.85-1.41,59.43-3.89c-6.64-3.91-31.39-6.78-59.42-6.78s-52.78,2.87-59.42,6.78Z" fill="#253238"></path>
    </g>
    <g>
      <path d="M621.55,314.9l-19.9,107.02c-2.53,.2-5.13,.38-7.79,.54l20.28-108.94c.38-2.07,2.39-3.42,4.45-3h0c2.02,.41,3.34,2.36,2.96,4.38Z" fill="#253238"></path>
      <path d="M593.25,423l20.4-109.57c.21-1.13,.85-2.11,1.81-2.76,.96-.64,2.11-.87,3.23-.65,2.27,.46,3.78,2.68,3.35,4.96l-19.96,107.4-.38,.03c-2.59,.21-5.22,.39-7.8,.54l-.64,.04Zm24.59-112.06c-.64,0-1.27,.19-1.82,.56-.73,.49-1.22,1.24-1.38,2.11l-20.16,108.31c2.24-.14,4.51-.3,6.76-.47l19.83-106.64c.32-1.75-.83-3.45-2.57-3.8-.22-.04-.43-.07-.65-.07Z" fill="#253238"></path>
    </g>
    <g>
      <path d="M272.93,150.65l-.67,15.52s-41.98-4.26-49.29-14.48c0,0,13.61-17.94,17.18-30.82l32.78,29.78Z" fill="#fff"></path>
      <path d="M272.73,166.73l-.53-.05c-1.72-.17-42.29-4.4-49.64-14.69l-.21-.3,.22-.29c.14-.18,13.59-18.01,17.1-30.65l.22-.78,33.55,30.49-.71,16.29Zm-49.14-15.03c7.2,9.12,43.37,13.4,48.19,13.93l.64-14.76-32.01-29.09c-3.59,11.83-15.05,27.54-16.81,29.91Z" fill="#253238"></path>
    </g>
    <g>
      <path d="M272.5,160.47l.43-9.82-24.98-8.76s2.67,12.24,24.56,18.57Z" fill="#253238"></path>
      <path d="M272.97,161.13l-.61-.18c-21.92-6.35-24.79-18.44-24.91-18.95l-.19-.87,26.18,9.18-.47,10.82Zm-24.23-18.42c1.13,2.89,5.95,11.91,23.29,17.11l.38-8.81-23.67-8.3Z" fill="#253238"></path>
    </g>
    <g>
      <rect x="240.15" y="64.96" width="57.43" height="85.98" rx="28.72" ry="28.72" fill="#fff"></rect>
      <path d="M268.86,151.44c-16.11,0-29.22-13.11-29.22-29.22v-28.55c0-16.11,13.11-29.22,29.22-29.22s29.22,13.11,29.22,29.22v28.55c0,16.11-13.11,29.22-29.22,29.22Zm0-85.98c-15.56,0-28.22,12.66-28.22,28.22v28.55c0,15.56,12.66,28.22,28.22,28.22s28.22-12.66,28.22-28.22v-28.55c0-15.56-12.66-28.22-28.22-28.22Z" fill="#253238"></path>
    </g>
    <g>
      <path d="M291.38,75.86s-13.96,21.99-43.89,24.59l-7.35,20.42s-2.84,11.76-16.14,29.41l-36.12-7.94c-.39-.08-.5-.59-.17-.82,2.67-1.91,10.95-9.11,21.25-30.5,0,0,21.52-54.68,58.99-54.36,0,0,16.85,.25,29.58,14.97,1.09,1.26,1.8,2.79,2.04,4.43,.48,3.4,.71,10.15-1.98,20.72,0,0,1.46-11.83-6.2-20.92Z" fill="#fff"></path>
      <path d="M224.22,150.84l-36.44-8.01c-.37-.08-.66-.36-.74-.74-.08-.38,.07-.75,.38-.97,2.32-1.66,10.71-8.77,21.09-30.31,.2-.51,21.94-54.65,59.12-54.65,.11,0,.22,0,.33,0,.17,0,17.22,.42,29.95,15.14,1.17,1.35,1.91,2.97,2.15,4.69,.54,3.84,.64,10.59-1.99,20.91l-.98-.18c.01-.11,1.28-11.29-5.66-20.02-2.46,3.47-16.64,21.75-43.56,24.23l-7.24,20.12c-.01,.07-3,12.02-16.21,29.54l-.19,.26Zm43.41-93.69c-36.49,0-57.98,53.51-58.2,54.05-10.21,21.19-18.38,28.54-21.42,30.72l35.8,7.8c12.92-17.22,15.83-28.85,15.86-28.97l7.48-20.78,.32-.03c29.32-2.55,43.37-24.14,43.51-24.36l.37-.57,.44,.52c4.73,5.62,6.04,12.33,6.34,16.69,1.63-8.17,1.34-13.48,.96-16.1-.22-1.53-.88-2.98-1.92-4.18-12.43-14.37-29.04-14.79-29.21-14.79-.1,0-.21,0-.32,0Z" fill="#253238"></path>
    </g>
    <g>
      <ellipse cx="238.69" cy="107.39" rx="10.7" ry="13.58" transform="translate(-14.17 39.79) rotate(-9.26)" fill="#fff"></ellipse>
      <path d="M239.48,121.4c-2.49,0-4.95-1.02-7.06-2.95-2.49-2.28-4.19-5.57-4.79-9.26-.6-3.69-.03-7.35,1.61-10.3,1.66-2.99,4.21-4.91,7.19-5.39,2.97-.48,6,.52,8.53,2.83,2.49,2.28,4.19,5.57,4.79,9.26,.6,3.69,.03,7.35-1.61,10.3-1.66,2.99-4.21,4.91-7.19,5.39-.49,.08-.98,.12-1.47,.12Zm-1.6-27.03c-.44,0-.87,.04-1.3,.11-2.67,.43-4.97,2.17-6.47,4.89-1.53,2.76-2.06,6.19-1.49,9.66,.57,3.47,2.16,6.55,4.48,8.69,2.29,2.1,5.02,3.02,7.69,2.58,2.67-.43,4.97-2.17,6.47-4.89,1.53-2.76,2.06-6.19,1.49-9.66h0c-.57-3.47-2.16-6.55-4.48-8.68-1.92-1.76-4.15-2.69-6.39-2.69Z" fill="#253238"></path>
    </g>
    <g>
      <path d="M113.94,212.89l-24.45,97.62s-6.56,16.94,2.42,37.49c2.3,5.27,5.44,10.14,9.16,14.52l62.18,73.18s21.04,50.38,36.56,39.54c0,0,6.38,8.72,11.69,.64,0,0,3.61,5.95,9.57,4.36,0,0,3.72-.96,2.02-7.33,0,0,3.61,4.25,7.55,1.7,0,0,3.29-1.81-.74-12.44,0,0-5.1-15.52-21.36-33.9,0,0-12.44-14.88-21.15-23.38l-48.57-81.36,9.03-28.73s-19.55-54.33-33.9-81.91Z" fill="#fff"></path>
      <path d="M219.08,481.01c-3.9,0-6.57-2.95-7.57-4.26-1.47,1.98-3.15,3.01-5.01,3.06-3.23,.06-5.92-2.83-6.8-3.9-2.2,1.39-4.61,1.71-7.19,.96-14.01-4.07-28.73-38.6-29.7-40.91l-62.12-73.12c-3.88-4.56-6.99-9.49-9.24-14.65-8.96-20.51-2.5-37.7-2.43-37.87l24.75-98.84,.61,1.17c14.2,27.29,33.73,81.43,33.93,81.97l.06,.16-.05,.16-8.96,28.52,48.42,81.11c8.63,8.43,21.01,23.23,21.14,23.38,16.13,18.24,21.4,33.91,21.45,34.07,4.07,10.7,.89,12.82,.51,13.03-2.82,1.83-5.49,.43-6.97-.72,.3,1.9,.1,3.46-.6,4.64-.83,1.41-2.06,1.74-2.11,1.76-.74,.2-1.45,.29-2.12,.29Zm-7.55-6.06l.41,.67c.14,.23,3.5,5.61,9.01,4.13,.13-.04,3.2-.95,1.67-6.72l-.57-2.13,1.43,1.67c.14,.16,3.38,3.88,6.89,1.6,.05-.03,2.83-1.91-.94-11.84-.06-.18-5.27-15.66-21.27-33.75-.13-.16-12.53-14.97-21.12-23.36l-.08-.1-48.69-81.55,9.04-28.78c-1.17-3.22-19.48-53.68-33.21-80.51l-24.12,96.34c-.08,.23-6.4,17.06,2.39,37.17,2.21,5.07,5.27,9.91,9.08,14.4l62.23,73.24,.03,.07c.15,.36,15.36,36.42,29.09,40.41,2.46,.72,4.66,.36,6.73-1.09l.4-.28,.29,.39s2.88,3.87,6.16,3.87c.04,0,.07,0,.11,0,1.69-.04,3.24-1.12,4.61-3.21l.43-.66Z" fill="#253238"></path>
    </g>
    <path d="M138.81,324.03c-.09,0-.18-.02-.26-.07l-20.05-12.01c-.24-.14-.31-.45-.17-.69,.14-.24,.45-.31,.69-.17l20.05,12.01c.24,.14,.31,.45,.17,.69-.09,.16-.26,.24-.43,.24Z" fill="#253238"></path>
    <path d="M199.82,475.75c-.14,0-.28-.06-.38-.17-.07-.08-6.83-8.07-12.04-20.32-.11-.25,0-.55,.26-.66,.25-.11,.55,0,.66,.26,5.14,12.1,11.81,19.98,11.88,20.06,.18,.21,.16,.53-.05,.71-.09,.08-.21,.12-.33,.12Z" fill="#253238"></path>
    <path d="M211.51,476.39c-.17,0-.33-.09-.43-.24-.11-.17-10.61-17.5-16.08-24.79-.17-.22-.12-.53,.1-.7,.22-.16,.53-.12,.7,.1,5.5,7.33,16.03,24.69,16.13,24.87,.14,.24,.07,.54-.17,.69-.08,.05-.17,.07-.26,.07Z" fill="#253238"></path>
    <path d="M223.1,473.41c-.16,0-.32-.08-.41-.22l-17.37-25.55c-.16-.23-.1-.54,.13-.69,.23-.15,.54-.1,.69,.13l17.37,25.55c.16,.23,.1,.54-.13,.69-.09,.06-.18,.09-.28,.09Z" fill="#253238"></path>
    <g>
      <path d="M327.89,341.23l-49.1,106.14s-19.13,33.73-13.18,36.71c0,0,6.59,2.23,13.18-10.42,0,0,4.89-8.72,6.91-9.78,0,0,4.57,9.66,1.91,20.35,0,0-1.17,4.21-7.12,14.62,0,0-2.34,6.8,1.06,8.29,0,0,2.66,.74,6.8-2.34,0,0-1.38,4.36,1.81,4.78,0,0,3.53,.85,6.02-7.65,0,0,2.17,5.42,5.89,.74,0,0,2.44-2.55,4.25-7.86,0,0,3.19,7.55,7.01-2.76,0,0,8.02-18.33,5.79-39.22l49.05-100.23s8.72-17.01,3.19-37.62c-5.53-20.62-15.56-58.07-15.56-58.07,0,0-20.9,18.69-40.51,54.64l12.59,29.68Z" fill="#fff"></path>
      <path d="M290.43,510.1c-.22,0-.36-.03-.38-.04-.86-.11-1.54-.52-1.97-1.2-.56-.89-.57-2.06-.46-2.95-3.71,2.36-6.09,1.73-6.2,1.7-3.85-1.68-1.5-8.64-1.4-8.93,5.87-10.3,7.1-14.55,7.11-14.59,2.22-8.94-.75-17.25-1.65-19.44-1.74,1.55-5.03,7.07-6.26,9.25-6.7,12.87-13.49,10.74-13.78,10.64-.65-.32-1.06-.84-1.28-1.58-2.12-6.97,13.52-34.67,14.19-35.85l48.99-105.9-12.6-29.7,.12-.21c19.43-35.61,40.4-54.59,40.61-54.77l.61-.54,.21,.79s10.03,37.45,15.56,58.07c5.51,20.57-3.14,37.81-3.23,37.98l-48.98,100.09c2.17,20.72-5.77,39.14-5.85,39.33-1.41,3.81-2.92,5.69-4.58,5.73-1.32,.02-2.24-1.07-2.8-1.94-1.76,4.64-3.89,6.89-3.98,6.99-1.2,1.51-2.45,2.21-3.66,2.03-1.14-.17-1.97-1.08-2.47-1.84-2.11,6.28-4.87,6.9-5.87,6.9Zm-1.13-6.63l-.46,1.47s-.67,2.18,.09,3.38c.27,.43,.7,.67,1.31,.76,.07,.02,3.17,.54,5.47-7.3l.4-1.38,.54,1.34s.87,2.11,2.28,2.32c.84,.12,1.76-.45,2.75-1.7,.05-.06,2.43-2.58,4.17-7.71l.42-1.24,.51,1.21c.28,.66,1.25,2.36,2.38,2.36,0,0,.02,0,.03,0,.67-.02,2.04-.7,3.68-5.1,.09-.21,7.96-18.49,5.76-38.99l-.02-.14,.06-.13,49.05-100.22c.09-.18,8.57-17.09,3.15-37.28-5.05-18.84-13.86-51.73-15.34-57.27-3.55,3.36-22.22,21.79-39.68,53.74l12.58,29.66-.09,.2-49.1,106.14c-.18,.32-16.12,28.54-14.12,35.1,.14,.47,.38,.78,.71,.95h0s6.24,1.83,12.51-10.2c.51-.92,5.03-8.89,7.12-9.99l.46-.24,.22,.47c.19,.4,4.62,9.94,1.95,20.68-.05,.19-1.26,4.4-7.17,14.75h0s-2.11,6.3,.83,7.58c0,0,.17,.04,.57,.04,.94,0,2.99-.28,5.73-2.32l1.24-.92Z" fill="#253238"></path>
    </g>
    <path d="M327.89,341.73c-.12,0-.24-.04-.33-.13-.21-.18-.22-.5-.04-.71l13.92-15.53c.19-.21,.5-.22,.71-.04,.21,.18,.22,.5,.04,.71l-13.92,15.53c-.1,.11-.24,.17-.37,.17Z" fill="#253238"></path>
    <path d="M288.35,505.29c-.08,0-.15-.02-.23-.05-.25-.13-.34-.43-.22-.67,.1-.19,9.73-19.2,9.92-31.67,0-.27,.23-.49,.5-.49h0c.28,0,.5,.23,.49,.51-.19,12.7-9.62,31.32-10.03,32.1-.09,.17-.26,.27-.45,.27Z" fill="#253238"></path>
    <path d="M296.18,502.43c-.09,0-.17-.02-.25-.07-.24-.14-.32-.45-.18-.69,.1-.17,10.22-17.43,9.66-28.74-.01-.28,.2-.51,.47-.52,.28-.03,.51,.2,.52,.47,.57,11.61-9.38,28.58-9.8,29.29-.09,.16-.26,.25-.43,.25Z" fill="#253238"></path>
    <path d="M306.32,495.3c-.07,0-.14-.02-.21-.05-.25-.12-.36-.42-.24-.67,.05-.11,5.06-10.75,5.8-19.1,.02-.28,.28-.47,.54-.45,.28,.02,.48,.27,.45,.54-.76,8.52-5.84,19.33-5.89,19.44-.09,.18-.27,.29-.45,.29Z" fill="#253238"></path>
    <g>
      <path d="M686.4,108.02c0,.46-.01,.92-.03,1.38l-1.11,21.74c-.05,.96-.15,1.9-.29,2.82-2.09,13.32-13.96,23.19-27.73,22.49-2.96-.15-5.78-.78-8.4-1.81-10.39-4.08-17.51-14.45-16.91-26.22l1.11-21.74c.75-14.72,13.3-26.05,28.02-25.3,14.26,.73,25.34,12.52,25.34,26.64Z" fill="#fff"></path>
      <path d="M658.62,156.98c-.47,0-.94-.01-1.41-.04-2.95-.15-5.83-.77-8.56-1.84-10.9-4.27-17.82-15.01-17.22-26.71l1.11-21.74c.76-14.98,13.58-26.54,28.55-25.78,14.48,.74,25.81,12.66,25.81,27.14,0,.47-.01,.94-.03,1.41l-1.11,21.74c-.05,.98-.15,1.95-.3,2.87-2.09,13.3-13.49,22.94-26.84,22.94Zm1.06-75.13c-13.84,0-25.43,10.89-26.15,24.86l-1.11,21.74c-.57,11.27,6.09,21.61,16.59,25.73,2.62,1.03,5.4,1.63,8.24,1.77,13.45,.69,25.13-8.8,27.21-22.07,.14-.89,.24-1.82,.29-2.77l1.11-21.74c.02-.46,.03-.91,.03-1.36,0-13.95-10.92-25.43-24.87-26.14-.45-.02-.9-.03-1.35-.03Z" fill="#253238"></path>
    </g>
    <g>
      <path d="M675.79,65.5s-47.71-2.45-42.75,41.19c0,0,15.38-15.58,23.65-22.28,0,0,13.14,23.63,29.71,23.24l-1.94,39.39s35.85-15.56,23.44-45.89c0,0,17.53,6.3,24.82-15.76l2.09-7.09c2.44-8.29-.5-17.24-7.4-22.43-3-2.26-6.97-4.44-12.21-6.33,0,0-15.56-6.89-30.33,2.56,0,0-11.42,6.11-9.06,13.39Z" fill="#fff"></path>
      <path d="M683.92,147.82l1.96-39.67c-15.25-.09-27.26-19.45-29.33-22.98-8.26,6.79-23,21.72-23.15,21.87l-.73,.74-.12-1.04c-1.41-12.4,1.28-22.3,7.98-29.43,11.29-12.01,30.71-12.39,34.61-12.33-1.62-7.29,9.02-13.07,9.48-13.32,14.79-9.47,30.61-2.65,30.77-2.58,4.83,1.73,8.99,3.89,12.31,6.38,7.02,5.28,10.07,14.51,7.58,22.97l-2.09,7.09c-2.48,7.5-6.38,12.59-11.62,15.14-5.43,2.64-10.69,1.78-12.84,1.24,11.33,29.81-23.72,45.43-24.08,45.58l-.74,.32Zm3.01-40.69l-1.93,39.1c5.02-2.45,33.52-17.79,22.43-44.89l-.42-1.04,1.06,.38c.07,.02,6.55,2.28,13.08-.91,4.97-2.43,8.7-7.32,11.09-14.53l2.08-7.07c2.37-8.06-.53-16.86-7.22-21.89-3.24-2.44-7.31-4.54-12.08-6.25-.19-.08-15.53-6.68-29.89,2.51-.14,.08-11.06,6.01-8.85,12.82l.22,.69-.72-.04c-.23-.01-22.31-.98-34.51,12-6.31,6.71-8.94,15.99-7.83,27.59,3.18-3.2,15.79-15.77,22.95-21.57l.46-.37,.29,.52c.13,.23,12.97,22.98,28.87,22.98,.13,0,.26,0,.39,0h.54Z" fill="#253238"></path>
    </g>
    <path d="M699.82,92.39c-.11,0-.21-.03-.31-.1-15.46-11.94-24.07-26.39-24.15-26.53-.14-.24-.06-.54,.18-.68,.24-.14,.54-.06,.68,.18,.08,.14,8.61,14.44,23.9,26.25,.22,.17,.26,.48,.09,.7-.1,.13-.25,.19-.4,.19Z" fill="#253238"></path>
    <g>
      <ellipse cx="690.88" cy="114.19" rx="12.15" ry="8.85" transform="translate(367 735.03) rotate(-71.84)" fill="#fff"></ellipse>
      <path d="M689.17,126.56c-.76,0-1.51-.12-2.23-.36-2.4-.79-4.23-2.8-5.16-5.65-.91-2.8-.83-6.1,.22-9.28,1.04-3.18,2.93-5.88,5.32-7.6,2.44-1.76,5.1-2.29,7.5-1.5,2.4,.79,4.23,2.8,5.16,5.65,.91,2.8,.83,6.1-.22,9.28h0c-1.04,3.18-2.93,5.88-5.32,7.6-1.7,1.23-3.51,1.85-5.27,1.85Zm3.42-23.75c-1.55,0-3.16,.57-4.69,1.67-2.22,1.6-3.98,4.12-4.96,7.1-.98,2.98-1.05,6.06-.21,8.66,.82,2.55,2.43,4.32,4.52,5.01,2.09,.69,4.44,.2,6.61-1.36,2.22-1.6,3.98-4.12,4.96-7.1h0c.98-2.98,1.06-6.06,.21-8.66-.82-2.55-2.43-4.32-4.52-5.01-.62-.2-1.26-.3-1.92-.3Z" fill="#253238"></path>
    </g>
    <g>
      <path d="M648.84,154.64l-2.04,6.03s10.01,3.64,20.86-5.77c0,0-8.67,3.98-18.82-.26Z" fill="#253238"></path>
      <path d="M651.71,161.84c-3.09,0-5.04-.68-5.09-.7l-.46-.17,2.37-7.01,.49,.21c9.82,4.1,18.34,.31,18.42,.27l3.16-1.44-2.62,2.28c-6.21,5.39-12.22,6.56-16.27,6.56Zm-4.28-1.5c1.91,.5,9.35,1.89,17.66-4.05-3.32,.86-9.26,1.65-15.96-.99l-1.7,5.04Z" fill="#253238"></path>
    </g>
    <path d="M689.19,119.42c-.14,0-.29-.06-.38-.18-.18-.21-.15-.53,.06-.7,3.69-3.08,2.33-9.05,2.32-9.11-.06-.27,.1-.54,.37-.6,.27-.07,.54,.1,.6,.37,.06,.27,1.51,6.64-2.65,10.11-.09,.08-.21,.12-.32,.12Z" fill="#253238"></path>
    <g>
      <path d="M663.84,369.6s89.68,22.9,109.59,6.64c0,0,9.89-11.6,10.51-33.84,0,0-23.35-24.96-48.4-26.81l-5.35,4.14s-66.56,2.14-90.32,11.56c0,0-7.06,.43-20.33,15.2,0,0-35.08,31.86-27.07,38.3,0,0,2.24,2.12,5.66,0,0,0-3,6.01,.64,9.22,0,0,3.64,1.93,8.56-3,0,0,0,8.45,9.2,3.37,0,0,1.71,6.26,11.99,.7l35.32-25.47Z" fill="#fff"></path>
      <path d="M621.27,397.88c-.93,0-1.76-.16-2.51-.48-1.44-.61-2.16-1.67-2.48-2.33-2.99,1.55-5.36,1.84-7.05,.84-1.57-.92-2.11-2.7-2.3-3.85-4.75,4.23-8.25,2.45-8.4,2.38l-.1-.07c-2.86-2.52-1.99-6.52-1.28-8.55-3.03,1.17-5.02-.66-5.04-.68-.84-.67-1.31-1.66-1.34-2.91-.3-9.92,27.25-35.05,28.42-36.11,12.6-14.02,19.66-15.22,20.55-15.32,23.05-9.09,86.58-11.43,90.26-11.56l5.37-4.16h.19c24.95,1.86,48.49,26.73,48.72,26.98l.14,.15v.21c-.62,22.16-10.54,34.03-10.64,34.15-19.63,16.05-103.78-4.88-109.86-6.42l-35.13,25.33c-2.95,1.6-5.47,2.4-7.54,2.4Zm-4.42-4.25l.17,.61c.02,.06,.45,1.53,2.16,2.25,2.09,.88,5.24,.24,9.11-1.86l35.45-25.57,.23,.06c.89,.23,89.66,22.65,109.14,6.73,.03-.05,9.66-11.61,10.32-33.26-1.98-2.05-24.25-24.64-47.74-26.49l-5.33,4.12h-.16c-.66,.03-66.75,2.25-90.15,11.53l-.15,.03c-.07,0-7.08,.67-19.99,15.03-.32,.29-28.41,25.92-28.13,35.38,.03,.96,.36,1.67,1,2.19,.11,.1,2.05,1.85,5.08-.04l1.49-.93-.78,1.57c-.03,.06-2.75,5.65,.48,8.58,.44,.2,3.6,1.4,7.93-2.93l.85-.85v1.2s.03,2.95,1.92,4.06c1.45,.85,3.65,.47,6.55-1.12l.56-.31Z" fill="#253238"></path>
    </g>
    <g>
      <line x1="654.2" y1="367.24" x2="663.84" y2="369.6" fill="#fff"></line>
      <rect x="658.52" y="363.46" width="1" height="9.92" transform="translate(144.65 921.11) rotate(-76.26)" fill="#253238"></rect>
    </g>
    <g>
      <path d="M616.53,394.37c.47,.95,23.54-16.85,23.54-16.85" fill="#fff"></path>
      <path d="M616.53,394.9s-.04,0-.06,0l-.38-.3,.9-.44c-.1-.2-.31-.26-.4-.24,1.37-.25,14.95-10.43,23.19-16.79l.61,.79c-10.09,7.78-22.33,16.98-23.85,16.98Z" fill="#253238"></path>
    </g>
    <g>
      <line x1="607.33" y1="391" x2="636.01" y2="370.45" fill="#fff"></line>
      <rect x="604.03" y="380.23" width="35.28" height="1" transform="translate(-105.43 433.25) rotate(-35.62)" fill="#253238"></rect>
    </g>
    <g>
      <line x1="598.13" y1="384.78" x2="628.31" y2="359.11" fill="#fff"></line>
      <rect x="593.41" y="371.44" width="39.62" height="1" transform="translate(-94.82 486.22) rotate(-40.41)" fill="#253238"></rect>
    </g>
    <g opacity=".5">
      <g clip-path="url(#b)">
        <polygon points="538.76 379.52 601.09 385.36 598.51 415.45 538.76 415.45 538.76 379.52" fill="#fff"></polygon>
        <polygon points="538.76 329.79 539.7 318.85 602.54 324.74 602.54 368.5 601.09 385.36 538.76 379.52 538.76 329.79" fill="#fff"></polygon>
        <polygon points="539.7 318.85 542.44 286.92 602.54 286.92 602.54 324.74 539.7 318.85" fill="#fff"></polygon>
      </g>
    </g>
    <path d="M291.38,76.36c-.15,0-.29-.06-.39-.19-.55-.68-13.69-16.62-33.96-3.48-.23,.15-.54,.08-.69-.15-.15-.23-.08-.54,.15-.69,21.04-13.64,35.14,3.52,35.28,3.7,.17,.22,.14,.53-.08,.7-.09,.07-.2,.11-.31,.11Z" fill="#253238"></path>
    <path d="M196.05,144.56c-.17,0-.33-.08-.42-.23-.15-.23-.08-.54,.15-.69,.12-.08,12.26-8.05,18.7-25.86,.09-.26,.38-.39,.64-.3,.26,.09,.39,.38,.3,.64-6.56,18.15-18.98,26.28-19.1,26.36-.08,.05-.18,.08-.27,.08Z" fill="#253238"></path>
    <g>
      <path d="M209.09,147s9.41-7.49,16.11-26.12" fill="#fff"></path>
      <path d="M209.4,147.39l-.62-.78c.09-.07,9.39-7.64,15.95-25.9l.94,.34c-6.67,18.55-16.17,26.27-16.27,26.35Z" fill="#253238"></path>
    </g>
    <g>
      <g>
        <g>
          <g>
            <path d="M178.36,536.42l-15.87,9.73s-.52,11.36-13.51,8.53c0,0-5.77,13.18-19.68,7.2,0,0-14.95,9.51-19.14-.34-4.19-9.85,12.17-13.7,12.17-13.7,0,0,7.76-10.9,21.32-5.78,0,0,8.23-9.86,17.3-2.27l17.42-3.37Z" fill="#9dddb6"></path>
            <path d="M117.2,566.5c-.98,0-1.95-.12-2.85-.4-2.13-.66-3.69-2.13-4.64-4.37-.99-2.32-.97-4.52,.05-6.54,2.61-5.17,10.92-7.46,12.28-7.8,1.03-1.32,8.79-10.51,21.46-5.92,.94-1.02,4.51-4.58,9.31-5.01,2.88-.26,5.67,.68,8.27,2.79l19.89-3.85-18,11.04c-.1,1.05-.69,4.86-3.8,7.25-2.43,1.86-5.76,2.38-9.91,1.55-1.09,2.12-7.22,12.48-19.91,7.2-1.22,.74-6.97,4.07-12.14,4.07Zm19.4-25.3c-8.81,0-13.8,6.84-13.86,6.93l-.11,.15-.18,.04c-.09,.02-9.22,2.23-11.79,7.32-.88,1.74-.89,3.66-.03,5.69,.83,1.96,2.19,3.24,4.02,3.81,5.7,1.77,14.3-3.64,14.39-3.69l.22-.14,.24,.1c13.28,5.7,18.8-6.43,19.02-6.95l.17-.37,.4,.09c4.03,.88,7.21,.45,9.46-1.28,3.19-2.45,3.44-6.74,3.44-6.78v-.26s.24-.14,.24-.14l13.52-8.29-14.94,2.89-.18-.15c-2.44-2.04-5.04-2.96-7.73-2.72-5.08,.45-8.83,4.88-8.87,4.92l-.23,.27-.33-.13c-2.49-.94-4.79-1.32-6.87-1.32Z" fill="#253238"></path>
          </g>
          <path d="M117.96,557.95c4.94-2.04,9.91-4.02,14.9-5.93,4.99-1.92,10-3.78,15.02-5.61,5.03-1.82,10.07-3.6,15.14-5.29,5.07-1.7,10.17-3.32,15.34-4.7l-3.8,1.28-3.78,1.32-7.55,2.69-15.07,5.46-15.08,5.44c-5.03,1.81-10.07,3.59-15.12,5.34Z" fill="#f4e4d5"></path>
        </g>
        <g>
          <g>
            <path d="M178.45,535.34l-14.14-12.11s1.27-11.3-11.99-10.55c0,0-3.62-13.92-18.3-10.22,0,0-13.26-11.74-18.95-2.68-5.69,9.06,9.85,15.45,9.85,15.45,0,0,5.94,11.99,20.14,9.07,0,0,6.57,11.03,16.72,4.97l16.67,6.08Z" fill="#9dddb6"></path>
            <path d="M180.86,536.76l-19.04-6.94c-2.9,1.67-5.79,2.17-8.61,1.45-4.67-1.18-7.64-5.26-8.4-6.42-13.24,2.53-19.45-7.77-20.26-9.24-1.29-.55-9.13-4.13-10.9-9.64-.69-2.16-.36-4.33,.98-6.46,1.29-2.06,3.07-3.27,5.28-3.58,5.86-.84,12.93,4.88,14.23,5.98,13.36-3.21,17.78,7.98,18.53,10.25,4.25-.17,7.44,.87,9.54,3.09,2.7,2.85,2.67,6.71,2.61,7.76l16.04,13.74Zm-19.14-8.04l14.3,5.21-12.25-10.49,.03-.26s.44-4.32-2.33-7.24c-1.95-2.06-5.02-2.99-9.14-2.75l-.41,.02-.1-.4c-.14-.55-3.67-13.39-17.69-9.86l-.26,.07-.2-.18c-.08-.07-7.73-6.77-13.62-5.92-1.9,.27-3.44,1.32-4.57,3.12-1.18,1.87-1.47,3.77-.87,5.63,1.74,5.44,10.41,9.06,10.49,9.09l.17,.07,.08,.17c.24,.48,5.94,11.61,19.59,8.8l.35-.07,.18,.31c.26,.43,6.44,10.53,16.04,4.8l.21-.12Z" fill="#253238"></path>
          </g>
          <path d="M122.2,504.55c4.71,2.53,9.41,5.08,14.09,7.66l14.03,7.76,14.02,7.76,7.03,3.85,3.53,1.9,3.55,1.86c-4.89-2.17-9.67-4.58-14.4-7.06-4.74-2.47-9.44-5.02-14.12-7.61-4.67-2.6-9.33-5.23-13.95-7.91-4.63-2.68-9.22-5.41-13.78-8.21Z" fill="#fff"></path>
        </g>
        <g>
          <g>
            <path d="M181.31,536.37l-25.02,1.58s-6.62,13.44-20.8,3.18c0,0-13.91,12.87-27.56-1.66,0,0-23.05,3.61-22.93-10.49,.13-14.1,21.9-10.13,21.9-10.13,0,0,15.11-9.08,28.78,4.25,0,0,15.13-7.57,22.08,6.37l23.53,6.91Z" fill="#9dddb6"></path>
            <path d="M122.1,546.86c-4.39,0-9.39-1.67-14.35-6.86-1.99,.28-14.04,1.71-19.99-3.42-2.19-1.89-3.28-4.44-3.25-7.6,.03-3.27,1.19-5.88,3.45-7.75,5.88-4.86,17.23-3.18,18.86-2.91,1.7-.93,16.03-8.18,28.97,4.17,1.49-.68,7.77-3.22,13.86-1.19,3.61,1.21,6.46,3.81,8.47,7.74l26.05,7.65-27.57,1.74c-.62,1.13-3.31,5.48-8.34,6.73-3.89,.97-8.18-.17-12.75-3.39-1.31,1.09-6.62,5.09-13.42,5.09Zm-13.98-7.92l.18,.19c13.14,13.99,26.3,2.15,26.85,1.64l.3-.28,.33,.24c4.44,3.21,8.55,4.38,12.23,3.47,5.22-1.29,7.8-6.41,7.83-6.46l.13-.26,22.47-1.42-21.02-6.17-.1-.19c-2.78-5.58-7.23-8.32-13.15-8.14-4.49,.14-8.22,1.97-8.26,1.99l-.32,.16-.25-.25c-13.22-12.89-28.03-4.26-28.18-4.17l-.16,.1-.19-.03c-.12-.02-12.37-2.18-18.23,2.66-2.02,1.67-3.06,4.02-3.09,6.98-.03,2.85,.95,5.15,2.9,6.83,6,5.19,19.31,3.18,19.45,3.16l.26-.04Z" fill="#253238"></path>
          </g>
          <path d="M99.58,526.67c6.87,.1,13.73,.45,20.58,.96,1.71,.13,3.42,.26,5.14,.4l5.13,.46c1.71,.16,3.42,.35,5.12,.53,1.71,.17,3.41,.37,5.12,.57,3.41,.39,6.82,.86,10.22,1.31l5.1,.76,2.55,.38,2.54,.43c6.78,1.08,13.52,2.47,20.21,3.98l-2.54-.4-2.54-.42-2.54-.42-2.55-.38-5.08-.79-5.09-.73c-6.79-.97-13.59-1.87-20.4-2.65-3.4-.43-6.81-.78-10.22-1.16l-5.12-.54-5.12-.51c-3.41-.32-6.83-.65-10.25-.94-3.42-.32-6.84-.58-10.26-.85Z" fill="#fff"></path>
        </g>
      </g>
      <g>
        <path d="M199.02,514.71c.5,.04,.99,.09,1.47,.16,15.6,2.13,16.65,17.41,20.04,20.82,3.49,3.51,8.42,2.55,8.21,5.23-.21,2.68-4.93,.96-8.93,3.87-3.13,2.28-5.97,12.37-15.15,16.05-.74,.3-1.52,.55-2.35,.76-1.67,.41-3.51,.63-5.57,.58-.48,0-.97-.03-1.48-.07-.27-.02-.54-.05-.8-.07-6.49-.66-11.42-2.9-14.95-6.12-.77-.7-1.47-1.45-2.11-2.24-3.83-4.74-5.32-10.93-4.82-17.21,.81-10.17,6.72-19.3,18.34-21.41,.75-.14,1.52-.24,2.32-.32,1.57-.15,3.23-.18,4.99-.08,.27,.02,.53,.03,.8,.06Z" fill="#fff080"></path>
        <path d="M197.29,562.69c-.19,0-.38,0-.57,0-.49,0-.99-.04-1.5-.08-.27-.02-.54-.04-.81-.07-6.26-.63-11.39-2.73-15.24-6.25-.78-.71-1.51-1.49-2.17-2.3-3.71-4.59-5.46-10.83-4.93-17.57,.93-11.72,7.94-19.9,18.75-21.86,.77-.14,1.56-.25,2.36-.32,1.62-.15,3.33-.18,5.07-.08,.27,.02,.54,.03,.82,.06h0c.51,.04,1.01,.09,1.5,.16,11.71,1.6,15.43,10.45,17.89,16.31,.86,2.04,1.6,3.8,2.44,4.64,1.6,1.61,3.55,2.24,5.11,2.75,1.81,.59,3.38,1.1,3.24,2.88-.14,1.78-1.77,2.04-3.65,2.33-1.63,.25-3.65,.57-5.48,1.91-.96,.7-1.97,2.32-3.14,4.2-2.46,3.96-5.84,9.39-12.12,11.91-.78,.31-1.59,.58-2.42,.78-1.61,.4-3.33,.6-5.14,.6Zm-1.08-47.59c-1,0-1.99,.05-2.94,.14-.77,.07-1.53,.18-2.27,.31-10.33,1.88-17.04,9.71-17.93,20.96-.51,6.48,1.16,12.47,4.71,16.86,.62,.77,1.32,1.51,2.06,2.19,3.69,3.37,8.62,5.38,14.67,5.99,.26,.03,.53,.05,.79,.07,.49,.04,.97,.06,1.45,.07,1.92,.04,3.75-.15,5.44-.57,.78-.19,1.55-.44,2.29-.74,5.98-2.4,9.25-7.66,11.65-11.51,1.27-2.05,2.28-3.67,3.4-4.48,2.03-1.48,4.18-1.81,5.92-2.09,1.98-.31,2.74-.51,2.81-1.42,.07-.91-.64-1.23-2.55-1.85-1.67-.54-3.74-1.21-5.51-2.99-.98-.98-1.71-2.74-2.65-4.96-2.37-5.65-5.96-14.19-17.1-15.71-.47-.07-.95-.12-1.44-.16h0c-.27-.02-.53-.04-.79-.05-.66-.04-1.32-.06-1.97-.06Z" fill="#253238"></path>
      </g>
      <g>
        <path d="M203.49,546.72l2.28,.18-1.11,13.93c-.74,.3-1.52,.55-2.35,.76l1.18-14.87Z" fill="#fff"></path>
        <path d="M201.75,562.25l1.28-16.06,3.27,.26-1.17,14.74-.29,.12c-.78,.31-1.59,.58-2.42,.78l-.67,.17Zm2.19-14.99l-1.08,13.67c.45-.13,.89-.28,1.32-.44l1.04-13.12-1.28-.1Z" fill="#253238"></path>
      </g>
      <g>
        <path d="M195.22,552.4l2.28,.18-.76,9.6c-.48,0-.97-.03-1.48-.07-.27-.02-.54-.05-.8-.07l.76-9.63Z" fill="#fff"></path>
        <path d="M197.2,562.69h-.47c-.49-.02-.99-.04-1.51-.08-.27-.02-.54-.04-.81-.07l-.49-.05,.84-10.62,3.27,.26-.84,10.57Zm-2.2-1.11c.1,0,.2,.02,.31,.03,.33,.03,.66,.05,.98,.06l.68-8.62-1.28-.1-.69,8.64Z" fill="#253238"></path>
      </g>
      <g>
        <path d="M199.02,514.71c.5,.04,.99,.09,1.47,.16l-.76,9.6-2.28-.18,.76-9.63c.27,.02,.53,.03,.8,.06Z" fill="#fff"></path>
        <path d="M200.19,525l-3.27-.26,.84-10.62,.49,.03c.27,.02,.54,.03,.82,.06h0c.51,.04,1.01,.09,1.5,.16l.46,.07-.84,10.57Zm-2.2-1.18l1.28,.1,.68-8.62c-.32-.04-.64-.07-.97-.1-.1,0-.2-.02-.31-.02l-.69,8.64Z" fill="#253238"></path>
      </g>
      <g>
        <path d="M193.23,514.73l-.55,6.88-2.28-.18,.51-6.38c.75-.14,1.52-.24,2.32-.32Z" fill="#fff"></path>
        <path d="M193.14,522.15l-3.27-.26,.58-7.27,.38-.07c.77-.14,1.56-.25,2.36-.32l.59-.05-.63,7.97Zm-2.2-1.18l1.28,.1,.46-5.79c-.44,.05-.87,.11-1.3,.18l-.44,5.5Z" fill="#253238"></path>
      </g>
      <g>
        <path d="M178,546.05l2.28,.18-.77,9.68c-.77-.7-1.47-1.45-2.11-2.24l.6-7.62Z" fill="#fff"></path>
        <path d="M179.92,556.97l-.75-.69c-.78-.71-1.51-1.49-2.17-2.3l-.12-.15,.66-8.32,3.27,.26-.89,11.2Zm-2.02-3.46c.37,.45,.77,.89,1.18,1.31l.65-8.13-1.28-.1-.55,6.92Z" fill="#253238"></path>
      </g>
    </g>
    <g>
      <g>
        <path d="M194.7,542.49c32.33,.71,65.53,2.1,65.53,2.1,3.47,5.36-.44,11.11-.44,11.11,0,0-33.53-.69-65.56-1.36-1.13-.02-2.25-.04-3.36-.06-.77-.02-1.53-.03-2.29-.05-2.26-.05-4.52-.1-6.73-.14-.77-.02-1.53-.03-2.29-.05-4.69-.1-9.22-.19-13.47-.28-.77-.02-1.53-.03-2.29-.05-13.14-.27-23.16-.49-26.07-.56-14.62-.35-65.58,19.05-65.58,19.05,0,0-4.9,1.03-5.76-7.79,0,0,20.33-6.95,39.73-13l-49.14,10.35s-3.06-2.47-2.27-7.75l28.52-5.4-30.13,.13s-2.01-2.8,.35-8.77l53.83,1.6-43.63-6.65s-.65-4.72,1.29-7.82c0,0,28.95,6.34,66.92,12.35l-46.01-12.66s-.55-3.28,2.62-6.94c0,0,45.16,19.24,75.8,21.92,.77,.07,1.53,.13,2.28,.17,1.06,.07,2.1,.11,3.12,.13h.03c3.33,.03,6.78,.07,10.32,.12,.76,0,1.52,.02,2.29,.04,2.22,.03,4.47,.08,6.73,.12,.76,.01,1.53,.03,2.29,.04,1.12,.02,2.24,.05,3.36,.07Z" fill="#fff"></path>
        <path d="M71.67,572.73c-.63,0-1.61-.15-2.61-.88-1.74-1.28-2.81-3.76-3.16-7.39l-.04-.39,.37-.13c.17-.06,14.3-4.88,30.09-9.95l-39.46,8.31-.18-.15c-.13-.11-3.28-2.71-2.45-8.22l.05-.35,23.51-4.45-24.93,.11-.15-.21c-.09-.12-2.14-3.1,.29-9.25l.13-.33h.35s45.61,1.37,45.61,1.37l-35.88-5.47-.05-.37c-.03-.2-.65-4.93,1.37-8.15l.19-.3,.34,.08c.26,.06,24.75,5.4,57.76,10.86l-37.4-10.29-.05-.31c-.02-.14-.55-3.55,2.74-7.35l.24-.27,.33,.14c.45,.19,45.44,19.24,75.65,21.89,.76,.07,1.52,.13,2.27,.17,1,.07,2.01,.11,3.1,.13,3.35,.03,6.81,.07,10.35,.12,.76,0,1.52,.02,2.29,.04,1.99,.03,4.01,.07,6.04,.11h.7c.76,.03,1.53,.04,2.29,.06,1.12,.02,2.24,.05,3.36,.07h0c31.96,.7,65.2,2.08,65.54,2.09h.26s.14,.23,.14,.23c3.61,5.58-.4,11.6-.44,11.67l-.15,.22h-.27s-33.53-.69-65.56-1.36l-5.65-.11c-2.26-.05-4.52-.1-6.73-.14l-18.04-.38c-13.14-.27-23.16-.49-26.07-.56-.13,0-.26,0-.39,0-14.86,0-64.5,18.83-65,19.03-.05,.01-.29,.06-.66,.06Zm-4.74-7.97c.36,3.06,1.28,5.22,2.69,6.27,1.22,.91,2.38,.69,2.43,.68,1.99-.76,50.23-19.07,65.28-19.07,.14,0,.28,0,.41,0,2.91,.07,12.93,.28,26.07,.56l18.04,.38c2.21,.04,4.47,.09,6.73,.14l5.65,.11c30.31,.63,61.96,1.28,65.27,1.35,.63-1.07,3.08-5.74,.43-10.12-3.2-.13-34.81-1.41-65.25-2.08h0c-1.12-.03-2.24-.05-3.36-.07-.76-.02-1.52-.03-2.29-.04h-.7c-2.03-.05-4.04-.09-6.04-.12-.77-.02-1.53-.03-2.29-.04-3.54-.05-6.99-.09-10.32-.12-1.14-.03-2.17-.07-3.18-.13-.75-.04-1.52-.1-2.3-.17-28.97-2.54-71.38-20.05-75.61-21.82-2.21,2.7-2.33,5.11-2.3,5.94l45.68,12.57-.21,.98c-35.31-5.59-63.16-11.54-66.6-12.28-1.33,2.41-1.18,5.72-1.08,6.82l43.25,6.59-.09,.99-53.47-1.59c-1.69,4.5-.75,7.04-.4,7.76l29.83-.13,.09,.99-28.16,5.33c-.49,4.04,1.38,6.21,1.97,6.79l48.89-10.3,.25,.97c-17.73,5.52-36.47,11.88-39.34,12.86Z" fill="#253238"></path>
      </g>
      <g>
        <path d="M88.48,519.86s45.16,19.24,75.8,21.92l-.47,11.92c-13.14-.27-23.16-.49-26.07-.56-14.62-.35-65.58,19.05-65.58,19.05,0,0-4.9,1.03-5.76-7.79,0,0,20.33-6.95,39.73-13l-49.14,10.35s-3.06-2.47-2.27-7.75l28.52-5.4-30.13,.13s-2.01-2.8,.35-8.77l53.83,1.6-43.63-6.65s-.65-4.72,1.29-7.82c0,0,28.95,6.34,66.92,12.35l-46.01-12.66s-.55-3.28,2.62-6.94Z" fill="#9dddb6"></path>
        <path d="M71.67,572.73c-.63,0-1.61-.15-2.61-.88-1.74-1.28-2.81-3.76-3.16-7.39l-.04-.39,.37-.13c.17-.06,14.3-4.88,30.09-9.95l-39.46,8.31-.18-.15c-.13-.11-3.28-2.71-2.45-8.22l.05-.35,23.51-4.45-24.93,.11-.15-.21c-.09-.12-2.14-3.1,.29-9.25l.13-.33h.35s45.61,1.37,45.61,1.37l-35.88-5.47-.05-.37c-.03-.2-.65-4.93,1.37-8.15l.19-.3,.34,.08c.26,.06,24.75,5.4,57.76,10.86l-37.4-10.29-.05-.31c-.02-.14-.55-3.55,2.74-7.35l.24-.27,.33,.14c.45,.19,45.44,19.24,75.65,21.89l.47,.04-.51,12.89h-.49c-13.14-.28-23.16-.5-26.07-.57-.13,0-.26,0-.39,0-14.86,0-64.5,18.83-65,19.03-.05,.01-.29,.06-.66,.06Zm-4.74-7.97c.36,3.06,1.28,5.22,2.69,6.27,1.22,.91,2.38,.69,2.43,.68,1.99-.76,50.23-19.07,65.28-19.07,.14,0,.28,0,.41,0,2.87,.07,12.68,.28,25.58,.55l.43-10.96c-28.95-2.69-70.92-20.01-75.14-21.78-2.2,2.68-2.33,5.11-2.3,5.94l45.68,12.57-.21,.98c-35.31-5.59-63.16-11.54-66.6-12.28-1.33,2.41-1.18,5.72-1.08,6.82l43.25,6.59-.09,.99-53.47-1.59c-1.69,4.5-.75,7.04-.4,7.76l29.83-.13,.09,.99-28.16,5.33c-.49,4.04,1.38,6.21,1.97,6.79l48.89-10.3,.25,.97c-17.73,5.52-36.47,11.88-39.34,12.86Z" fill="#253238"></path>
      </g>
      <g>
        <path d="M180.03,542.21l-.47,11.82c-4.69-.1-9.22-.19-13.47-.28l.47-11.8c1.06,.07,2.1,.11,3.12,.13h.03c3.33,.03,6.78,.07,10.32,.12Z" fill="#9dddb6"></path>
        <path d="M180.04,554.54l-14.47-.3,.51-12.82,.51,.03c1,.07,2.01,.11,3.09,.13,3.35,.03,6.81,.07,10.35,.12h.51s-.5,12.83-.5,12.83Zm-13.43-1.28l12.47,.26,.43-10.82c-3.36-.05-6.64-.09-9.8-.11-.95-.02-1.82-.05-2.66-.1l-.43,10.78Z" fill="#253238"></path>
      </g>
      <g>
        <path d="M189.05,542.37l-.47,11.86c-2.26-.05-4.52-.1-6.73-.14l.47-11.84c2.22,.03,4.47,.08,6.73,.12Z" fill="#9dddb6"></path>
        <path d="M189.06,554.73h-.49c-2.26-.06-4.52-.11-6.73-.15h-.51s.51-12.84,.51-12.84h.49c1.99,.04,4.01,.08,6.04,.11l1.21,.02-.51,12.86Zm-6.69-1.14c1.89,.04,3.81,.08,5.73,.12l.43-10.86h-.19c-1.86-.04-3.71-.07-5.55-.1l-.43,10.84Z" fill="#253238"></path>
      </g>
      <g>
        <path d="M194.7,542.49l-.47,11.85c-1.13-.02-2.25-.04-3.36-.06l.47-11.86c1.12,.02,2.24,.05,3.36,.07Z" fill="#9dddb6"></path>
        <path d="M194.71,554.85l-4.36-.08,.51-12.86h.49c1.12,.03,2.24,.06,3.37,.08h.51s-.51,12.86-.51,12.86Zm-3.33-1.06l2.36,.04,.43-10.85c-.79-.02-1.58-.04-2.36-.05l-.43,10.86Z" fill="#253238"></path>
      </g>
    </g>
  </g>
  <g>
    <path d="M647.9,132.94h-4.64c-.16,0-.31-.08-.41-.21-.09-.13-.12-.3-.07-.45l3.53-10.59c.09-.26,.37-.4,.63-.32,.26,.09,.4,.37,.32,.63l-3.31,9.93h3.95c.28,0,.5,.22,.5,.5s-.22,.5-.5,.5Z" fill="#253238"></path>
    <g>
      <path d="M640.81,136.43l12.39,1.18c.58,.05,.83,.75,.43,1.17-2.54,2.63-9.67,8.69-13.53-1.41-.18-.48,.19-.99,.71-.94Z" fill="#fff"></path>
      <path d="M646.09,143.49c-.36,0-.72-.03-1.07-.11-2.27-.46-4.08-2.43-5.38-5.84-.15-.39-.09-.82,.16-1.15,.25-.33,.64-.51,1.06-.46l12.39,1.18c.46,.04,.84,.34,1,.77,.16,.43,.06,.91-.26,1.24-1.65,1.71-4.73,4.37-7.9,4.37Zm-5.35-6.57c-.08,0-.12,.04-.15,.07-.02,.03-.06,.1-.03,.19,1.17,3.07,2.74,4.82,4.65,5.21,3.18,.65,6.69-2.57,8.05-3.98,.07-.07,.06-.16,.04-.2-.02-.04-.06-.11-.16-.12l-12.39-1.18s-.01,0-.02,0Z" fill="#253238"></path>
    </g>
    <path d="M645.58,109.35c-.09,0-.19-.03-.27-.08-5.16-3.28-9.91-1.11-9.96-1.09-.25,.12-.55,0-.67-.24-.12-.25-.01-.55,.24-.67,.21-.1,5.3-2.42,10.92,1.15,.23,.15,.3,.46,.15,.69-.1,.15-.26,.23-.42,.23Z" fill="#253238"></path>
    <path d="M665,111.88c-.09,0-.19-.03-.27-.08-5.14-3.27-9.91-1.11-9.96-1.09-.25,.12-.55,0-.66-.24-.12-.25,0-.55,.24-.66,.21-.1,5.3-2.42,10.92,1.15,.23,.15,.3,.46,.15,.69-.1,.15-.26,.23-.42,.23Z" fill="#253238"></path>
    <ellipse cx="659.5" cy="120.09" rx="2.47" ry="3.53" fill="#253238"></ellipse>
    <ellipse cx="638.67" cy="117.62" rx="2.47" ry="3.53" fill="#253238"></ellipse>
  </g>
  <g>
    <path d="M284.06,126.65s-.03,0-.04,0l-4.62-.39c-.27-.02-.48-.26-.46-.54,.02-.28,.28-.48,.54-.46l3.93,.33-2.47-10.17c-.06-.27,.1-.54,.37-.6,.28-.07,.54,.1,.6,.37l2.64,10.85c.04,.16,0,.32-.11,.44-.1,.11-.23,.17-.38,.17Z" fill="#253238"></path>
    <g>
      <path d="M286.18,130.33l-12.45,.15c-.58,0-.89,.68-.53,1.13,2.32,2.84,8.92,9.46,13.6-.28,.22-.46-.11-1-.63-1Z" fill="#fff"></path>
      <path d="M280.78,136.95c-3.33,0-6.39-3.1-7.96-5.03-.29-.36-.35-.84-.16-1.26,.2-.42,.6-.68,1.06-.69l12.45-.15h.01c.41,0,.78,.2,1,.55,.22,.35,.25,.79,.07,1.16-1.58,3.29-3.55,5.1-5.85,5.37-.21,.02-.42,.04-.62,.04Zm5.4-6.12l-12.45,.15c-.1,0-.15,.07-.17,.11-.02,.04-.04,.12,.03,.2,1.24,1.52,4.47,5.01,7.69,4.63,1.94-.23,3.65-1.85,5.07-4.81,.04-.09,0-.17,0-.19-.02-.03-.07-.09-.16-.09h0Z" fill="#253238"></path>
    </g>
    <path d="M283.71,102.95c-.18,0-.35-.1-.44-.27-.13-.24-.03-.55,.21-.68,5.89-3.09,10.77-.36,10.98-.24,.24,.14,.32,.44,.18,.68-.14,.24-.44,.32-.68,.19-.05-.03-4.63-2.57-10.01,.26-.07,.04-.15,.06-.23,.06Z" fill="#253238"></path>
    <path d="M264.15,103.86c-.18,0-.35-.1-.44-.27-.13-.24-.03-.55,.21-.68,5.89-3.1,10.77-.36,10.98-.24,.24,.14,.32,.44,.18,.68-.14,.24-.45,.32-.68,.19-.05-.03-4.62-2.57-10.01,.26-.07,.04-.15,.06-.23,.06Z" fill="#253238"></path>
    <ellipse cx="268.9" cy="112.49" rx="3.53" ry="2.47" transform="translate(134.45 371.11) rotate(-85.23)" fill="#253238"></ellipse>
    <ellipse cx="289.87" cy="111.76" rx="3.53" ry="2.47" transform="translate(154.4 391.33) rotate(-85.23)" fill="#253238"></ellipse>
  </g>
  <path d="M238.69,112.99c-.12,0-.24-.04-.34-.13-3.98-3.61-2.34-11.58-2.27-11.92,.06-.27,.33-.44,.59-.39,.27,.06,.44,.32,.39,.59-.02,.08-1.59,7.74,1.96,10.97,.21,.19,.22,.5,.03,.71-.1,.11-.23,.16-.37,.16Z" fill="#253238"></path>
</svg>
